<svg xmlns="http://www.w3.org/2000/svg" width="45" height="45" viewBox="0 0 45 45">
    <g fill="none" fill-rule="evenodd">
        <path fill="#006CB0" d="M22.53 25.103l2.952 2.952a6.261 6.261 0 0 0-8.854-8.855l2.951 2.952M24.269 30.636L14.046 20.413a.822.822 0 0 1 0-1.161l.103-.103a.82.82 0 0 1 1.162 0L25.534 29.37c.32.32.32.841 0 1.162l-.103.103c-.321.32-.841.32-1.162 0"/>
        <path fill="#F2C85B" d="M11.225 26.41c-.3-.299-.3-.784 0-1.084l2.493-2.493a.767.767 0 1 1 1.084 1.084l-2.494 2.493a.767.767 0 0 1-1.083 0M13.574 28.76a.767.767 0 0 1 0-1.084l2.494-2.494a.766.766 0 1 1 1.083 1.084l-2.493 2.493c-.3.3-.785.3-1.084 0M15.923 31.109c-.3-.3-.3-.785 0-1.084l2.494-2.494a.766.766 0 1 1 1.084 1.084l-2.494 2.494a.767.767 0 0 1-1.084 0M18.272 33.458a.767.767 0 0 1 0-1.084l2.494-2.494a.767.767 0 1 1 1.084 1.084l-2.494 2.494c-.3.3-.785.3-1.084 0"/>
        <path fill="#006CB0" d="M28.387 15.6c-.596 0-1.168.237-1.59.659l-.014.015-3.74 3.74 1.626 1.626 3.367-3.367c.239-.24.563-.373.9-.373H34v-2.3h-5.613z"/>
        <path fill="#006CB0" d="M32.85 34a1.15 1.15 0 0 1-1.15-1.15v-20.7a1.15 1.15 0 1 1 2.3 0v20.7A1.15 1.15 0 0 1 32.85 34"/>
    </g>
</svg>
