<svg xmlns="http://www.w3.org/2000/svg" xmlns:xlink="http://www.w3.org/1999/xlink" width="45" height="45" viewBox="0 0 45 45">
    <defs>
        <path id="a" d="M0 .255h16.1v1.79H0z"/>
    </defs>
    <g fill="none" fill-rule="evenodd">
        <path fill="#006CB0" d="M31.7 11H20.2a2.3 2.3 0 0 0-2.3 2.3v6.9h2.3v-6.228c0-.371.3-.672.672-.672h10.156c.371 0 .672.3.672.672V32.85a1.15 1.15 0 1 0 2.3 0V13.3a2.3 2.3 0 0 0-2.3-2.3"/>
        <path fill="#006CB0" d="M21.137 24.161h4.174a6.26 6.26 0 1 0-12.522 0h4.174"/>
        <path fill="#F2C85B" d="M14.578 29.34c0 .597-.4 1.082-.895 1.082-.494 0-.894-.485-.894-1.083s.596-1.37.894-2.093c.298.722.895 1.495.895 2.093M18.156 29.34c0 .597-.401 1.082-.895 1.082s-.894-.485-.894-1.083.596-1.37.894-2.093c.298.722.895 1.495.895 2.093M21.733 29.34c0 .597-.4 1.082-.894 1.082s-.895-.485-.895-1.083.597-1.37.895-2.093c.298.722.894 1.495.894 2.093M25.311 29.34c0 .597-.4 1.082-.894 1.082-.495 0-.895-.485-.895-1.083s.596-1.37.895-2.093c.298.722.894 1.495.894 2.093"/>
        <g transform="translate(11 24.8)">
            <mask id="b" fill="#fff">
                <use xlink:href="#a"/>
            </mask>
            <path fill="#006CB0" d="M15.278 2.044H.822A.822.822 0 0 1 0 1.224v-.147C0 .623.368.255.822.255h14.456c.454 0 .822.368.822.822v.146a.822.822 0 0 1-.822.821" mask="url(#b)"/>
        </g>
    </g>
</svg>
