<svg xmlns="http://www.w3.org/2000/svg" xmlns:xlink="http://www.w3.org/1999/xlink" width="45" height="45" viewBox="0 0 45 45">
    <defs>
        <path id="a" d="M.173.112h3.304v5.797H.173z"/>
        <path id="c" d="M0 0h20.7v9.09H0z"/>
    </defs>
    <g fill="none" fill-rule="evenodd">
        <g transform="translate(11.46 29.09)">
            <mask id="b" fill="#fff">
                <use xlink:href="#a"/>
            </mask>
            <path fill="#F2C85B" d="M3.477 3.932c0 1.092-.739 1.977-1.652 1.977-.912 0-1.652-.885-1.652-1.977 0-1.09 1.101-2.503 1.652-3.82.55 1.317 1.652 2.73 1.652 3.82" mask="url(#b)"/>
        </g>
        <path fill="#006CB0" d="M32.85 28.182c-.635 0-1.15-.509-1.15-1.137V15.682c0-.628.515-1.137 1.15-1.137.635 0 1.15.51 1.15 1.137v11.363c0 .628-.515 1.137-1.15 1.137M22.5 23.636c-.635 0-1.15-.508-1.15-1.136V11.136c0-.627.515-1.136 1.15-1.136.635 0 1.15.509 1.15 1.136V22.5c0 .628-.515 1.136-1.15 1.136"/>
        <path fill="#006CB0" d="M23.65 21.364h-2.3c-.635 0-1.15-.509-1.15-1.137v-4.545c0-.628.515-1.137 1.15-1.137h2.3c.635 0 1.15.51 1.15 1.137v4.545c0 .628-.515 1.137-1.15 1.137"/>
        <g transform="translate(11 19.09)">
            <mask id="d" fill="#fff">
                <use xlink:href="#c"/>
            </mask>
            <path fill="#006CB0" d="M20.7 0H4.6C2.06 0 0 2.035 0 4.545v3.73c0 .45.37.816.827.816h2.946a.822.822 0 0 0 .827-.817V5.67c0-.62.509-1.124 3.437-1.124H20.7V0z" mask="url(#d)"/>
        </g>
        <path fill="#006CB0" d="M27.1 21.364c0 2.51-2.06 4.545-4.6 4.545-2.54 0-4.6-2.035-4.6-4.545s2.06-4.546 4.6-4.546c2.54 0 4.6 2.036 4.6 4.546M25.95 12.273h-6.9c-.635 0-1.15-.509-1.15-1.137 0-.627.515-1.136 1.15-1.136h6.9c.635 0 1.15.509 1.15 1.136 0 .628-.515 1.137-1.15 1.137"/>
    </g>
</svg>
