<svg xmlns="http://www.w3.org/2000/svg" width="45" height="45" viewBox="0 0 45 45">
    <g fill="none" fill-rule="evenodd">
        <path fill="#006CB0" d="M12 17.09v16.546C12 34.942 13.044 36 14.333 36h16.334C31.956 36 33 34.942 33 33.636V12.364C33 11.058 31.956 10 30.667 10H14.333C13.044 10 12 11.058 12 12.364v4.727z"/>
        <path fill="#F2C85B" d="M28.333 14.727a1.174 1.174 0 0 1-1.166-1.182c0-.652.522-1.181 1.166-1.181.645 0 1.167.529 1.167 1.181 0 .653-.522 1.182-1.167 1.182M20.555 14.727a1.174 1.174 0 0 1-1.166-1.182c0-.652.522-1.181 1.166-1.181.645 0 1.167.529 1.167 1.181 0 .653-.522 1.182-1.167 1.182"/>
        <path fill="#FEFEFE" d="M24.445 14.727a1.174 1.174 0 0 1-1.167-1.182c0-.652.522-1.181 1.167-1.181.644 0 1.166.529 1.166 1.181 0 .653-.522 1.182-1.166 1.182"/>
        <path fill="#F2C85B" d="M16.667 14.727a1.174 1.174 0 0 1-1.167-1.182c0-.652.522-1.181 1.167-1.181.644 0 1.166.529 1.166 1.181 0 .653-.522 1.182-1.166 1.182M30.667 25.364c0 4.569-3.657 8.272-8.167 8.272s-8.167-3.703-8.167-8.272c0-4.57 3.657-8.273 8.167-8.273s8.167 3.704 8.167 8.273"/>
        <path fill="#FEFEFE" d="M28.435 27.613c-.532-.454-1.392-.454-1.922 0l-.523.447c-.531.454-1.391.454-1.922 0l-.523-.447c-.53-.454-1.39-.454-1.921 0l-.523.447c-.53.454-1.39.454-1.921 0l-.524-.447c-.53-.454-1.39-.454-1.92 0l-.906.774a7.456 7.456 0 0 1-.637-3.023c0-4.088 3.272-7.402 7.307-7.402 4.036 0 7.307 3.314 7.307 7.402a7.464 7.464 0 0 1-.59 2.918l-.782-.669zM22.5 17.091c-4.51 0-8.167 3.704-8.167 8.273 0 1.398.345 2.715.95 3.87 1.371 2.619 4.087 4.402 7.217 4.402 3.22 0 6.004-1.888 7.334-4.631.533-1.1.833-2.334.833-3.641 0-4.57-3.657-8.273-8.167-8.273z"/>
        <path fill="#006CB0" d="M27.75 27.432a.587.587 0 0 1-.583-.591v-2.955c0-.326.261-.59.583-.59.322 0 .583.264.583.59v2.955c0 .326-.261.59-.583.59"/>
    </g>
</svg>
