<svg xmlns="http://www.w3.org/2000/svg" xmlns:xlink="http://www.w3.org/1999/xlink" width="45" height="45" viewBox="0 0 45 45">
    <defs>
        <path id="a" d="M0 .345h7.481v7.378H0z"/>
        <path id="c" d="M.428.345h7.481v7.378H.428z"/>
    </defs>
    <g fill="none" fill-rule="evenodd">
        <path fill="#F2C85B" d="M16.339 11.517l1.232 1.215c2.722-2.684 7.136-2.684 9.858 0l1.232-1.215c-3.403-3.356-8.92-3.356-12.322 0"/>
        <path fill="#F2C85B" d="M24.964 15.163l1.233-1.215a5.281 5.281 0 0 0-7.394 0l1.232 1.215a3.52 3.52 0 0 1 4.93 0M21.268 16.378l1.232 1.216 1.232-1.215a1.76 1.76 0 0 0-2.464-.001"/>
        <path fill="#006CB0" d="M20.519 19.407l-7.457 1.97c-.52.138-.895.741-.895 1.442v8.51c0 .7.375 1.304.895 1.442l7.457 1.97a7.71 7.71 0 0 0 3.963 0l7.456-1.97c.52-.138.895-.742.895-1.443V22.82c0-.7-.374-1.304-.895-1.442l-7.456-1.97a7.71 7.71 0 0 0-3.963 0"/>
        <g transform="translate(8 23.04)">
            <mask id="b" fill="#fff">
                <use xlink:href="#a"/>
            </mask>
            <path fill="#006CB0" d="M3.74 6.751C2.22 6.751.986 5.535.986 4.033c0-1.5 1.234-2.717 2.756-2.717 1.522 0 2.755 1.217 2.755 2.717 0 1.502-1.233 2.718-2.755 2.718m0-6.406C1.675.345 0 1.996 0 4.033c0 2.038 1.675 3.69 3.74 3.69 2.067 0 3.741-1.652 3.741-3.69 0-2.037-1.674-3.688-3.74-3.688" mask="url(#b)"/>
        </g>
        <g transform="translate(29.09 23.04)">
            <mask id="d" fill="#fff">
                <use xlink:href="#c"/>
            </mask>
            <path fill="#006CB0" d="M4.168 6.751c-1.521 0-2.755-1.216-2.755-2.718 0-1.5 1.234-2.717 2.755-2.717 1.522 0 2.756 1.217 2.756 2.717 0 1.502-1.234 2.718-2.756 2.718m0-6.406C2.102.345.428 1.996.428 4.033c0 2.038 1.674 3.69 3.74 3.69 2.066 0 3.741-1.652 3.741-3.69C7.91 1.996 6.234.345 4.17.345" mask="url(#d)"/>
        </g>
        <path fill="#F2C85B" d="M28.24 30.47a.57.57 0 0 1-.573-.565v-5.662a.57.57 0 0 1 .574-.566.57.57 0 0 1 .574.566v5.662a.57.57 0 0 1-.574.566M16.76 30.47a.57.57 0 0 1-.575-.565v-5.662a.57.57 0 0 1 .574-.566.57.57 0 0 1 .574.566v5.662a.57.57 0 0 1-.574.566"/>
    </g>
</svg>
