<svg xmlns="http://www.w3.org/2000/svg" xmlns:xlink="http://www.w3.org/1999/xlink" width="45" height="45" viewBox="0 0 45 45">
    <defs>
        <path id="a" d="M0 0h21v21H0z"/>
    </defs>
    <g fill="none" fill-rule="evenodd">
        <path fill="#000" d="M21.333 36h2.334V19.667h-2.334z"/>
        <path fill="#000" d="M14.333 36l1.04-1.634c.273-.429.83-.7 1.44-.7h11.374c.61 0 1.167.271 1.44.7L30.666 36H14.333z"/>
        <g transform="translate(12 8)">
            <mask id="b" fill="#fff">
                <use xlink:href="#a"/>
            </mask>
            <path fill="#000" d="M21 10.5C21 16.299 16.3 21 10.5 21S0 16.299 0 10.5 4.7 0 10.5 0 21 4.701 21 10.5" mask="url(#b)"/>
        </g>
        <path fill="#000" d="M32.083 18.5a9.583 9.583 0 1 1-19.166 0 9.583 9.583 0 0 1 19.166 0"/>
        <path fill="#9B9B9B" d="M30.667 18.5a8.167 8.167 0 1 1-16.334 0 8.167 8.167 0 0 1 16.334 0"/>
        <path fill="#F2C85B" d="M24.008 18.487a1.496 1.496 0 1 1-2.991 0 1.496 1.496 0 0 1 2.991 0"/>
        <path fill="#000" d="M24.427 13.436c.323-.537.066-1.332-.48-1.399a.709.709 0 0 0-.083-.005h-2.07c-.366 0-.675.294-.777.698-.038.15-.03.31.005.461l.772 3.328c.467 0 .91-.259 1.2-.703l1.433-2.38zM23.205 20.482l.773 3.327c.035.15.043.312.005.46-.102.405-.412.699-.778.699h-2.07a.695.695 0 0 1-.082-.005c-.545-.067-.803-.862-.48-1.399l1.434-2.38c.29-.444.731-.702 1.198-.702M27.565 20.401c.536.323 1.33.066 1.398-.479a.61.61 0 0 0 .005-.083v-2.07c0-.366-.294-.675-.698-.777a.983.983 0 0 0-.461.005l-3.327.772c0 .467.258.909.702 1.2l2.38 1.432zM17.433 16.546c-.542-.314-1.33-.053-1.396.49a.61.61 0 0 0-.005.082v2.067c0 .34.253.63.612.751.18.061.382.06.568.012l3.306-.836c0-.466-.262-.905-.71-1.189l-2.375-1.377z"/>
    </g>
</svg>
