<svg xmlns="http://www.w3.org/2000/svg" width="45" height="45" viewBox="0 0 45 45">
    <g fill="none" fill-rule="evenodd">
        <path fill="#006CB0" d="M15.759 14.31c-1.524 0-2.759 1.278-2.759 2.854V33.96c0 1.576 1.235 2.853 2.759 2.853H29.24c1.524 0 2.759-1.277 2.759-2.853V17.164c0-1.576-1.235-2.853-2.759-2.853"/>
        <path fill="#FEFEFE" d="M29.286 26.965c0 .776-.608 1.404-1.357 1.404-.75 0-1.358-.628-1.358-1.404 0-.775.608-1.403 1.358-1.403.75 0 1.357.628 1.357 1.403"/>
        <path fill="#F2C85B" d="M29.286 32.58c0 .775-.608 1.403-1.357 1.403-.75 0-1.358-.628-1.358-1.404 0-.775.608-1.403 1.358-1.403.75 0 1.357.628 1.357 1.403"/>
        <path fill="#FEFEFE" d="M28.568 21.456H16.432a.73.73 0 0 1-.718-.743.73.73 0 0 1 .718-.743h12.136a.73.73 0 0 1 .718.743.73.73 0 0 1-.718.743M28.568 18.649H16.432a.73.73 0 0 1-.718-.743.73.73 0 0 1 .718-.743h12.136a.73.73 0 0 1 .718.743.73.73 0 0 1-.718.743"/>
        <path fill="#F2C85B" d="M19.23 9.988a.345.345 0 0 1-.248.106.358.358 0 0 1-.352-.364c0-.1.039-.19.102-.256a1.013 1.013 0 0 0-.908 0 .37.37 0 0 1 .102.256.358.358 0 0 1-.352.364.346.346 0 0 1-.248-.106 1.12 1.12 0 0 0 0 .94.344.344 0 0 1 .248-.106c.195 0 .352.163.352.364 0 .1-.04.19-.102.256a1.023 1.023 0 0 0 .908 0 .37.37 0 0 1-.102-.256c0-.201.157-.364.352-.364.097 0 .184.04.248.106a1.12 1.12 0 0 0 0-.94M23.452 7.805a.345.345 0 0 1-.249.106.358.358 0 0 1-.35-.364c0-.1.038-.19.101-.257a1.024 1.024 0 0 0-.908 0 .37.37 0 0 1 .102.257.358.358 0 0 1-.352.364.345.345 0 0 1-.248-.106 1.118 1.118 0 0 0 0 .94.344.344 0 0 1 .248-.107c.195 0 .352.164.352.365 0 .1-.04.19-.102.256a1.024 1.024 0 0 0 .908 0 .37.37 0 0 1-.102-.256c0-.201.158-.365.351-.365.098 0 .185.041.249.107a1.12 1.12 0 0 0 0-.94M27.674 5.622a.346.346 0 0 1-.248.106.358.358 0 0 1-.352-.364c0-.1.04-.191.102-.257a1.023 1.023 0 0 0-.908 0 .37.37 0 0 1 .103.257.358.358 0 0 1-.353.364.345.345 0 0 1-.248-.106 1.116 1.116 0 0 0 0 .94.346.346 0 0 1 .248-.107c.195 0 .353.163.353.365 0 .1-.04.19-.103.256a1.02 1.02 0 0 0 .908 0 .37.37 0 0 1-.102-.256c0-.202.158-.365.352-.365.097 0 .185.041.248.106a1.118 1.118 0 0 0 0-.939M15.007 7.805a.345.345 0 0 1-.247.106.358.358 0 0 1-.352-.364c0-.1.039-.19.102-.257a1.024 1.024 0 0 0-.909 0 .368.368 0 0 1 .103.257.358.358 0 0 1-.352.364.345.345 0 0 1-.248-.106 1.118 1.118 0 0 0 0 .94.344.344 0 0 1 .248-.107c.194 0 .352.164.352.365 0 .1-.04.19-.103.256a1.024 1.024 0 0 0 .909 0 .37.37 0 0 1-.102-.256c0-.201.157-.365.352-.365.096 0 .184.041.247.107a1.112 1.112 0 0 0 0-.94M31.896 7.805a.345.345 0 0 1-.248.106.358.358 0 0 1-.351-.364c0-.1.038-.19.102-.257a1.024 1.024 0 0 0-.909 0 .37.37 0 0 1 .103.257.358.358 0 0 1-.353.364.345.345 0 0 1-.247-.106 1.11 1.11 0 0 0 0 .94.344.344 0 0 1 .247-.107c.195 0 .353.164.353.365 0 .1-.04.19-.103.256a1.024 1.024 0 0 0 .909 0 .367.367 0 0 1-.102-.256c0-.201.157-.365.351-.365.097 0 .185.041.248.107a1.12 1.12 0 0 0 0-.94M19.23 5.622a.345.345 0 0 1-.248.106.358.358 0 0 1-.352-.364c0-.1.039-.191.102-.257a1.02 1.02 0 0 0-.908 0 .37.37 0 0 1 .102.257.358.358 0 0 1-.352.364.346.346 0 0 1-.248-.106 1.116 1.116 0 0 0 0 .94.347.347 0 0 1 .248-.107c.195 0 .352.163.352.365 0 .1-.04.19-.102.256a1.023 1.023 0 0 0 .908 0 .37.37 0 0 1-.102-.256c0-.202.157-.365.352-.365.097 0 .184.041.248.106a1.118 1.118 0 0 0 0-.939M27.674 9.988a.346.346 0 0 1-.248.106.358.358 0 0 1-.352-.364c0-.1.04-.19.102-.256a1.015 1.015 0 0 0-.908 0 .37.37 0 0 1 .103.256.358.358 0 0 1-.353.364.345.345 0 0 1-.248-.106 1.12 1.12 0 0 0 0 .94.343.343 0 0 1 .248-.106c.195 0 .353.163.353.364 0 .1-.04.19-.103.256a1.02 1.02 0 0 0 .908 0 .37.37 0 0 1-.102-.256c0-.201.158-.364.352-.364.097 0 .185.04.248.106a1.12 1.12 0 0 0 0-.94"/>
    </g>
</svg>
