<svg xmlns="http://www.w3.org/2000/svg" width="45" height="45" viewBox="0 0 45 45">
    <g fill="none" fill-rule="evenodd">
        <path fill="#006CB0" d="M28.25 10v16.666c0 4.584-3.881 8.334-8.625 8.334S11 31.25 11 26.666V13.823C11 11.72 12.78 10 14.958 10H28.25z"/>
        <path fill="#FEFEFE" d="M22.417 15.982c1.183 0 2.143.928 2.143 2.072v9.21c0 2.187-2.22 3.975-4.936 3.975-2.715 0-4.936-1.788-4.936-3.975v-9.458c0-1.003 1.02-1.824 2.265-1.824h5.464z"/>
        <path fill="#006CB0" d="M28.25 26.667h3.039c1.497 0 2.711-1.188 2.711-2.653V12.653C34 11.188 32.786 10 31.289 10H28.25v16.667z"/>
        <path fill="#F2C85B" d="M31.234 25.142H28.25V12.778h2.984c.634 0 1.149.503 1.149 1.124v10.116c0 .62-.515 1.124-1.15 1.124"/>
        <path fill="#006CB0" d="M31.238 17.763c0 .491-.413.89-.922.89-.508 0-.92-.399-.92-.89 0-.492.412-.89.92-.89.509 0 .922.398.922.89M31.238 21.616c0 .492-.413.891-.922.891-.508 0-.92-.4-.92-.89 0-.492.412-.89.92-.89.509 0 .922.398.922.89"/>
        <path fill="#F2C85B" d="M22.03 20.726c0 1.285-1.076 2.326-2.406 2.326s-2.407-1.041-2.407-2.326c0-1.284 1.078-2.325 2.407-2.325 1.33 0 2.407 1.041 2.407 2.325"/>
    </g>
</svg>
