<svg xmlns="http://www.w3.org/2000/svg" width="45" height="45" viewBox="0 0 45 45">
    <g fill="none" fill-rule="evenodd">
        <path fill="#000" d="M28.182 13h-15.91C11.018 13 10 13.995 10 15.222v13.334c0 1.227 1.017 2.222 2.273 2.222h20.454c1.256 0 2.273-.995 2.273-2.222V15.222C35 13.995 33.983 13 32.727 13h-4.545z"/>
        <path fill="#F2C85B" d="M32.727 16.333c0 .614-.508 1.111-1.136 1.111a1.124 1.124 0 0 1-1.136-1.11c0-.614.508-1.112 1.136-1.112.628 0 1.136.498 1.136 1.111M32.727 23.74c0 .615-.508 1.112-1.136 1.112a1.124 1.124 0 0 1-1.136-1.111c0-.614.508-1.111 1.136-1.111.628 0 1.136.497 1.136 1.11"/>
        <path fill="#9B9B9B" d="M32.727 20.037c0 .614-.508 1.111-1.136 1.111a1.124 1.124 0 0 1-1.136-1.111c0-.614.508-1.111 1.136-1.111.628 0 1.136.497 1.136 1.11"/>
        <path fill="#F2C85B" d="M32.727 27.444c0 .614-.508 1.112-1.136 1.112a1.124 1.124 0 0 1-1.136-1.112c0-.613.508-1.11 1.136-1.11.628 0 1.136.497 1.136 1.11"/>
        <path fill="#000" d="M31.59 33a1.124 1.124 0 0 1-1.135-1.111v-3.333h2.272v3.333c0 .614-.508 1.111-1.136 1.111M13.41 33a1.124 1.124 0 0 1-1.137-1.111v-3.333h2.272v3.333c0 .614-.508 1.111-1.136 1.111"/>
        <path fill="#9B9B9B" d="M27.149 28.556H13.306c-.57 0-1.033-.453-1.033-1.01V16.232c0-.557.462-1.01 1.033-1.01h13.843c.57 0 1.033.453 1.033 1.01v11.314c0 .557-.463 1.01-1.033 1.01"/>
        <path fill="#F2C85B" d="M22.174 22.96a.145.145 0 0 1-.1.04.14.14 0 0 1-.142-.139c0-.038.016-.073.041-.098a.435.435 0 0 0-.367 0c.026.025.042.06.042.098a.14.14 0 0 1-.142.14.143.143 0 0 1-.1-.041.41.41 0 0 0 0 .358.143.143 0 0 1 .1-.04.14.14 0 0 1 .142.139.138.138 0 0 1-.042.098.435.435 0 0 0 .367 0 .138.138 0 0 1-.041-.098.14.14 0 0 1 .142-.14c.039 0 .074.016.1.041a.41.41 0 0 0 0-.358M23.879 22.126a.145.145 0 0 1-.1.04.14.14 0 0 1-.143-.138c0-.039.016-.073.042-.098a.435.435 0 0 0-.367 0c.025.025.041.06.041.098a.14.14 0 0 1-.142.139.143.143 0 0 1-.1-.04.41.41 0 0 0 0 .358.143.143 0 0 1 .1-.04.14.14 0 0 1 .142.138.138.138 0 0 1-.041.098.435.435 0 0 0 .367 0 .138.138 0 0 1-.042-.098.14.14 0 0 1 .142-.138c.04 0 .075.015.1.04a.41.41 0 0 0 0-.359M18.765 22.96a.145.145 0 0 1-.1.04.14.14 0 0 1-.142-.139c0-.038.016-.073.041-.098a.435.435 0 0 0-.367 0c.026.025.042.06.042.098a.14.14 0 0 1-.143.14.143.143 0 0 1-.1-.041.41.41 0 0 0 0 .358.143.143 0 0 1 .1-.04.14.14 0 0 1 .143.139.138.138 0 0 1-.042.098.435.435 0 0 0 .367 0 .138.138 0 0 1-.041-.098.14.14 0 0 1 .142-.14c.039 0 .074.016.1.041a.41.41 0 0 0 0-.358M25.583 22.96a.145.145 0 0 1-.1.04.14.14 0 0 1-.142-.139c0-.038.016-.073.041-.098a.435.435 0 0 0-.366 0c.025.025.04.06.04.098a.14.14 0 0 1-.141.14.143.143 0 0 1-.1-.041.41.41 0 0 0 0 .358.143.143 0 0 1 .1-.04.14.14 0 0 1 .142.139.138.138 0 0 1-.041.098.435.435 0 0 0 .366 0 .138.138 0 0 1-.041-.098.14.14 0 0 1 .142-.14c.039 0 .074.016.1.041a.41.41 0 0 0 0-.358M20.47 22.126a.145.145 0 0 1-.1.04.14.14 0 0 1-.143-.138c0-.039.016-.073.042-.098a.435.435 0 0 0-.367 0c.025.025.041.06.041.098a.14.14 0 0 1-.142.139.143.143 0 0 1-.1-.04.41.41 0 0 0 0 .358.143.143 0 0 1 .1-.04.14.14 0 0 1 .142.138.138.138 0 0 1-.041.098.435.435 0 0 0 .367 0 .138.138 0 0 1-.042-.098.14.14 0 0 1 .142-.138c.04 0 .075.015.1.04a.41.41 0 0 0 0-.359M22.174 21.293a.145.145 0 0 1-.1.04.14.14 0 0 1-.142-.139c0-.038.016-.073.041-.097a.435.435 0 0 0-.367 0c.026.024.042.06.042.097a.14.14 0 0 1-.142.14.143.143 0 0 1-.1-.041.41.41 0 0 0 0 .359.143.143 0 0 1 .1-.04.14.14 0 0 1 .142.138.138.138 0 0 1-.042.098.435.435 0 0 0 .367 0 .138.138 0 0 1-.041-.098.14.14 0 0 1 .142-.139c.039 0 .074.016.1.04a.41.41 0 0 0 0-.358M23.879 20.46a.145.145 0 0 1-.1.04.14.14 0 0 1-.143-.139c0-.038.016-.073.042-.098a.435.435 0 0 0-.367 0c.025.025.041.06.041.098a.14.14 0 0 1-.142.14.143.143 0 0 1-.1-.041.41.41 0 0 0 0 .358.143.143 0 0 1 .1-.04.14.14 0 0 1 .142.139.138.138 0 0 1-.041.098.435.435 0 0 0 .367 0 .138.138 0 0 1-.042-.098.14.14 0 0 1 .142-.14c.04 0 .075.016.1.041a.41.41 0 0 0 0-.358M18.765 21.293a.145.145 0 0 1-.1.04.14.14 0 0 1-.142-.139c0-.038.016-.073.041-.097a.435.435 0 0 0-.367 0c.026.024.042.06.042.097a.14.14 0 0 1-.143.14.143.143 0 0 1-.1-.041.41.41 0 0 0 0 .359.143.143 0 0 1 .1-.04.14.14 0 0 1 .143.138.138.138 0 0 1-.042.098.435.435 0 0 0 .367 0 .138.138 0 0 1-.041-.098.14.14 0 0 1 .142-.139c.039 0 .074.016.1.04a.41.41 0 0 0 0-.358M25.583 21.293a.145.145 0 0 1-.1.04.14.14 0 0 1-.142-.139c0-.038.016-.073.041-.097a.435.435 0 0 0-.366 0c.025.024.04.06.04.097a.14.14 0 0 1-.141.14.143.143 0 0 1-.1-.041.41.41 0 0 0 0 .359.143.143 0 0 1 .1-.04.14.14 0 0 1 .142.138.138.138 0 0 1-.041.098.435.435 0 0 0 .366 0 .138.138 0 0 1-.041-.098.14.14 0 0 1 .142-.139c.039 0 .074.016.1.04a.41.41 0 0 0 0-.358M20.47 20.46a.145.145 0 0 1-.1.04.14.14 0 0 1-.143-.139c0-.038.016-.073.042-.098a.435.435 0 0 0-.367 0c.025.025.041.06.041.098a.14.14 0 0 1-.142.14.143.143 0 0 1-.1-.041.41.41 0 0 0 0 .358.143.143 0 0 1 .1-.04.14.14 0 0 1 .142.139.138.138 0 0 1-.041.098.435.435 0 0 0 .367 0 .138.138 0 0 1-.042-.098.14.14 0 0 1 .142-.14c.04 0 .075.016.1.041a.41.41 0 0 0 0-.358M22.174 19.626a.145.145 0 0 1-.1.04.14.14 0 0 1-.142-.138c0-.039.016-.073.041-.098a.435.435 0 0 0-.367 0c.026.025.042.06.042.098a.14.14 0 0 1-.142.139.143.143 0 0 1-.1-.04.41.41 0 0 0 0 .358.143.143 0 0 1 .1-.04.14.14 0 0 1 .142.138.138.138 0 0 1-.042.098.435.435 0 0 0 .367 0 .138.138 0 0 1-.041-.098.14.14 0 0 1 .142-.138c.039 0 .074.015.1.04a.41.41 0 0 0 0-.359M23.879 18.793a.145.145 0 0 1-.1.04.14.14 0 0 1-.143-.139c0-.038.016-.073.042-.097a.435.435 0 0 0-.367 0c.025.024.041.06.041.097a.14.14 0 0 1-.142.14.143.143 0 0 1-.1-.041.41.41 0 0 0 0 .359.143.143 0 0 1 .1-.04.14.14 0 0 1 .142.138.138.138 0 0 1-.041.098.435.435 0 0 0 .367 0 .138.138 0 0 1-.042-.098.14.14 0 0 1 .142-.139c.04 0 .075.016.1.04a.41.41 0 0 0 0-.358M18.765 19.626a.145.145 0 0 1-.1.04.14.14 0 0 1-.142-.138c0-.039.016-.073.041-.098a.435.435 0 0 0-.367 0c.026.025.042.06.042.098a.14.14 0 0 1-.143.139.143.143 0 0 1-.1-.04.41.41 0 0 0 0 .358.143.143 0 0 1 .1-.04.14.14 0 0 1 .143.138.138.138 0 0 1-.042.098.435.435 0 0 0 .367 0 .138.138 0 0 1-.041-.098.14.14 0 0 1 .142-.138c.039 0 .074.015.1.04a.41.41 0 0 0 0-.359M25.583 19.626a.145.145 0 0 1-.1.04.14.14 0 0 1-.142-.138c0-.039.016-.073.041-.098a.435.435 0 0 0-.366 0c.025.025.04.06.04.098a.14.14 0 0 1-.141.139.143.143 0 0 1-.1-.04.41.41 0 0 0 0 .358.143.143 0 0 1 .1-.04.14.14 0 0 1 .142.138.138.138 0 0 1-.041.098.435.435 0 0 0 .366 0 .138.138 0 0 1-.041-.098.14.14 0 0 1 .142-.138c.039 0 .074.015.1.04a.41.41 0 0 0 0-.359M20.47 18.793a.145.145 0 0 1-.1.04.14.14 0 0 1-.143-.139c0-.038.016-.073.042-.097a.435.435 0 0 0-.367 0c.025.024.041.06.041.097a.14.14 0 0 1-.142.14.143.143 0 0 1-.1-.041.41.41 0 0 0 0 .359.143.143 0 0 1 .1-.04.14.14 0 0 1 .142.138.138.138 0 0 1-.041.098.435.435 0 0 0 .367 0 .138.138 0 0 1-.042-.098.14.14 0 0 1 .142-.139c.04 0 .075.016.1.04a.41.41 0 0 0 0-.358M22.174 17.96a.145.145 0 0 1-.1.04.14.14 0 0 1-.142-.139c0-.038.016-.073.041-.098a.435.435 0 0 0-.367 0c.026.025.042.06.042.098a.14.14 0 0 1-.142.14.143.143 0 0 1-.1-.041.41.41 0 0 0 0 .358.143.143 0 0 1 .1-.04.14.14 0 0 1 .142.139.138.138 0 0 1-.042.098.435.435 0 0 0 .367 0 .138.138 0 0 1-.041-.098.14.14 0 0 1 .142-.14c.039 0 .074.016.1.041a.41.41 0 0 0 0-.358M23.879 17.126a.145.145 0 0 1-.1.04.14.14 0 0 1-.143-.138c0-.039.016-.073.042-.098a.435.435 0 0 0-.367 0c.025.025.041.06.041.098a.14.14 0 0 1-.142.139.143.143 0 0 1-.1-.04.41.41 0 0 0 0 .358.143.143 0 0 1 .1-.04.14.14 0 0 1 .142.138.138.138 0 0 1-.041.098.435.435 0 0 0 .367 0 .138.138 0 0 1-.042-.098.14.14 0 0 1 .142-.138c.04 0 .075.015.1.04a.41.41 0 0 0 0-.359M18.765 17.96a.145.145 0 0 1-.1.04.14.14 0 0 1-.142-.139c0-.038.016-.073.041-.098a.435.435 0 0 0-.367 0c.026.025.042.06.042.098a.14.14 0 0 1-.143.14.143.143 0 0 1-.1-.041.41.41 0 0 0 0 .358.143.143 0 0 1 .1-.04.14.14 0 0 1 .143.139.138.138 0 0 1-.042.098.435.435 0 0 0 .367 0 .138.138 0 0 1-.041-.098.14.14 0 0 1 .142-.14c.039 0 .074.016.1.041a.41.41 0 0 0 0-.358M25.583 17.96a.145.145 0 0 1-.1.04.14.14 0 0 1-.142-.139c0-.038.016-.073.041-.098a.435.435 0 0 0-.366 0c.025.025.04.06.04.098a.14.14 0 0 1-.141.14.143.143 0 0 1-.1-.041.41.41 0 0 0 0 .358.143.143 0 0 1 .1-.04.14.14 0 0 1 .142.139.138.138 0 0 1-.041.098.435.435 0 0 0 .366 0 .138.138 0 0 1-.041-.098.14.14 0 0 1 .142-.14c.039 0 .074.016.1.041a.41.41 0 0 0 0-.358M20.47 17.126a.145.145 0 0 1-.1.04.14.14 0 0 1-.143-.138c0-.039.016-.073.042-.098a.435.435 0 0 0-.367 0c.025.025.041.06.041.098a.14.14 0 0 1-.142.139.143.143 0 0 1-.1-.04.41.41 0 0 0 0 .358.143.143 0 0 1 .1-.04.14.14 0 0 1 .142.138.138.138 0 0 1-.041.098.435.435 0 0 0 .367 0 .138.138 0 0 1-.042-.098.14.14 0 0 1 .142-.138c.04 0 .075.015.1.04a.41.41 0 0 0 0-.359M15.356 22.96a.145.145 0 0 1-.1.04.14.14 0 0 1-.142-.139c0-.038.016-.073.041-.098a.435.435 0 0 0-.367 0c.026.025.042.06.042.098a.14.14 0 0 1-.143.14.143.143 0 0 1-.1-.041.41.41 0 0 0 0 .358.143.143 0 0 1 .1-.04.14.14 0 0 1 .143.139.138.138 0 0 1-.042.098.435.435 0 0 0 .367 0 .138.138 0 0 1-.041-.098.14.14 0 0 1 .142-.14c.039 0 .074.016.1.041a.41.41 0 0 0 0-.358M17.06 22.126a.145.145 0 0 1-.1.04.14.14 0 0 1-.142-.138c0-.039.016-.073.042-.098a.435.435 0 0 0-.367 0c.025.025.041.06.041.098a.14.14 0 0 1-.142.139.143.143 0 0 1-.1-.04.41.41 0 0 0 0 .358.143.143 0 0 1 .1-.04.14.14 0 0 1 .142.138.138.138 0 0 1-.041.098.435.435 0 0 0 .367 0 .138.138 0 0 1-.042-.098.14.14 0 0 1 .142-.138c.04 0 .075.015.1.04a.41.41 0 0 0 0-.359M15.356 21.293a.145.145 0 0 1-.1.04.14.14 0 0 1-.142-.139c0-.038.016-.073.041-.097a.435.435 0 0 0-.367 0c.026.024.042.06.042.097a.14.14 0 0 1-.143.14.143.143 0 0 1-.1-.041.41.41 0 0 0 0 .359.143.143 0 0 1 .1-.04.14.14 0 0 1 .143.138.138.138 0 0 1-.042.098.435.435 0 0 0 .367 0 .138.138 0 0 1-.041-.098.14.14 0 0 1 .142-.139c.039 0 .074.016.1.04a.41.41 0 0 0 0-.358M17.06 20.46a.145.145 0 0 1-.1.04.14.14 0 0 1-.142-.139c0-.038.016-.073.042-.098a.435.435 0 0 0-.367 0c.025.025.041.06.041.098a.14.14 0 0 1-.142.14.143.143 0 0 1-.1-.041.41.41 0 0 0 0 .358.143.143 0 0 1 .1-.04.14.14 0 0 1 .142.139.138.138 0 0 1-.041.098.435.435 0 0 0 .367 0 .138.138 0 0 1-.042-.098.14.14 0 0 1 .142-.14c.04 0 .075.016.1.041a.41.41 0 0 0 0-.358M15.356 19.626a.145.145 0 0 1-.1.04.14.14 0 0 1-.142-.138c0-.039.016-.073.041-.098a.435.435 0 0 0-.367 0c.026.025.042.06.042.098a.14.14 0 0 1-.143.139.143.143 0 0 1-.1-.04.41.41 0 0 0 0 .358.143.143 0 0 1 .1-.04.14.14 0 0 1 .143.138.138.138 0 0 1-.042.098.435.435 0 0 0 .367 0 .138.138 0 0 1-.041-.098.14.14 0 0 1 .142-.138c.039 0 .074.015.1.04a.41.41 0 0 0 0-.359M17.06 18.793a.145.145 0 0 1-.1.04.14.14 0 0 1-.142-.139c0-.038.016-.073.042-.097a.435.435 0 0 0-.367 0c.025.024.041.06.041.097a.14.14 0 0 1-.142.14.143.143 0 0 1-.1-.041.41.41 0 0 0 0 .359.143.143 0 0 1 .1-.04.14.14 0 0 1 .142.138.138.138 0 0 1-.041.098.435.435 0 0 0 .367 0 .138.138 0 0 1-.042-.098.14.14 0 0 1 .142-.139c.04 0 .075.016.1.04a.41.41 0 0 0 0-.358M15.356 17.96a.145.145 0 0 1-.1.04.14.14 0 0 1-.142-.139c0-.038.016-.073.041-.098a.435.435 0 0 0-.367 0c.026.025.042.06.042.098a.14.14 0 0 1-.143.14.143.143 0 0 1-.1-.041.41.41 0 0 0 0 .358.143.143 0 0 1 .1-.04.14.14 0 0 1 .143.139.138.138 0 0 1-.042.098.435.435 0 0 0 .367 0 .138.138 0 0 1-.041-.098.14.14 0 0 1 .142-.14c.039 0 .074.016.1.041a.41.41 0 0 0 0-.358M17.06 17.126a.145.145 0 0 1-.1.04.14.14 0 0 1-.142-.138c0-.039.016-.073.042-.098a.435.435 0 0 0-.367 0c.025.025.041.06.041.098a.14.14 0 0 1-.142.139.143.143 0 0 1-.1-.04.41.41 0 0 0 0 .358.143.143 0 0 1 .1-.04.14.14 0 0 1 .142.138.138.138 0 0 1-.041.098.435.435 0 0 0 .367 0 .138.138 0 0 1-.042-.098.14.14 0 0 1 .142-.138c.04 0 .075.015.1.04a.41.41 0 0 0 0-.359M22.174 26.293a.145.145 0 0 1-.1.04.14.14 0 0 1-.142-.139c0-.038.016-.073.041-.097a.435.435 0 0 0-.367 0c.026.024.042.06.042.097a.14.14 0 0 1-.142.14.143.143 0 0 1-.1-.041.41.41 0 0 0 0 .359.143.143 0 0 1 .1-.04.14.14 0 0 1 .142.138.138.138 0 0 1-.042.098.435.435 0 0 0 .367 0 .138.138 0 0 1-.041-.098.14.14 0 0 1 .142-.139c.039 0 .074.016.1.04a.41.41 0 0 0 0-.358M23.879 25.46a.145.145 0 0 1-.1.04.14.14 0 0 1-.143-.139c0-.038.016-.073.042-.098a.435.435 0 0 0-.367 0c.025.025.041.06.041.098a.14.14 0 0 1-.142.14.143.143 0 0 1-.1-.041.41.41 0 0 0 0 .358.143.143 0 0 1 .1-.04.14.14 0 0 1 .142.139.138.138 0 0 1-.041.098.435.435 0 0 0 .367 0 .138.138 0 0 1-.042-.098.14.14 0 0 1 .142-.14c.04 0 .075.016.1.041a.41.41 0 0 0 0-.358M18.765 26.293a.145.145 0 0 1-.1.04.14.14 0 0 1-.142-.139c0-.038.016-.073.041-.097a.435.435 0 0 0-.367 0c.026.024.042.06.042.097a.14.14 0 0 1-.143.14.143.143 0 0 1-.1-.041.41.41 0 0 0 0 .359.143.143 0 0 1 .1-.04.14.14 0 0 1 .143.138.138.138 0 0 1-.042.098.435.435 0 0 0 .367 0 .138.138 0 0 1-.041-.098.14.14 0 0 1 .142-.139c.039 0 .074.016.1.04a.41.41 0 0 0 0-.358M25.583 26.293a.145.145 0 0 1-.1.04.14.14 0 0 1-.142-.139c0-.038.016-.073.041-.097a.435.435 0 0 0-.366 0c.025.024.04.06.04.097a.14.14 0 0 1-.141.14.143.143 0 0 1-.1-.041.41.41 0 0 0 0 .359.143.143 0 0 1 .1-.04.14.14 0 0 1 .142.138.138.138 0 0 1-.041.098.435.435 0 0 0 .366 0 .138.138 0 0 1-.041-.098.14.14 0 0 1 .142-.139c.039 0 .074.016.1.04a.41.41 0 0 0 0-.358M20.47 25.46a.145.145 0 0 1-.1.04.14.14 0 0 1-.143-.139c0-.038.016-.073.042-.098a.435.435 0 0 0-.367 0c.025.025.041.06.041.098a.14.14 0 0 1-.142.14.143.143 0 0 1-.1-.041.41.41 0 0 0 0 .358.143.143 0 0 1 .1-.04.14.14 0 0 1 .142.139.138.138 0 0 1-.041.098.435.435 0 0 0 .367 0 .138.138 0 0 1-.042-.098.14.14 0 0 1 .142-.14c.04 0 .075.016.1.041a.41.41 0 0 0 0-.358M22.174 24.626a.145.145 0 0 1-.1.04.14.14 0 0 1-.142-.138c0-.039.016-.073.041-.098a.435.435 0 0 0-.367 0c.026.025.042.06.042.098a.14.14 0 0 1-.142.139.143.143 0 0 1-.1-.04.41.41 0 0 0 0 .358.143.143 0 0 1 .1-.04.14.14 0 0 1 .142.138.138.138 0 0 1-.042.098.435.435 0 0 0 .367 0 .138.138 0 0 1-.041-.098.14.14 0 0 1 .142-.138c.039 0 .074.015.1.04a.41.41 0 0 0 0-.359M23.879 23.793a.145.145 0 0 1-.1.04.14.14 0 0 1-.143-.139c0-.038.016-.073.042-.097a.435.435 0 0 0-.367 0c.025.024.041.06.041.097a.14.14 0 0 1-.142.14.143.143 0 0 1-.1-.041.41.41 0 0 0 0 .359.143.143 0 0 1 .1-.04.14.14 0 0 1 .142.138.138.138 0 0 1-.041.098.435.435 0 0 0 .367 0 .138.138 0 0 1-.042-.098.14.14 0 0 1 .142-.139c.04 0 .075.016.1.04a.41.41 0 0 0 0-.358M18.765 24.626a.145.145 0 0 1-.1.04.14.14 0 0 1-.142-.138c0-.039.016-.073.041-.098a.435.435 0 0 0-.367 0c.026.025.042.06.042.098a.14.14 0 0 1-.143.139.143.143 0 0 1-.1-.04.41.41 0 0 0 0 .358.143.143 0 0 1 .1-.04.14.14 0 0 1 .143.138.138.138 0 0 1-.042.098.435.435 0 0 0 .367 0 .138.138 0 0 1-.041-.098.14.14 0 0 1 .142-.138c.039 0 .074.015.1.04a.41.41 0 0 0 0-.359M25.583 24.626a.145.145 0 0 1-.1.04.14.14 0 0 1-.142-.138c0-.039.016-.073.041-.098a.435.435 0 0 0-.366 0c.025.025.04.06.04.098a.14.14 0 0 1-.141.139.143.143 0 0 1-.1-.04.41.41 0 0 0 0 .358.143.143 0 0 1 .1-.04.14.14 0 0 1 .142.138.138.138 0 0 1-.041.098.435.435 0 0 0 .366 0 .138.138 0 0 1-.041-.098.14.14 0 0 1 .142-.138c.039 0 .074.015.1.04a.41.41 0 0 0 0-.359M20.47 23.793a.145.145 0 0 1-.1.04.14.14 0 0 1-.143-.139c0-.038.016-.073.042-.097a.435.435 0 0 0-.367 0c.025.024.041.06.041.097a.14.14 0 0 1-.142.14.143.143 0 0 1-.1-.041.41.41 0 0 0 0 .359.143.143 0 0 1 .1-.04.14.14 0 0 1 .142.138.138.138 0 0 1-.041.098.435.435 0 0 0 .367 0 .138.138 0 0 1-.042-.098.14.14 0 0 1 .142-.139c.04 0 .075.016.1.04a.41.41 0 0 0 0-.358M15.356 26.293a.145.145 0 0 1-.1.04.14.14 0 0 1-.142-.139c0-.038.016-.073.041-.097a.435.435 0 0 0-.367 0c.026.024.042.06.042.097a.14.14 0 0 1-.143.14.143.143 0 0 1-.1-.041.41.41 0 0 0 0 .359.143.143 0 0 1 .1-.04.14.14 0 0 1 .143.138.138.138 0 0 1-.042.098.435.435 0 0 0 .367 0 .138.138 0 0 1-.041-.098.14.14 0 0 1 .142-.139c.039 0 .074.016.1.04a.41.41 0 0 0 0-.358M17.06 25.46a.145.145 0 0 1-.1.04.14.14 0 0 1-.142-.139c0-.038.016-.073.042-.098a.435.435 0 0 0-.367 0c.025.025.041.06.041.098a.14.14 0 0 1-.142.14.143.143 0 0 1-.1-.041.41.41 0 0 0 0 .358.143.143 0 0 1 .1-.04.14.14 0 0 1 .142.139.138.138 0 0 1-.041.098.435.435 0 0 0 .367 0 .138.138 0 0 1-.042-.098.14.14 0 0 1 .142-.14c.04 0 .075.016.1.041a.41.41 0 0 0 0-.358M15.356 24.626a.145.145 0 0 1-.1.04.14.14 0 0 1-.142-.138c0-.039.016-.073.041-.098a.435.435 0 0 0-.367 0c.026.025.042.06.042.098a.14.14 0 0 1-.143.139.143.143 0 0 1-.1-.04.41.41 0 0 0 0 .358.143.143 0 0 1 .1-.04.14.14 0 0 1 .143.138.138.138 0 0 1-.042.098.435.435 0 0 0 .367 0 .138.138 0 0 1-.041-.098.14.14 0 0 1 .142-.138c.039 0 .074.015.1.04a.41.41 0 0 0 0-.359M17.06 23.793a.145.145 0 0 1-.1.04.14.14 0 0 1-.142-.139c0-.038.016-.073.042-.097a.435.435 0 0 0-.367 0c.025.024.041.06.041.097a.14.14 0 0 1-.142.14.143.143 0 0 1-.1-.041.41.41 0 0 0 0 .359.143.143 0 0 1 .1-.04.14.14 0 0 1 .142.138.138.138 0 0 1-.041.098.435.435 0 0 0 .367 0 .138.138 0 0 1-.042-.098.14.14 0 0 1 .142-.139c.04 0 .075.016.1.04a.41.41 0 0 0 0-.358"/>
    </g>
</svg>
