<svg xmlns="http://www.w3.org/2000/svg" width="45" height="45" viewBox="0 0 45 45">
    <g fill="none" fill-rule="evenodd">
        <path fill="#000" d="M15.759 14.31c-1.524 0-2.759 1.278-2.759 2.854V33.96c0 1.576 1.235 2.853 2.759 2.853H29.24c1.524 0 2.759-1.277 2.759-2.853V17.164c0-1.576-1.235-2.853-2.759-2.853"/>
        <path fill="#9B9B9B" d="M29.286 26.965c0 .776-.608 1.404-1.357 1.404-.75 0-1.358-.628-1.358-1.404 0-.775.608-1.403 1.358-1.403.75 0 1.357.628 1.357 1.403"/>
        <path fill="#F2C85B" d="M29.286 32.58c0 .775-.608 1.403-1.357 1.403-.75 0-1.358-.628-1.358-1.404 0-.775.608-1.403 1.358-1.403.75 0 1.357.628 1.357 1.403"/>
        <path fill="#9B9B9B" d="M28.568 21.456H16.432a.73.73 0 0 1-.718-.743.73.73 0 0 1 .718-.743h12.136a.73.73 0 0 1 .718.743.73.73 0 0 1-.718.743M28.568 18.649H16.432a.73.73 0 0 1-.718-.743.73.73 0 0 1 .718-.743h12.136a.73.73 0 0 1 .718.743.73.73 0 0 1-.718.743"/>
    </g>
</svg>
