<svg xmlns="http://www.w3.org/2000/svg" xmlns:xlink="http://www.w3.org/1999/xlink" width="45" height="45" viewBox="0 0 45 45">
    <defs>
        <path id="a" d="M0 .051h25v20.7H0z"/>
    </defs>
    <g fill="none" fill-rule="evenodd">
        <g transform="translate(10 12.104)">
            <mask id="b" fill="#fff">
                <use xlink:href="#a"/>
            </mask>
            <path fill="#000" d="M23.435 20.751H1.565A1.574 1.574 0 0 1 0 19.168V1.635C0 .76.7.05 1.565.05h21.87C24.3.051 25 .761 25 1.635v17.533c0 .875-.7 1.583-1.565 1.583" mask="url(#b)"/>
        </g>
        <path fill="#F2C85B" d="M22.5 17.261a1.646 1.646 0 0 1-1.636-1.656c0-.914.732-1.655 1.636-1.655.904 0 1.636.74 1.636 1.655s-.732 1.656-1.636 1.656"/>
        <path fill="#FEFEFE" d="M27.045 16.18a.572.572 0 0 1-.568-.574c0-.318.255-.575.568-.575.314 0 .569.257.569.575a.572.572 0 0 1-.569.575M29.886 16.18a.572.572 0 0 1-.568-.574c0-.318.255-.575.568-.575.314 0 .569.257.569.575a.572.572 0 0 1-.569.575M15.114 16.18a.572.572 0 0 1-.569-.574c0-.318.255-.575.569-.575.313 0 .568.257.568.575a.572.572 0 0 1-.568.575M17.955 16.18a.572.572 0 0 1-.569-.574c0-.318.255-.575.569-.575.313 0 .568.257.568.575a.572.572 0 0 1-.568.575"/>
        <path fill="#9B9B9B" d="M31.68 31.008H13.32a1.053 1.053 0 0 1-1.047-1.06v-9.642c0-.585.469-1.06 1.046-1.06h18.362c.577 0 1.046.475 1.046 1.06v9.643c0 .585-.469 1.059-1.046 1.059"/>
        <path fill="#000" d="M12.273 32.856h1.716v.019c0 .47-.375.849-.839.849h-.038a.844.844 0 0 1-.84-.85v-.018zM31.01 32.856h1.717v.019c0 .47-.375.849-.839.849h-.038a.844.844 0 0 1-.84-.85v-.018zM28.182 20.972c0 .212-.17.384-.379.384H17.197a.381.381 0 0 1-.379-.384c0-.212.17-.383.379-.383h10.606c.21 0 .379.171.379.383M18.297 11v.696h-2.218V11h-.795v.696h-2.217V11h-.794v1.156h6.818V11zM31.933 11v.696h-2.218V11h-.794v.696h-2.218V11h-.794v1.156h6.818V11z"/>
    </g>
</svg>
