<svg xmlns="http://www.w3.org/2000/svg" xmlns:xlink="http://www.w3.org/1999/xlink" width="45" height="45" viewBox="0 0 45 45">
    <defs>
        <path id="a" d="M0 .045h5.273v5.208H0z"/>
    </defs>
    <g fill="none" fill-rule="evenodd">
        <path fill="#F2C85B" d="M34.448 15.73l-1.233 1.216a6.827 6.827 0 0 1 0 9.738l1.233 1.218a8.533 8.533 0 0 0 0-12.173"/>
        <path fill="#F2C85B" d="M30.751 24.25l1.232 1.217a5.12 5.12 0 0 0 0-7.304l-1.232 1.218a3.414 3.414 0 0 1 0 4.87M29.519 20.598l-1.233 1.217 1.232 1.218c.681-.672.681-1.762 0-2.435"/>
        <g transform="translate(13.273 10.476)">
            <mask id="b" fill="#fff">
                <use xlink:href="#a"/>
            </mask>
            <path fill="#006CB0" d="M5.273 2.649c0 1.438-1.18 2.604-2.637 2.604C1.18 5.253 0 4.087 0 2.649 0 1.21 1.18.045 2.636.045c1.457 0 2.637 1.165 2.637 2.604" mask="url(#b)"/>
        </g>
        <path fill="#006CB0" d="M33.787 34.386c-.769.759-2.027.759-2.797 0L20.75 24.269a1.943 1.943 0 0 1 0-2.762 2.001 2.001 0 0 1 2.796 0l10.241 10.116c.769.76.769 2.003 0 2.763M23.55 33.389c-.769.76-2.027.76-2.796 0l-4.536-4.481a1.941 1.941 0 0 1 0-2.762 2 2 0 0 1 2.796 0l4.536 4.48c.77.76.77 2.003 0 2.763M21.747 14.997c.77.76.77 2.002 0 2.762l-3.218 3.178a2 2 0 0 1-2.796 0 1.942 1.942 0 0 1 0-2.762l3.218-3.178a2 2 0 0 1 2.796 0"/>
        <path fill="#006CB0" d="M23.55 21.507c.77.76.77 2.003 0 2.763l-4.536 4.48a2 2 0 0 1-2.796 0 1.941 1.941 0 0 1 0-2.762l4.536-4.48c.77-.76 2.027-.76 2.796 0M18.37 20.286c0 1.075-.89 1.954-1.978 1.954H9.977C8.89 22.24 8 21.36 8 20.286c0-1.074.89-1.953 1.977-1.953h6.415c1.088 0 1.977.879 1.977 1.953M28.915 16.38c0 1.075-.89 1.953-1.977 1.953h-6.415c-1.088 0-1.978-.878-1.978-1.953 0-1.074.89-1.953 1.978-1.953h6.415c1.087 0 1.977.879 1.977 1.953"/>
    </g>
</svg>
