<svg xmlns="http://www.w3.org/2000/svg" xmlns:xlink="http://www.w3.org/1999/xlink" width="45" height="45" viewBox="0 0 45 45">
    <defs>
        <path id="a" d="M0 31h19.241V0H0z"/>
    </defs>
    <g fill="none" fill-rule="evenodd" transform="translate(12.5 7)">
        <path fill="#000" d="M16.493 28.417H2.749V2.64C2.749 1.182 4.007 0 5.559 0h8.124c1.552 0 2.81 1.182 2.81 2.64v25.777z"/>
        <path fill="#F2C85B" d="M13.194 4.793H6.047l-.55-.731h8.247zM13.194 3.315H6.047l-.55-.732h8.247z"/>
        <mask id="b" fill="#fff">
            <use xlink:href="#a"/>
        </mask>
        <path fill="#000" d="M0 31h19.241v-2.583H0z" mask="url(#b)"/>
        <path fill="#FEFEFE" d="M13.744 11.625c0 2.14-1.846 3.875-4.123 3.875-2.278 0-4.123-1.734-4.123-3.875 0-2.14 1.845-3.875 4.123-3.875 2.277 0 4.123 1.734 4.123 3.875" mask="url(#b)"/>
        <path fill="#F2C85B" d="M10.382 11.619c0 .392-.338.71-.755.71s-.755-.318-.755-.71c0-.392.338-.71.755-.71s.755.318.755.71" mask="url(#b)"/>
        <path fill="#000" d="M10.593 9.222c.164-.254.034-.632-.241-.664a.38.38 0 0 0-.043-.002H9.265c-.186 0-.342.14-.393.331a.446.446 0 0 0 .002.219l.39 1.579a.743.743 0 0 0 .606-.333l.723-1.13zM9.977 12.565l.39 1.579a.446.446 0 0 1 .003.218c-.052.193-.208.332-.393.332H8.932a.38.38 0 0 1-.042-.002c-.276-.032-.405-.41-.242-.664l.723-1.13a.742.742 0 0 1 .606-.333M12.178 12.527c.27.154.672.032.706-.227a.309.309 0 0 0 .002-.04v-.982c0-.173-.148-.32-.352-.369a.527.527 0 0 0-.233.003l-1.68.366c0 .222.13.431.355.57l1.202.68zM7.063 10.698c-.274-.15-.672-.025-.705.232a.307.307 0 0 0-.003.04v.98c0 .16.128.299.308.357a.55.55 0 0 0 .288.005l1.67-.397c0-.22-.133-.43-.36-.563l-1.198-.654z" mask="url(#b)"/>
        <path fill="#FEFEFE" d="M13.744 21.191c0 2.14-1.846 3.875-4.123 3.875-2.278 0-4.123-1.734-4.123-3.875 0-2.14 1.845-3.875 4.123-3.875 2.277 0 4.123 1.735 4.123 3.875" mask="url(#b)"/>
        <path fill="#F2C85B" d="M10.382 21.185c0 .392-.338.71-.755.71s-.755-.318-.755-.71c0-.391.338-.709.755-.709s.755.318.755.71" mask="url(#b)"/>
        <path fill="#000" d="M10.593 18.789c.164-.255.034-.632-.241-.664a.38.38 0 0 0-.043-.002H9.265c-.186 0-.342.139-.393.33a.446.446 0 0 0 .002.22l.39 1.578a.741.741 0 0 0 .606-.333l.723-1.13zM9.977 22.132l.39 1.579c.018.07.021.148.003.218-.052.192-.208.332-.393.332H8.932a.38.38 0 0 1-.042-.003c-.276-.032-.405-.409-.242-.663l.723-1.13a.741.741 0 0 1 .606-.333M12.178 22.094c.27.153.672.031.706-.227a.322.322 0 0 0 .002-.04v-.982c0-.174-.148-.32-.352-.37a.527.527 0 0 0-.233.003l-1.68.367c0 .221.13.431.355.57l1.202.679zM7.063 20.265c-.274-.15-.672-.026-.705.232a.321.321 0 0 0-.003.039v.98c0 .161.128.3.308.357a.55.55 0 0 0 .288.006l1.67-.398c0-.22-.133-.429-.36-.563l-1.198-.653z" mask="url(#b)"/>
    </g>
</svg>
