<svg xmlns="http://www.w3.org/2000/svg" xmlns:xlink="http://www.w3.org/1999/xlink" width="45" height="45" viewBox="0 0 45 45">
    <defs>
        <path id="a" d="M0 .44h6.534v1.984H0z"/>
        <path id="c" d="M0 .402h6.534v1.984H0z"/>
        <path id="e" d="M.392.417h19.602v4.166H.392z"/>
    </defs>
    <g fill="none" fill-rule="evenodd">
        <path fill="#000" d="M13.178 26.823h2.178v-8.49h-2.178zM15.398 10c.572 0 1.037.44 1.037.983v7.35H12.1v-7.35c0-.543.464-.983 1.036-.983h2.262zM12.1 28.75h4.335v5.267c0 .543-.465.983-1.037.983h-2.262c-.573 0-1.036-.44-1.036-.983V28.75z"/>
        <g transform="translate(11 15.91)">
            <mask id="b" fill="#fff">
                <use xlink:href="#a"/>
            </mask>
            <path fill="#000" d="M1.037 2.424C.464 2.424 0 1.984 0 1.44v-.016C0 .88.464.44 1.037.44h4.46c.572 0 1.037.44 1.037.984v.016c0 .544-.465.984-1.037.984h-4.46z" mask="url(#b)"/>
        </g>
        <g transform="translate(11 26.364)">
            <mask id="d" fill="#fff">
                <use xlink:href="#c"/>
            </mask>
            <path fill="#000" d="M1.037 2.386C.464 2.386 0 1.946 0 1.403v-.017C0 .843.464.402 1.037.402h4.46c.572 0 1.037.44 1.037.984v.017c0 .543-.465.983-1.037.983h-4.46z" mask="url(#d)"/>
        </g>
        <g transform="translate(13.875 20)">
            <mask id="f" fill="#fff">
                <use xlink:href="#e"/>
            </mask>
            <path fill="#000" d="M5.32.417a.56.56 0 0 0-.572.548v.129a.373.373 0 0 1-.381.364H.392v2.084h3.975c.21 0 .381.163.381.364v.13a.56.56 0 0 0 .573.547h12.495c1.274 0 2.292-1.045 2.168-2.288C19.876 1.212 18.86.417 17.723.417H5.32z" mask="url(#f)"/>
        </g>
        <path fill="#000" d="M14.267 24.583c-1.203 0-2.178-.933-2.178-2.083 0-1.15.975-2.083 2.178-2.083 1.203 0 2.178.933 2.178 2.083 0 1.15-.975 2.083-2.178 2.083z"/>
        <path fill="#F2C85B" d="M15.356 22.5c0 .575-.488 1.042-1.089 1.042s-1.089-.467-1.089-1.042.488-1.042 1.09-1.042c.6 0 1.088.467 1.088 1.042"/>
    </g>
</svg>
