<svg xmlns="http://www.w3.org/2000/svg" xmlns:xlink="http://www.w3.org/1999/xlink" width="45" height="45" viewBox="0 0 45 45">
    <defs>
        <path id="a" d="M0 24.545h24.606V0H0z"/>
    </defs>
    <g fill="none" fill-rule="evenodd" transform="translate(10 10)">
        <path fill="#006CB0" d="M15.289 2.404c-.191.062-.45.096-.72.096H11.1V1.25h2.7c1.874 0 2.813.728 1.488 1.154"/>
        <mask id="b" fill="#fff">
            <use xlink:href="#a"/>
        </mask>
        <path fill="#006CB0" d="M1.486 23H3.89V3H1.486z" mask="url(#b)"/>
        <path fill="#F2C85B" d="M3.89 23h2.404V3H3.89z" mask="url(#b)"/>
        <path fill="#006CB0" d="M6.294 23h2.404V3H6.294z" mask="url(#b)"/>
        <path fill="#F2C85B" d="M8.698 23H11.1V3H8.698zM13.505 23h2.404V3h-2.404z" mask="url(#b)"/>
        <path fill="#006CB0" d="M15.91 23h2.403V3h-2.404z" mask="url(#b)"/>
        <path fill="#F2C85B" d="M18.313 23h2.404V3h-2.404z" mask="url(#b)"/>
        <path fill="#006CB0" d="M20.717 23h2.404V3h-2.404zM20.717 0h.84c.863 0 1.563.729 1.563 1.627V2.5h-2.403V0z" mask="url(#b)"/>
        <path fill="#F2C85B" d="M18.313 2.5h2.404V0h-2.404z" mask="url(#b)"/>
        <path fill="#006CB0" d="M15.91 2.5h2.403V0h-2.404z" mask="url(#b)"/>
        <path fill="#F2C85B" d="M13.505 2.5h2.404V0h-2.404zM8.698 2.5H11.1V0H8.698z" mask="url(#b)"/>
        <path fill="#006CB0" d="M6.294 2.5h2.404V0H6.294z" mask="url(#b)"/>
        <path fill="#F2C85B" d="M3.89 2.5h2.404V0H3.89z" mask="url(#b)"/>
        <path fill="#006CB0" d="M3.05 0h.84v2.5H1.486v-.873C1.486.729 2.186 0 3.05 0M4.583 24.346a.336.336 0 0 1-.092-.232V23h1.202v.868c0 .602-.7.904-1.11.478M2.179 24.346a.336.336 0 0 1-.092-.232V23h1.202v.868c0 .602-.7.904-1.11.478M.192 1.346a.308.308 0 0 1 .223-.096h1.07V2.5H.653c-.58 0-.87-.728-.46-1.154M24.414 2.404a.308.308 0 0 1-.222.096H23.12V1.25h.834c.58 0 .87.728.46 1.154M9.39 24.346a.336.336 0 0 1-.091-.232V23H10.5v.868c0 .602-.7.904-1.11.478M14.198 24.346a.336.336 0 0 1-.092-.232V23h1.202v.868c0 .602-.7.904-1.11.478M19.006 24.346a.336.336 0 0 1-.092-.232V23h1.202v.868c0 .602-.7.904-1.11.478M21.41 24.346a.336.336 0 0 1-.092-.232V23h1.202v.868c0 .602-.7.904-1.11.478M16.602 24.346a.336.336 0 0 1-.092-.232V23h1.202v.868c0 .602-.7.904-1.11.478M6.987 24.346a.336.336 0 0 1-.092-.232V23h1.202v.868c0 .602-.7.904-1.11.478" mask="url(#b)"/>
    </g>
</svg>
