<svg xmlns="http://www.w3.org/2000/svg" xmlns:xlink="http://www.w3.org/1999/xlink" width="45" height="45" viewBox="0 0 45 45">
    <defs>
        <path id="a" d="M0 25h17V0H0z"/>
    </defs>
    <g fill="none" fill-rule="evenodd" transform="translate(14 10)">
        <path fill="#000" d="M14.532 22.727H2.468C1.105 22.727 0 21.693 0 20.417V6.818c0-1.276 1.105-2.31 2.468-2.31h12.064c1.363 0 2.468 1.034 2.468 2.31v13.6c0 1.275-1.105 2.31-2.468 2.31"/>
        <path fill="#F2C85B" d="M11.84 17.258c0 1.602-1.496 3.191-3.34 3.191-1.844 0-3.34-1.299-3.34-2.9 0-2.419 2.126-5.078 4.858-8.004-.607 3.458 1.821 4.764 1.821 7.713"/>
        <path fill="#F2C85B" d="M8.348 20.45c-1.767 0-3.49-1.59-3.49-3.192 0-2.151.872-3.457 1.745-5.32-.582 3.458 5.54 2.37 5.54 5.32 0 1.862-1.93 3.292-3.795 3.192"/>
        <path fill="#F2C85B" d="M8.5 17.814c0-1.987.835-4.28 2.504-6.407-.556 2.926 1.139 2.37 1.139 5.85"/>
        <path fill="#000" d="M10.321 17.923c0 1.102-.788 1.995-1.76 1.995-.973 0-1.761-.893-1.761-1.995s1.174-2.527 1.76-3.856c.587 1.33 1.761 2.754 1.761 3.856"/>
        <mask id="b" fill="#fff">
            <use xlink:href="#a"/>
        </mask>
        <path fill="#000" d="M7.286 4.545h2.428V0H7.286zM2.429 25h2.428v-4.545H2.43zM12.143 25h2.428v-4.545h-2.428z" mask="url(#b)"/>
        <path fill="#F2C85B" d="M14.571 7.955c0 .627-.543 1.136-1.214 1.136-.67 0-1.214-.509-1.214-1.136 0-.628.543-1.137 1.214-1.137.67 0 1.214.509 1.214 1.137" mask="url(#b)"/>
    </g>
</svg>
