<svg xmlns="http://www.w3.org/2000/svg" xmlns:xlink="http://www.w3.org/1999/xlink" width="45" height="45" viewBox="0 0 45 45">
    <defs>
        <path id="a" d="M0 .451H13.93V18.6H0z"/>
    </defs>
    <g fill="none" fill-rule="evenodd">
        <path fill="#F2C85B" d="M16.071 8.788l1.286 1.345c2.84-2.973 7.446-2.973 10.286 0l1.286-1.345c-3.551-3.717-9.308-3.717-12.858 0"/>
        <path fill="#F2C85B" d="M24.464 12.2l1.25-1.382c-2.071-2.29-5.428-2.29-7.5 0l1.25 1.382c1.381-1.527 3.62-1.527 5 0M21.429 13.838L22.5 15.3l1.071-1.461c-.591-.807-1.551-.807-2.142 0"/>
        <path fill="#006CB0" d="M28.929 30.346C28.929 33.687 26.05 37 22.5 37c-3.55 0-6.429-2.708-6.429-6.049 0-5.04 4.091-10.585 9.351-16.684-1.169 7.207 3.507 9.93 3.507 16.08"/>
        <g transform="translate(15 18.4)">
            <mask id="b" fill="#fff">
                <use xlink:href="#a"/>
            </mask>
            <path fill="#006CB0" d="M6.674 18.59C3.296 18.59 0 15.202 0 11.786 0 7.201 1.67 4.42 3.337.451 2.225 7.82 13.929 5.501 13.929 11.787c0 3.968-3.69 7.017-7.255 6.802" mask="url(#b)"/>
        </g>
        <path fill="#006CB0" d="M22.5 30.8c0-3.846 1.718-8.282 5.156-12.4C26.51 24.062 30 22.985 30 29.724"/>
        <path fill="#F2C85B" d="M24.643 32.092c0 2.14-1.44 3.875-3.215 3.875s-3.214-1.735-3.214-3.875c0-2.14 2.143-4.908 3.214-7.492 1.072 2.584 3.215 5.352 3.215 7.492"/>
    </g>
</svg>
