<svg xmlns="http://www.w3.org/2000/svg" xmlns:xlink="http://www.w3.org/1999/xlink" width="45" height="45" viewBox="0 0 45 45">
    <defs>
        <path id="a" d="M.26.132h9.68V3.03H.26z"/>
    </defs>
    <g fill="none" fill-rule="evenodd">
        <path fill="#000" d="M27.357 24.007c-.67 0-1.214-.53-1.214-1.184 0-.654.543-1.184 1.214-1.184.67 0 1.214.53 1.214 1.184 0 .654-.543 1.184-1.214 1.184m1.175-7.125H16.468C15.105 16.882 14 17.96 14 19.29V33.46c0 1.33 1.105 2.408 2.468 2.408h12.064c1.363 0 2.468-1.078 2.468-2.408V19.29c0-1.33-1.105-2.408-2.468-2.408"/>
        <path fill="#F2C85B" d="M28.571 27.56c0 .654-.543 1.184-1.214 1.184-.67 0-1.214-.53-1.214-1.184 0-.654.543-1.185 1.214-1.185.67 0 1.214.53 1.214 1.185"/>
        <path fill="#FEFEFE" d="M28.571 22.803c0 .655-.543 1.185-1.214 1.185-.67 0-1.214-.53-1.214-1.185 0-.654.543-1.184 1.214-1.184.67 0 1.214.53 1.214 1.184"/>
        <path fill="#F2C85B" d="M28.571 32.297c0 .654-.543 1.184-1.214 1.184-.67 0-1.214-.53-1.214-1.184 0-.655.543-1.185 1.214-1.185.67 0 1.214.53 1.214 1.185"/>
        <g transform="translate(17.4 9.342)">
            <mask id="b" fill="#fff">
                <use xlink:href="#a"/>
            </mask>
            <path fill="#000" d="M.26 2.087l.967.944c2.14-2.086 5.607-2.086 7.745 0l.969-.944C7.267-.52 2.933-.52.259 2.087" mask="url(#b)"/>
        </g>
        <path fill="#000" d="M24.436 14.261l.968-.944c-1.604-1.564-4.204-1.564-5.808 0l.968.944a2.787 2.787 0 0 1 3.872 0M21.532 15.205l.968.945.968-.945a1.393 1.393 0 0 0-1.936 0"/>
    </g>
</svg>
