<svg xmlns="http://www.w3.org/2000/svg" xmlns:xlink="http://www.w3.org/1999/xlink" width="45" height="45" viewBox="0 0 45 45">
    <defs>
        <path id="a" d="M0 21.617h25V0H0z"/>
    </defs>
    <g fill="none" fill-rule="evenodd" transform="translate(10 11)">
        <path fill="#FEFEFE" d="M18.182 5.612c0 3.1-2.544 5.613-5.682 5.613-3.138 0-5.682-2.513-5.682-5.613C6.818 2.513 9.362 0 12.5 0c3.138 0 5.682 2.513 5.682 5.612"/>
        <path fill="#006CB0" d="M12.5 2.02c-2.008 0-3.636 1.609-3.636 3.592 0 1.984 1.628 3.592 3.636 3.592s3.636-1.608 3.636-3.592c0-1.983-1.628-3.592-3.636-3.592"/>
        <path fill="#006CB0" d="M12.5 9.833c-2.36 0-4.273-1.89-4.273-4.22 0-2.332 1.913-4.221 4.273-4.221 2.36 0 4.273 1.89 4.273 4.22 0 2.331-1.913 4.22-4.273 4.22M12.5 0C9.362 0 6.818 2.513 6.818 5.612c0 3.1 2.544 5.613 5.682 5.613 3.138 0 5.682-2.513 5.682-5.613C18.182 2.512 15.638 0 12.5 0"/>
        <mask id="b" fill="#fff">
            <use xlink:href="#a"/>
        </mask>
        <path fill="#006CB0" d="M10.795 15.714h3.41V13.17h-3.41zM11.364 13.17h2.272v-2.544h-2.272zM19.938 21.617a.924.924 0 0 1-.93-.918v-5.684c0-.507.417-.918.93-.918.514 0 .93.411.93.918V20.7a.924.924 0 0 1-.93.918M5.062 21.617a.924.924 0 0 1-.93-.918v-5.684c0-.507.417-.918.93-.918.513 0 .93.411.93.918V20.7a.924.924 0 0 1-.93.918" mask="url(#b)"/>
        <path fill="#006CB0" d="M0 20.612h25v-5.51H0z" mask="url(#b)"/>
        <path fill="#F2C85B" d="M15.828 2.325L13.166 6.27l-1.332-1.316z" mask="url(#b)"/>
        <path fill="#F2C85B" d="M11.834 6.27V4.954l1.332 1.316z" mask="url(#b)"/>
        <path fill="#FEFEFE" d="M5.062 15.992c.232 0 .42.186.42.415v2.9c0 .23-.188.416-.42.416a.418.418 0 0 1-.42-.416v-2.9c0-.23.187-.415.42-.415M19.938 15.992c.233 0 .42.186.42.415v2.9c0 .23-.187.416-.42.416a.418.418 0 0 1-.42-.416v-2.9c0-.23.188-.415.42-.415" mask="url(#b)"/>
    </g>
</svg>
