<svg xmlns="http://www.w3.org/2000/svg" width="45" height="45" viewBox="0 0 45 45">
    <g fill="none" fill-rule="evenodd">
        <path fill="#FEFEFE" d="M12.273 10v25h15.909V16.818z"/>
        <path fill="#006CB0" d="M30.455 35h2.272V16.818h-2.272z"/>
        <path fill="#006CB0" d="M12.273 10v22.727H10V35H35v-2.273h-2.273V10H12.273zm15.909 6.818l-10.606-4.545h12.879v20.454h-15.91v-19.48l13.637 5.844v-2.273z"/>
        <g fill="#F2C85B">
            <path d="M17.461 22.87l1.063 1.063a6.01 6.01 0 0 1 8.498 0l1.063-1.063a7.511 7.511 0 0 0-10.624 0"/>
            <path d="M24.897 26.057l1.063-1.062a4.508 4.508 0 0 0-6.374 0l1.062 1.062a3.005 3.005 0 0 1 4.25 0M21.71 27.12l1.063 1.062 1.062-1.063a1.502 1.502 0 0 0-2.124 0"/>
        </g>
    </g>
</svg>
