<svg xmlns="http://www.w3.org/2000/svg" width="45" height="45" viewBox="0 0 45 45">
    <g fill="none" fill-rule="evenodd">
        <path fill="#000" d="M12.273 33.75h4.545V31.5h-4.545zM14.545 36h2.273v-2.25h-2.273zM28.182 36h2.273v-2.25h-2.273zM28.182 33.75h4.545V31.5h-4.545z"/>
        <path fill="#000" d="M35 21.375c0 6.835-5.597 12.375-12.5 12.375-6.904 0-12.5-5.54-12.5-12.375S15.596 9 22.5 9C29.403 9 35 14.54 35 21.375"/>
        <path fill="#9B9B9B" d="M32.727 19.638v.196c0 .23-.188.416-.42.416H12.693a.418.418 0 0 1-.42-.416v-.196c0-.23.188-.417.42-.417h19.614c.232 0 .42.187.42.417"/>
        <path fill="#F2C85B" d="M22.5 13.5c3.171 0 5.9 1.842 7.179 4.5h2.464c-1.404-3.932-5.19-6.75-9.643-6.75s-8.239 2.818-9.643 6.75h2.464a7.953 7.953 0 0 1 7.179-4.5"/>
        <path fill="#9B9B9B" d="M28.182 21.375c0 3.106-2.544 5.625-5.682 5.625-3.138 0-5.682-2.519-5.682-5.625s2.544-5.625 5.682-5.625c3.138 0 5.682 2.519 5.682 5.625"/>
        <path fill="#F4CA5C" d="M18.794 20.3l.74.734a4.223 4.223 0 0 1 5.931 0l.742-.734a5.28 5.28 0 0 0-7.414 0"/>
        <path fill="#F4CA5C" d="M23.983 22.502l.741-.734a3.168 3.168 0 0 0-4.448 0l.742.734a2.112 2.112 0 0 1 2.965 0M21.759 23.236l.741.734.741-.734a1.056 1.056 0 0 0-1.482 0"/>
    </g>
</svg>
