<svg xmlns="http://www.w3.org/2000/svg" xmlns:xlink="http://www.w3.org/1999/xlink" width="45" height="45" viewBox="0 0 45 45">
    <defs>
        <path id="a" d="M.458.054h17.083v24.85H.458z"/>
    </defs>
    <g fill="none" fill-rule="evenodd">
        <path fill="#FEFEFE" d="M16.399 33.358h12.202V10.994H16.399z"/>
        <path fill="#F2C85B" d="M21.28 33.358h2.44V10.994h-2.44z"/>
        <g transform="translate(13.5 8.455)">
            <mask id="b" fill="#fff">
                <use xlink:href="#a"/>
            </mask>
            <path fill="#F2C85B" d="M2.899.054C1.551.054.459 1.167.459 2.54v22.364h2.44V3.534c0-.55.437-.995.976-.995h10.25c.539 0 .976.446.976.995v21.37h2.44V2.538c0-1.372-1.092-2.485-2.44-2.485H2.899z" mask="url(#b)"/>
        </g>
        <path fill="#006CB0" d="M13.959 21.945v11.413l-2.012 1.315h-.697V21.945h2.708zm1.25 11.413h2.708V21.945h-2.709v11.413zm3.958 0h2.708V21.945h-2.709v11.413zm3.958 0h2.709V21.945h-2.709v11.413zm3.959 0h2.707V21.945h-2.707v11.413zm6.666-11.413v12.728h-.697l-2.012-1.315V21.945h2.709zm-1.459-3.818h-1.25l2.709 2.546h-22.5l2.708-2.546h-1.25L10 20.673v15.272h25V20.673l-2.709-2.546z"/>
    </g>
</svg>
