<svg xmlns="http://www.w3.org/2000/svg" width="45" height="45" viewBox="0 0 45 45">
    <g fill="none" fill-rule="evenodd">
        <path fill="#006CB0" d="M29.606 37H15.394C14.072 37 13 35.91 13 34.564V10.436C13 9.091 14.072 8 15.394 8h14.212C30.928 8 32 9.09 32 10.436v24.128C32 35.909 30.928 37 29.606 37"/>
        <path fill="#FEFEFE" d="M29.625 17.667h-14.25v-5.943c0-.722.575-1.307 1.285-1.307h11.68c.71 0 1.285.585 1.285 1.307v5.943zM28.34 34.583H16.66c-.71 0-1.285-.585-1.285-1.307V20.083h14.25v13.193c0 .722-.575 1.307-1.285 1.307"/>
        <path fill="#F2C85B" d="M24.875 20.083v3.535c0 .701.596 1.261 1.304 1.193.617-.06 1.071-.618 1.071-1.244v-3.484M27.25 17.667v-1.119c0-.7-.596-1.26-1.304-1.192-.617.059-1.071.618-1.071 1.244v1.067"/>
    </g>
</svg>
