<svg xmlns="http://www.w3.org/2000/svg" xmlns:xlink="http://www.w3.org/1999/xlink" width="45" height="45" viewBox="0 0 45 45">
    <defs>
        <path id="a" d="M0 23h25V0H0z"/>
    </defs>
    <g fill="none" fill-rule="evenodd" transform="translate(10 11)">
        <path fill="#000" d="M4.545 23l1.014-1.61c.265-.423.808-.69 1.401-.69h11.08c.593 0 1.136.267 1.401.69L20.455 23H4.545zM18.182 0H2.272C1.018 0 0 1.03 0 2.3v13.8c0 1.27 1.017 2.3 2.273 2.3h20.454c1.256 0 2.273-1.03 2.273-2.3V2.3C25 1.03 23.983 0 22.727 0h-4.545z"/>
        <path fill="#000" d="M12.5 23a1.143 1.143 0 0 1-1.136-1.15V16.1h2.272v5.75c0 .635-.508 1.15-1.136 1.15M21.694 16.1H3.306a1.04 1.04 0 0 1-1.034-1.045V3.345A1.04 1.04 0 0 1 3.306 2.3h18.388c.57 0 1.033.468 1.033 1.045v11.71c0 .577-.462 1.045-1.033 1.045"/>
        <mask id="b" fill="#fff">
            <use xlink:href="#a"/>
        </mask>
        <path fill="#9B9B9B" d="M19.318 17.25h1.137V16.1h-1.137z" mask="url(#b)"/>
        <path fill="#F2C85B" d="M7.461 7.779l1.063 1.075a5.96 5.96 0 0 1 8.498 0l1.063-1.075a7.449 7.449 0 0 0-10.624 0" mask="url(#b)"/>
        <path fill="#F2C85B" d="M14.897 11.004L15.96 9.93a4.47 4.47 0 0 0-6.374 0l1.062 1.075a2.98 2.98 0 0 1 4.25 0M11.71 12.08l1.063 1.074 1.062-1.075a1.49 1.49 0 0 0-2.124 0" mask="url(#b)"/>
    </g>
</svg>
