<svg xmlns="http://www.w3.org/2000/svg" xmlns:xlink="http://www.w3.org/1999/xlink" width="45" height="45" viewBox="0 0 45 45">
    <defs>
        <path id="a" d="M0 .472h4.04V16.17H0z"/>
        <path id="c" d="M.17.192h4.72v12.574H.17z"/>
    </defs>
    <g fill="none" fill-rule="evenodd">
        <g transform="translate(9 11.635)">
            <mask id="b" fill="#fff">
                <use xlink:href="#a"/>
            </mask>
            <path fill="#F2C85B" d="M2.725 16.17L4.04 14.6c-2.906-3.468-2.906-9.09 0-12.559L2.725.471c-3.633 4.336-3.633 11.364 0 15.699" mask="url(#b)"/>
        </g>
        <path fill="#F2C85B" d="M15.67 16.816l-1.315-1.57c-2.18 2.601-2.18 6.818 0 9.42l1.316-1.57c-1.453-1.735-1.453-4.546 0-6.28"/>
        <path fill="#006CB0" d="M28.17 18.95l-10-8.95v20.884l10-8.95 6.21 2.213c.593.354 1.29-.16 1.29-.952v-5.507c0-.79-.697-1.305-1.29-.951l-6.21 2.213z"/>
        <g transform="translate(28 21.741)">
            <mask id="d" fill="#fff">
                <use xlink:href="#c"/>
            </mask>
            <path fill="#006CB0" d="M4.077 12.766c-2.54 0-4.404-2.848-3.788-5.789L2.671.833l.185-.221c.786-.938 2.127-.193 2.03 1.13l-.81 11.024z" mask="url(#d)"/>
        </g>
        <path fill="#F2C85B" d="M33.17 23.425c0 .824-.559 1.492-1.25 1.492-.69 0-1.25-.668-1.25-1.492s.56-1.492 1.25-1.492c.691 0 1.25.668 1.25 1.492"/>
    </g>
</svg>
