<svg xmlns="http://www.w3.org/2000/svg" width="45" height="45" viewBox="0 0 45 45">
    <g fill="none" fill-rule="evenodd">
        <path fill="#006CB0" d="M31.09 27.8c-1.354 0-2.454-1.075-2.454-2.4s1.1-2.4 2.455-2.4 2.454 1.075 2.454 2.4-1.1 2.4-2.454 2.4m-17.182 0c-1.355 0-2.454-1.075-2.454-2.4s1.1-2.4 2.454-2.4c1.355 0 2.455 1.075 2.455 2.4s-1.1 2.4-2.455 2.4m19.906-7.2h-.27l-1.443-7.622c-.618-1.21-1.89-1.978-3.274-1.978H16.172c-1.384 0-2.656.768-3.274 1.978L11.455 20.6h-.27C9.977 20.6 9 21.555 9 22.736v5.328c0 1.18.977 2.136 2.185 2.136h.27V35h4.909v-4.8h12.272V35h4.91v-4.8h.27c1.207 0 2.184-.955 2.184-2.136v-5.328c0-1.18-.977-2.136-2.185-2.136"/>
        <path fill="#F2C85B" d="M17.608 18.687l.978.956c2.162-2.113 5.666-2.113 7.827 0l.98-.956c-2.703-2.642-7.084-2.642-9.785 0"/>
        <path fill="#F2C85B" d="M24.457 21.557l.978-.957c-1.621-1.585-4.249-1.585-5.87 0l.978.957a2.813 2.813 0 0 1 3.914 0M23.891 23.47c0 .75-.623 1.36-1.391 1.36s-1.391-.61-1.391-1.36c0-.751.623-1.36 1.391-1.36s1.391.609 1.391 1.36"/>
    </g>
</svg>
