<svg xmlns="http://www.w3.org/2000/svg" xmlns:xlink="http://www.w3.org/1999/xlink" width="45" height="45" viewBox="0 0 45 45">
    <defs>
        <path id="a" d="M.354.05h9.985v12.632H.354z"/>
        <path id="c" d="M.091.083h5.215v5.283H.091z"/>
    </defs>
    <g fill="none" fill-rule="evenodd">
        <path fill="#006CB0" d="M12 30.935l1.78.964 9.522-18.037-1.78-.965z"/>
        <path fill="#006CB0" d="M25.56 13.925l-4.285 8.116-5.342-2.893 4.284-8.117a3.01 3.01 0 0 1 4.1-1.259c1.475.8 2.031 2.659 1.242 4.153"/>
        <path fill="#F2C85B" d="M23.779 12.96l-1.429 2.706-1.78-.965 1.428-2.705a1.003 1.003 0 0 1 1.366-.42c.492.266.678.886.415 1.384"/>
        <path fill="#006CB0" d="M13.192 26.942l3.104-2.03.101 3.766-2.616 3.221L12 30.935zM21.855 33.954l-1.78-.965 7.617-14.43 1.78.965z"/>
        <g transform="translate(18.058 22.957)">
            <mask id="b" fill="#fff">
                <use xlink:href="#a"/>
            </mask>
            <path fill="#006CB0" d="M.712 8.166L4.997.05l5.342 2.894-4.284 8.117a3.01 3.01 0 0 1-4.1 1.259C.48 11.519-.076 9.66.712 8.166" mask="url(#b)"/>
        </g>
        <path fill="#F2C85B" d="M20.55 32.087l1.43-2.705 1.78.964-1.429 2.706a1.003 1.003 0 0 1-1.366.42 1.03 1.03 0 0 1-.414-1.385"/>
        <g transform="translate(27.346 13.548)">
            <mask id="d" fill="#fff">
                <use xlink:href="#c"/>
            </mask>
            <path fill="#006CB0" d="M1.304 5.366L.091 1.312 4.093.082l1.213 4.055z" mask="url(#d)"/>
        </g>
        <path fill="#006CB0" d="M27.664 20.781l-1.213-4.054 4.002-1.229 1.213 4.054z"/>
        <path fill="#006CB0" d="M26.678 22.65l-1.213-4.055 4.002-1.229 1.213 4.054z"/>
    </g>
</svg>
