<svg xmlns="http://www.w3.org/2000/svg" width="45" height="45" viewBox="0 0 45 45">
    <g fill="none" fill-rule="evenodd">
        <path fill="#000" d="M21.11 10L10 19.091h25L23.89 10z"/>
        <path fill="#000" d="M14.545 18.09h15.91v14.738c0 1.2-.973 2.172-2.172 2.172H16.717c-1.199 0-2.172-.972-2.172-2.172V18.091z"/>
        <path fill="#F2C85B" d="M17.97 24.106l.906.906c2.001-2 5.246-2 7.248 0l.906-.906a6.407 6.407 0 0 0-9.06 0"/>
        <path fill="#F2C85B" d="M24.312 26.824l.906-.906a3.844 3.844 0 0 0-5.436 0l.906.906c1-1 2.623-1 3.624 0M23.788 28.636a1.288 1.288 0 1 1-2.576 0 1.288 1.288 0 0 1 2.576 0"/>
    </g>
</svg>
