<svg xmlns="http://www.w3.org/2000/svg" xmlns:xlink="http://www.w3.org/1999/xlink" width="45" height="45" viewBox="0 0 45 45">
    <defs>
        <path id="a" d="M0 .095h28.903v28.43H0z"/>
    </defs>
    <g fill="none" fill-rule="evenodd">
        <path fill="#FEFEFE" d="M30.987 22.728c0 4.616-3.804 8.357-8.497 8.357-4.692 0-8.497-3.741-8.497-8.357s3.805-8.358 8.497-8.358c4.693 0 8.497 3.742 8.497 8.358"/>
        <g transform="translate(8 8.38)">
            <mask id="b" fill="#fff">
                <use xlink:href="#a"/>
            </mask>
            <path fill="#006CB0" d="M14.452 22.63c-4.672 0-8.459-3.725-8.459-8.32 0-4.595 3.787-8.32 8.459-8.32 4.671 0 8.458 3.725 8.458 8.32 0 4.595-3.787 8.32-8.458 8.32m13.084-10.6l-1.421-.097a1.41 1.41 0 0 1-1.335-.973c-.17-.505-.376-.993-.617-1.462a1.374 1.374 0 0 1 .245-1.619l.935-1.057a1.427 1.427 0 0 0-.069-1.97l-1.206-1.187a1.487 1.487 0 0 0-2.003-.068l-1.075.92c-.435.428-1.096.513-1.646.24-.477-.236-.973-.44-1.487-.606-.583-.189-.989-.709-.989-1.313L16.77 1.44A1.459 1.459 0 0 0 15.305.095h-1.706c-.772 0-1.412.588-1.465 1.345l-.099 1.398c0 .604-.405 1.124-.989 1.313-.513.167-1.01.37-1.487.606-.55.273-1.21.188-1.645-.24l-1.075-.92a1.487 1.487 0 0 0-2.003.068L3.629 4.852a1.428 1.428 0 0 0-.069 1.97l.936 1.057c.435.427.521 1.078.244 1.619-.24.469-.447.957-.616 1.462a1.41 1.41 0 0 1-1.336.973l-1.42.097A1.455 1.455 0 0 0 0 13.47v1.679c0 .759.597 1.389 1.367 1.44l1.421.098a1.41 1.41 0 0 1 1.336.973c.169.505.375.994.616 1.462.277.54.19 1.191-.244 1.619l-.936 1.057a1.428 1.428 0 0 0 .07 1.97l1.206 1.187a1.487 1.487 0 0 0 2.003.068l1.075-.92c.434-.428 1.096-.513 1.645-.24.476.236.974.439 1.487.605.584.19.989.71.989 1.314l.099 1.398a1.459 1.459 0 0 0 1.465 1.345h1.706c.771 0 1.412-.588 1.465-1.345l.098-1.398c0-.605.406-1.124.99-1.314a10.93 10.93 0 0 0 2.382-1.103l1.822 1.621c.58.516 1.47.494 2.024-.05l1.188-1.168a1.427 1.427 0 0 0 .069-1.97l-.935-1.057a1.374 1.374 0 0 1-.245-1.619c.241-.468.447-.957.617-1.462a1.41 1.41 0 0 1 1.335-.973l1.421-.097a1.455 1.455 0 0 0 1.367-1.441v-1.678c0-.759-.597-1.389-1.367-1.441" mask="url(#b)"/>
        </g>
        <path fill="#F2C85B" d="M20.466 19.125l6.072 3.595-6.012 3.536z"/>
    </g>
</svg>
