<svg xmlns="http://www.w3.org/2000/svg" xmlns:xlink="http://www.w3.org/1999/xlink" width="45" height="45" viewBox="0 0 45 45">
    <defs>
        <path id="a" d="M0 22.624h21V0H0z"/>
    </defs>
    <g fill="none" fill-rule="evenodd" transform="translate(12 11)">
        <path fill="#006CB0" d="M0 18.123V2.171C0 .972 1.006 0 2.247 0h16.506C19.994 0 21 .972 21 2.17v15.953c0 1.2-1.006 2.171-2.247 2.171H2.247C1.006 20.294 0 19.322 0 18.123"/>
        <path fill="#F2C85B" d="M14 10.147c0 1.868-1.567 3.383-3.5 3.383S7 12.015 7 10.147s1.567-3.382 3.5-3.382S14 8.279 14 10.147"/>
        <path fill="#FEFEFE" d="M18.083 10.147c0 4.048-3.395 7.329-7.583 7.329-4.188 0-7.583-3.281-7.583-7.329C2.917 6.1 6.312 2.82 10.5 2.82c4.188 0 7.583 3.28 7.583 7.328"/>
        <path fill="#006CB0" d="M17.066 10.147c0 3.505-2.94 6.346-6.566 6.346-3.627 0-6.566-2.841-6.566-6.346 0-3.504 2.94-6.346 6.566-6.346 3.627 0 6.566 2.842 6.566 6.346"/>
        <mask id="b" fill="#fff">
            <use xlink:href="#a"/>
        </mask>
        <path fill="#006CB0" d="M14 22.624h2.255v-2.33H14zM4.667 22.624h2.255v-2.33H4.667z" mask="url(#b)"/>
        <path fill="#F2C85B" d="M14 10.147c0 .623-.522 1.128-1.167 1.128-.644 0-1.166-.505-1.166-1.128 0-.623.522-1.127 1.166-1.127.645 0 1.167.504 1.167 1.127M11.667 7.892c0 .623-.523 1.128-1.167 1.128s-1.167-.505-1.167-1.128c0-.623.523-1.127 1.167-1.127s1.167.504 1.167 1.127M9.333 10.147c0 .623-.522 1.128-1.166 1.128-.645 0-1.167-.505-1.167-1.128 0-.623.522-1.127 1.167-1.127.644 0 1.166.504 1.166 1.127M11.667 12.402c0 .622-.523 1.128-1.167 1.128s-1.167-.506-1.167-1.128c0-.623.523-1.127 1.167-1.127s1.167.504 1.167 1.127" mask="url(#b)"/>
    </g>
</svg>
