<svg xmlns="http://www.w3.org/2000/svg" xmlns:xlink="http://www.w3.org/1999/xlink" width="45" height="45" viewBox="0 0 45 45">
    <defs>
        <path id="a" d="M0 22.558h21V.368H0z"/>
    </defs>
    <g fill="none" fill-rule="evenodd">
        <path fill="#FEFEFE" d="M14.333 31.346h16.334v-2.212H14.333z"/>
        <path fill="#006CB0" d="M14.333 33.631h16.333v-2.21H14.333z"/>
        <g transform="translate(12 11.074)">
            <path fill="#006CB0" d="M2.333 11.714V4.865h16.334v6.85c0 1.103-.943 1.996-2.108 1.996H4.441c-1.165 0-2.108-.893-2.108-1.997M0 3.76c0-.61.522-1.106 1.167-1.106h18.666c.645 0 1.167.495 1.167 1.106 0 .61-.522 1.105-1.167 1.105H1.167C.522 4.865 0 4.37 0 3.76"/>
            <path fill="#006CB0" d="M9.333 3.723V1.437c0-.59.505-1.068 1.128-1.068.623 0 1.128.478 1.128 1.068v2.286c0 .59-.505 1.069-1.128 1.069-.623 0-1.128-.48-1.128-1.07"/>
            <mask id="b" fill="#fff">
                <use xlink:href="#a"/>
            </mask>
            <path fill="#006CB0" d="M2.333 20.346h2.334v-2.211H2.333zM7 20.346h2.333v-2.211H7zM11.667 20.346H14v-2.211h-2.333zM16.333 20.346h2.334v-2.211h-2.334z" mask="url(#b)"/>
            <path fill="#F2C85B" d="M9.218 16.553a.398.398 0 0 1-.273.107.38.38 0 0 1-.39-.368c0-.102.044-.193.114-.26a1.213 1.213 0 0 0-1.005 0c.07.067.114.158.114.26a.38.38 0 0 1-.39.368.4.4 0 0 1-.273-.107 1.052 1.052 0 0 0 0 .951.401.401 0 0 1 .274-.107.38.38 0 0 1 .389.369.357.357 0 0 1-.114.26 1.213 1.213 0 0 0 1.005 0 .357.357 0 0 1-.114-.26.38.38 0 0 1 .39-.369.4.4 0 0 1 .273.107 1.05 1.05 0 0 0 0-.951M11.552 14.341a.398.398 0 0 1-.274.108.38.38 0 0 1-.39-.369c0-.101.044-.193.114-.26a1.213 1.213 0 0 0-1.004 0c.07.067.113.159.113.26a.38.38 0 0 1-.389.369.4.4 0 0 1-.274-.108 1.052 1.052 0 0 0 0 .952.4.4 0 0 1 .274-.107.38.38 0 0 1 .39.369.358.358 0 0 1-.114.26 1.213 1.213 0 0 0 1.004 0 .358.358 0 0 1-.113-.26.38.38 0 0 1 .389-.37c.107 0 .204.042.274.108a1.053 1.053 0 0 0 0-.952M16.218 14.341a.398.398 0 0 1-.273.108.38.38 0 0 1-.39-.369c0-.101.044-.193.114-.26a1.213 1.213 0 0 0-1.005 0c.07.067.114.159.114.26a.38.38 0 0 1-.39.369.4.4 0 0 1-.273-.108 1.052 1.052 0 0 0 0 .952.4.4 0 0 1 .274-.107.38.38 0 0 1 .389.369.358.358 0 0 1-.114.26 1.213 1.213 0 0 0 1.005 0 .358.358 0 0 1-.114-.26.38.38 0 0 1 .39-.37c.106 0 .203.042.273.108a1.053 1.053 0 0 0 0-.952M18.552 16.553a.398.398 0 0 1-.274.107.38.38 0 0 1-.39-.368c0-.102.044-.193.114-.26a1.213 1.213 0 0 0-1.004 0c.07.067.113.158.113.26a.38.38 0 0 1-.389.368.4.4 0 0 1-.274-.107 1.052 1.052 0 0 0 0 .951.401.401 0 0 1 .274-.107.38.38 0 0 1 .39.369.357.357 0 0 1-.114.26 1.213 1.213 0 0 0 1.004 0 .357.357 0 0 1-.113-.26.38.38 0 0 1 .389-.369.4.4 0 0 1 .274.107 1.05 1.05 0 0 0 0-.951M4.552 16.553a.398.398 0 0 1-.274.107.38.38 0 0 1-.39-.368c0-.102.044-.193.114-.26a1.213 1.213 0 0 0-1.004 0c.07.067.113.158.113.26a.38.38 0 0 1-.389.368.4.4 0 0 1-.274-.107 1.052 1.052 0 0 0 0 .951.401.401 0 0 1 .274-.107.38.38 0 0 1 .39.369.357.357 0 0 1-.114.26 1.213 1.213 0 0 0 1.004 0 .357.357 0 0 1-.113-.26.38.38 0 0 1 .389-.369.4.4 0 0 1 .274.107 1.05 1.05 0 0 0 0-.951M6.885 14.341a.398.398 0 0 1-.274.108.38.38 0 0 1-.389-.369c0-.101.043-.193.113-.26a1.213 1.213 0 0 0-1.004 0c.07.067.114.159.114.26a.38.38 0 0 1-.39.369.4.4 0 0 1-.274-.108 1.052 1.052 0 0 0 0 .952.4.4 0 0 1 .274-.107.38.38 0 0 1 .39.369.358.358 0 0 1-.114.26 1.213 1.213 0 0 0 1.004 0 .358.358 0 0 1-.113-.26.38.38 0 0 1 .39-.37c.106 0 .203.042.273.108a1.053 1.053 0 0 0 0-.952M20.885 14.341a.398.398 0 0 1-.274.108.38.38 0 0 1-.389-.369c0-.101.043-.193.113-.26a1.213 1.213 0 0 0-1.004 0c.07.067.114.159.114.26a.38.38 0 0 1-.39.369.4.4 0 0 1-.274-.108 1.052 1.052 0 0 0 0 .952.4.4 0 0 1 .274-.107.38.38 0 0 1 .39.369.358.358 0 0 1-.114.26 1.213 1.213 0 0 0 1.004 0 .358.358 0 0 1-.113-.26.38.38 0 0 1 .39-.37c.106 0 .203.042.273.108a1.053 1.053 0 0 0 0-.952M2.218 14.341a.398.398 0 0 1-.273.108.38.38 0 0 1-.39-.369c0-.101.044-.193.114-.26a1.213 1.213 0 0 0-1.005 0c.07.067.114.159.114.26a.38.38 0 0 1-.39.369.4.4 0 0 1-.273-.108 1.052 1.052 0 0 0 0 .952.4.4 0 0 1 .274-.107.38.38 0 0 1 .389.369.358.358 0 0 1-.114.26 1.213 1.213 0 0 0 1.005 0 .358.358 0 0 1-.114-.26.38.38 0 0 1 .39-.37c.106 0 .203.042.273.108a1.053 1.053 0 0 0 0-.952M13.885 16.553a.398.398 0 0 1-.274.107.38.38 0 0 1-.389-.368c0-.102.043-.193.113-.26a1.213 1.213 0 0 0-1.004 0c.07.067.114.158.114.26a.38.38 0 0 1-.39.368.4.4 0 0 1-.274-.107 1.052 1.052 0 0 0 0 .951.401.401 0 0 1 .274-.107.38.38 0 0 1 .39.369.357.357 0 0 1-.114.26 1.213 1.213 0 0 0 1.004 0 .357.357 0 0 1-.113-.26.38.38 0 0 1 .39-.369.4.4 0 0 1 .273.107 1.05 1.05 0 0 0 0-.951" mask="url(#b)"/>
        </g>
    </g>
</svg>
