<svg xmlns="http://www.w3.org/2000/svg" xmlns:xlink="http://www.w3.org/1999/xlink" width="45" height="45" viewBox="0 0 45 45">
    <defs>
        <path id="a" d="M0 27h21V0H0z"/>
    </defs>
    <g fill="none" fill-rule="evenodd" transform="translate(12 9)">
        <path fill="#006CB0" d="M0 24.833V13.417c0-1.197 1.006-2.167 2.247-2.167h11.84c1.24 0 2.246.97 2.246 2.167v11.416c0 1.197-1.005 2.167-2.246 2.167H2.247C1.006 27 0 26.03 0 24.833"/>
        <path fill="#FEFEFE" d="M14.065 19.125c0 3.141-2.64 5.688-5.898 5.688-3.258 0-5.898-2.547-5.898-5.688 0-3.141 2.64-5.688 5.898-5.688 3.257 0 5.898 2.547 5.898 5.688"/>
        <path fill="#006CB0" d="M13.274 19.125c0 2.72-2.287 4.925-5.107 4.925-2.82 0-5.108-2.205-5.108-4.925 0-2.72 2.287-4.925 5.108-4.925 2.82 0 5.107 2.205 5.107 4.925"/>
        <mask id="b" fill="#fff">
            <use xlink:href="#a"/>
        </mask>
        <path fill="#006CB0" d="M16.333 6.75H21V4.5h-4.667zM18.667 3.584H21V0h-2.333zM18.666 7.65v11.83c0 .425-.357.77-.799.77h-1.534v2.25h2.334c1.289 0 2.333-1.007 2.333-2.25V7.65h-2.334z" mask="url(#b)"/>
        <path fill="#F2C85B" d="M9.378 19.163c0 .624-.525 1.13-1.172 1.13-.648 0-1.173-.506-1.173-1.13 0-.625.525-1.131 1.173-1.131.647 0 1.172.506 1.172 1.13" mask="url(#b)"/>
        <path fill="#006CB0" d="M13.067 1.8c-2.062 0-3.734 1.612-3.734 3.6S11.005 9 13.067 9C15.128 9 16.8 7.388 16.8 5.4s-1.672-3.6-3.733-3.6" mask="url(#b)"/>
        <path fill="#F2C85B" d="M16.484 2.105L13.75 6.059l-1.367-1.318z" mask="url(#b)"/>
        <path fill="#F2C85B" d="M12.383 6.06V4.74L13.75 6.06z" mask="url(#b)"/>
    </g>
</svg>
