<svg xmlns="http://www.w3.org/2000/svg" width="45" height="45" viewBox="0 0 45 45">
    <g fill="none" fill-rule="evenodd">
        <path fill="#010203" d="M28.333 15.75H33V13.5h-4.667zM30.667 12.584H33V9h-2.333zM30.666 16.65v11.83c0 .425-.357.77-.799.77h-1.534v2.25h2.334c1.289 0 2.333-1.007 2.333-2.25v-12.6h-2.334z"/>
        <path fill="#010203" d="M25.067 10.8c-2.062 0-3.734 1.612-3.734 3.6s1.672 3.6 3.734 3.6c2.061 0 3.733-1.612 3.733-3.6s-1.672-3.6-3.733-3.6"/>
        <path fill="#F2C85B" d="M28.484 11.105l-2.734 3.954-1.367-1.318z"/>
        <path fill="#F2C85B" d="M24.383 15.06V13.74l1.367 1.318z"/>
        <path fill="#010203" d="M12 33.833V22.417c0-1.197 1.006-2.167 2.247-2.167h11.84c1.24 0 2.246.97 2.246 2.167v11.416c0 1.197-1.005 2.167-2.246 2.167h-11.84C13.006 36 12 35.03 12 33.833"/>
        <path fill="#FEFEFE" d="M26.065 28.125c0 3.141-2.64 5.688-5.898 5.688-3.258 0-5.898-2.547-5.898-5.688 0-3.141 2.64-5.688 5.898-5.688 3.257 0 5.898 2.547 5.898 5.688"/>
        <path fill="#010203" d="M25.274 28.125c0 2.72-2.287 4.925-5.107 4.925-2.82 0-5.108-2.205-5.108-4.925 0-2.72 2.287-4.925 5.108-4.925 2.82 0 5.107 2.205 5.107 4.925"/>
    </g>
</svg>
