<svg xmlns="http://www.w3.org/2000/svg" xmlns:xlink="http://www.w3.org/1999/xlink" width="45" height="45" viewBox="0 0 45 45">
    <defs>
        <path id="a" d="M0 .368h21v19.904H0z"/>
        <path id="c" d="M0 22.631h21V.442H0z"/>
    </defs>
    <g fill="none" fill-rule="evenodd" transform="translate(12 11)">
        <g transform="translate(0 .074)">
            <mask id="b" fill="#fff">
                <use xlink:href="#a"/>
            </mask>
            <path fill="#006CB0" d="M0 18.143V2.498C0 1.322 1.006.368 2.247.368h16.506c1.241 0 2.247.954 2.247 2.13v15.645c0 1.176-1.006 2.13-2.247 2.13H2.247c-1.241 0-2.247-.954-2.247-2.13" mask="url(#b)"/>
        </g>
        <path fill="#F2C85B" d="M14 10.394c0 1.833-1.567 3.318-3.5 3.318S7 12.227 7 10.394c0-1.832 1.567-3.317 3.5-3.317S14 8.562 14 10.394"/>
        <path fill="#FEFEFE" d="M18.083 10.394c0 3.97-3.395 7.188-7.583 7.188-4.188 0-7.583-3.218-7.583-7.188 0-3.97 3.395-7.187 7.583-7.187 4.188 0 7.583 3.218 7.583 7.187"/>
        <path fill="#006CB0" d="M17.066 10.394c0 3.437-2.94 6.223-6.566 6.223-3.627 0-6.566-2.786-6.566-6.223s2.94-6.223 6.566-6.223c3.627 0 6.566 2.786 6.566 6.223"/>
        <mask id="d" fill="#fff">
            <use xlink:href="#c"/>
        </mask>
        <path fill="#006CB0" d="M14 22.631h2.255v-2.285H14zM4.667 22.631h2.255v-2.285H4.667z" mask="url(#d)"/>
        <path fill="#F2C85B" d="M18.667 10.394c0 .611-.523 1.106-1.167 1.106s-1.167-.495-1.167-1.106c0-.61.523-1.106 1.167-1.106s1.167.495 1.167 1.106M11.667 3.76c0 .61-.523 1.105-1.167 1.105S9.333 4.37 9.333 3.76c0-.611.523-1.106 1.167-1.106s1.167.495 1.167 1.106M4.667 10.394c0 .611-.523 1.106-1.167 1.106s-1.167-.495-1.167-1.106c0-.61.523-1.106 1.167-1.106s1.167.495 1.167 1.106M11.667 17.029c0 .61-.523 1.106-1.167 1.106s-1.167-.495-1.167-1.106c0-.611.523-1.106 1.167-1.106s1.167.495 1.167 1.106M16.275 15.867a1.212 1.212 0 0 1-1.65 0 1.065 1.065 0 0 1 0-1.563 1.212 1.212 0 0 1 1.65 0 1.065 1.065 0 0 1 0 1.563M16.275 6.485a1.212 1.212 0 0 1-1.65 0 1.065 1.065 0 0 1 0-1.564 1.212 1.212 0 0 1 1.65 0 1.065 1.065 0 0 1 0 1.564M6.375 6.485a1.212 1.212 0 0 1-1.65 0 1.065 1.065 0 0 1 0-1.564 1.212 1.212 0 0 1 1.65 0 1.065 1.065 0 0 1 0 1.564M6.375 15.867a1.212 1.212 0 0 1-1.65 0 1.065 1.065 0 0 1 0-1.563 1.212 1.212 0 0 1 1.65 0 1.065 1.065 0 0 1 0 1.563" mask="url(#d)"/>
    </g>
</svg>
