<svg xmlns="http://www.w3.org/2000/svg" xmlns:xlink="http://www.w3.org/1999/xlink" width="45" height="45" viewBox="0 0 45 45">
    <defs>
        <path id="a" d="M0 22.624h21V0H0z"/>
    </defs>
    <g fill="none" fill-rule="evenodd" transform="translate(12 11)">
        <path fill="#006CB0" d="M15.167 6.765C14.522 6.765 14 6.26 14 5.637c0-.623.522-1.127 1.167-1.127.644 0 1.166.504 1.166 1.127s-.522 1.128-1.166 1.128m0 9.02c-.645 0-1.167-.505-1.167-1.128 0-.623.522-1.128 1.167-1.128.644 0 1.166.505 1.166 1.128 0 .623-.522 1.127-1.166 1.127m-9.334-9.02c-.644 0-1.166-.504-1.166-1.127S5.189 4.51 5.833 4.51C6.478 4.51 7 5.014 7 5.637s-.522 1.128-1.167 1.128m0 9.02c-.644 0-1.166-.505-1.166-1.128 0-.623.522-1.128 1.166-1.128.645 0 1.167.505 1.167 1.128 0 .623-.522 1.127-1.167 1.127M18.753 0H2.247C1.006 0 0 .972 0 2.17v15.953c0 1.2 1.006 2.171 2.247 2.171h16.506c1.241 0 2.247-.972 2.247-2.17V2.17C21 .97 19.994 0 18.753 0"/>
        <path fill="#F2C85B" d="M5.833 17.024c-1.353 0-2.45-1.06-2.45-2.367 0-1.308 1.097-2.368 2.45-2.368 1.353 0 2.45 1.06 2.45 2.368 0 1.307-1.097 2.367-2.45 2.367m0-5.75c-1.933 0-3.5 1.515-3.5 3.383s1.567 3.382 3.5 3.382c1.934 0 3.5-1.514 3.5-3.382s-1.566-3.383-3.5-3.383"/>
        <mask id="b" fill="#fff">
            <use xlink:href="#a"/>
        </mask>
        <path fill="#006CB0" d="M14 22.624h2.255v-2.33H14zM4.667 22.624h2.255v-2.33H4.667z" mask="url(#b)"/>
        <path fill="#F2C85B" d="M15.167 17.024c-1.353 0-2.45-1.06-2.45-2.367 0-1.308 1.097-2.368 2.45-2.368 1.353 0 2.45 1.06 2.45 2.368 0 1.307-1.097 2.367-2.45 2.367m0-5.75c-1.934 0-3.5 1.515-3.5 3.383s1.566 3.382 3.5 3.382c1.933 0 3.5-1.514 3.5-3.382s-1.567-3.383-3.5-3.383M15.167 8.005c-1.353 0-2.45-1.06-2.45-2.368 0-1.307 1.097-2.368 2.45-2.368 1.353 0 2.45 1.06 2.45 2.368 0 1.308-1.097 2.368-2.45 2.368m0-5.75c-1.934 0-3.5 1.514-3.5 3.382 0 1.869 1.566 3.382 3.5 3.382 1.933 0 3.5-1.513 3.5-3.382 0-1.868-1.567-3.382-3.5-3.382M5.833 8.005c-1.353 0-2.45-1.06-2.45-2.368 0-1.307 1.097-2.368 2.45-2.368 1.353 0 2.45 1.06 2.45 2.368 0 1.308-1.097 2.368-2.45 2.368m0-5.75c-1.933 0-3.5 1.514-3.5 3.382 0 1.869 1.567 3.382 3.5 3.382 1.934 0 3.5-1.513 3.5-3.382 0-1.868-1.566-3.382-3.5-3.382" mask="url(#b)"/>
        <path fill="#FEFEFE" d="M7 5.637c0 .623-.522 1.128-1.167 1.128-.644 0-1.166-.505-1.166-1.128 0-.623.522-1.127 1.166-1.127C6.478 4.51 7 5.014 7 5.637M16.333 5.637c0 .623-.522 1.128-1.166 1.128-.645 0-1.167-.505-1.167-1.128 0-.623.522-1.127 1.167-1.127.644 0 1.166.504 1.166 1.127M7 14.657c0 .623-.522 1.127-1.167 1.127-.644 0-1.166-.504-1.166-1.127s.522-1.128 1.166-1.128c.645 0 1.167.505 1.167 1.128M16.333 14.657c0 .623-.522 1.127-1.166 1.127-.645 0-1.167-.504-1.167-1.127s.522-1.128 1.167-1.128c.644 0 1.166.505 1.166 1.128" mask="url(#b)"/>
    </g>
</svg>
