<svg xmlns="http://www.w3.org/2000/svg" xmlns:xlink="http://www.w3.org/1999/xlink" width="45" height="45" viewBox="0 0 45 45">
    <defs>
        <path id="a" d="M0 0h24.545v24.545H0z"/>
    </defs>
    <g fill="none" fill-rule="evenodd">
        <g transform="translate(11.455 11.455)">
            <mask id="b" fill="#fff">
                <use xlink:href="#a"/>
            </mask>
            <path fill="#F2C85B" d="M24.545 13.388v-2.23h-.797a11.482 11.482 0 0 0-.11-.813c-.022-.13-.05-.256-.076-.383-.027-.126-.05-.254-.08-.38-.064-.268-.137-.531-.218-.791l.733-.314-.876-2.052-.728.311a11.642 11.642 0 0 0-1.199-1.807l.546-.545-1.578-1.579-.533.534c-.622-.521-1.3-.977-2.023-1.36l.273-.68-2.07-.831-.266.66a11.628 11.628 0 0 0-2.155-.446V0h-2.23v.663c-.84.071-1.651.235-2.43.472L8.478.55l-2.052.876.242.566c-.663.353-1.29.761-1.869 1.23l-.415-.416-1.578 1.579.403.403c-.537.64-1.004 1.34-1.395 2.086l-.515-.207-.832 2.07.512.206a11.583 11.583 0 0 0-.439 2.215H0v2.231h.54c.016.162.043.32.064.48.015.104.025.207.042.31.026.154.058.305.09.455.03.152.06.303.096.454.026.102.056.201.084.302.042.156.08.312.13.467l-.498.212.877 2.052.497-.212c.366.673.798 1.292 1.274 1.864l-.39.39 1.578 1.578.392-.393a11.7 11.7 0 0 0 2.103 1.37l-.213.53 2.07.83.22-.545c.716.205 1.454.334 2.201.398v.616h2.231v-.638a11.66 11.66 0 0 0 2.42-.52l.26.609 2.052-.876-.268-.627c.652-.365 1.251-.79 1.806-1.258l.504.504 1.578-1.578-.518-.518c.513-.637.958-1.322 1.325-2.046l.7.281.831-2.07-.716-.288a11.74 11.74 0 0 0 .393-2.133h.79z" mask="url(#b)"/>
        </g>
        <path fill="#006CB0" d="M33.545 22.388v-2.23h-.797a11.482 11.482 0 0 0-.11-.813c-.022-.13-.05-.256-.076-.383-.027-.126-.05-.254-.08-.38-.064-.268-.137-.531-.218-.791l.733-.314-.876-2.052-.728.311a11.642 11.642 0 0 0-1.199-1.807l.546-.545-1.578-1.579-.533.534c-.622-.521-1.3-.977-2.023-1.36l.273-.68-2.07-.831-.266.66a11.628 11.628 0 0 0-2.155-.446V9h-2.23v.663c-.84.071-1.651.235-2.43.472l-.25-.586-2.052.876.242.566c-.663.353-1.29.761-1.869 1.23l-.415-.416-1.578 1.579.403.403c-.537.64-1.004 1.34-1.395 2.086l-.515-.207-.832 2.07.512.206a11.583 11.583 0 0 0-.439 2.215H9v2.231h.54c.016.162.043.32.064.48.015.104.025.207.042.31.026.154.058.305.09.455.03.152.06.303.096.454.026.102.056.201.084.302.042.156.08.312.13.467l-.498.212.877 2.052.497-.212c.366.673.798 1.292 1.273 1.864l-.39.39 1.579 1.578.392-.393a11.7 11.7 0 0 0 2.103 1.37l-.213.53 2.07.83.22-.545c.716.205 1.454.334 2.201.398v.616h2.231v-.638a11.66 11.66 0 0 0 2.42-.52l.26.609 2.052-.876-.268-.627c.652-.365 1.251-.79 1.806-1.258l.504.504 1.578-1.578-.518-.518c.513-.637.958-1.322 1.325-2.046l.7.281.831-2.07-.716-.288a11.74 11.74 0 0 0 .393-2.133h.79z"/>
        <path fill="#FEFEFE" d="M21.273 29.95a8.678 8.678 0 1 1 0-17.356 8.678 8.678 0 0 1 0 17.357m0-17.883a9.205 9.205 0 1 0 0 18.41 9.205 9.205 0 0 0 0-18.41"/>
        <path fill="#F2C85B" d="M23.514 19.303c0-.3-.108-.561-.318-.785-.212-.222-.5-.332-.86-.332h-1.537v2.234h1.536c.361 0 .649-.111.861-.335.21-.222.318-.482.318-.782m2.714 0c0 .962-.32 1.778-.962 2.45-.703.735-1.639 1.102-2.807 1.102h-1.66v3.94h-2.715V15.75h4.375c1.179 0 2.114.362 2.807 1.086.642.673.962 1.495.962 2.467"/>
    </g>
</svg>
