<svg xmlns="http://www.w3.org/2000/svg" xmlns:xlink="http://www.w3.org/1999/xlink" width="45" height="45" viewBox="0 0 45 45">
    <defs>
        <path id="a" d="M.34.412h6.925v8.934H.34z"/>
        <path id="c" d="M0 .243h8.935v6.915H0z"/>
    </defs>
    <g fill="none" fill-rule="evenodd">
        <path fill="#F2C85B" d="M25.615 22.5a3.116 3.116 0 1 1-6.231 0 3.116 3.116 0 0 1 6.231 0"/>
        <path fill="#006CB0" d="M26.365 11.924c.657-1.118.134-2.773-.974-2.913A1.284 1.284 0 0 0 25.223 9h-4.207c-.744 0-1.374.612-1.58 1.454-.077.312-.062.647.009.96l1.571 6.932c.95 0 1.846-.539 2.437-1.463l2.912-4.959z"/>
        <g transform="translate(17.308 25.615)">
            <mask id="b" fill="#fff">
                <use xlink:href="#a"/>
            </mask>
            <path fill="#006CB0" d="M5.71.412l1.497 6.625c.068.3.082.621.01.92-.198.804-.797 1.39-1.507 1.39H1.703a1.31 1.31 0 0 1-.16-.01C.487 9.201-.012 7.62.614 6.55l2.774-4.74C3.95.926 4.806.41 5.71.41" mask="url(#b)"/>
        </g>
        <path fill="#006CB0" d="M33.076 26.365c1.118.657 2.773.134 2.913-.974.008-.055.011-.111.011-.168v-4.207c0-.744-.612-1.374-1.454-1.58a2.108 2.108 0 0 0-.96.009l-6.932 1.571c0 .95.539 1.846 1.463 2.437l4.959 2.912z"/>
        <g transform="translate(9 17.308)">
            <mask id="d" fill="#fff">
                <use xlink:href="#c"/>
            </mask>
            <path fill="#006CB0" d="M2.79.505C1.71-.103.143.402.01 1.452a1.31 1.31 0 0 0-.01.16v4.002c0 .656.503 1.219 1.218 1.454.358.119.762.114 1.133.023l6.584-1.62c0-.9-.524-1.751-1.417-2.3L2.79.505z" mask="url(#d)"/>
        </g>
    </g>
</svg>
