<svg xmlns="http://www.w3.org/2000/svg" xmlns:xlink="http://www.w3.org/1999/xlink" width="45" height="45" viewBox="0 0 45 45">
    <defs>
        <path id="a" d="M0 .243h15.91v11.364H0z"/>
    </defs>
    <g fill="none" fill-rule="evenodd">
        <g transform="translate(14.545 23.15)">
            <mask id="b" fill="#fff">
                <use xlink:href="#a"/>
            </mask>
            <path fill="#010203" d="M0 10.187c0 .784.648 1.42 1.446 1.42h13.017c.798 0 1.446-.636 1.446-1.42L9.83 8.993a1.414 1.414 0 0 1-1.151-1.38V.243H7.23v7.37c0 .67-.481 1.248-1.151 1.38L0 10.187z" mask="url(#b)"/>
        </g>
        <path fill="#010203" d="M29.444 18.185c0 3.767-3.109 6.82-6.944 6.82s-6.944-3.053-6.944-6.82c0-3.767 3.109-6.821 6.944-6.821s6.944 3.054 6.944 6.82"/>
        <path fill="#010203" d="M26.667 22.277H35C35 15.497 29.404 10 22.5 10 15.597 10 10 15.496 10 22.277h8.333"/>
    </g>
</svg>
