<svg xmlns="http://www.w3.org/2000/svg" xmlns:xlink="http://www.w3.org/1999/xlink" width="45" height="45" viewBox="0 0 45 45">
    <defs>
        <path id="a" d="M0 28.547h11V.217H0z"/>
    </defs>
    <g fill="none" fill-rule="evenodd">
        <path fill="#FEFEFE" d="M21.4 18.658h2.2V9.595h-2.2z"/>
        <path fill="#006CB0" d="M17 23.19h2.2v-2.266H17zM25.8 23.19H28v-2.266h-2.2zM17 18.658h2.2v-2.266H17zM25.8 18.658H28v-2.266h-2.2z"/>
        <g transform="translate(17 8.236)">
            <path fill="#006CB0" d="M11 22.883c0 3.128-2.463 5.664-5.5 5.664S0 26.01 0 22.883c0-3.128 2.463-5.664 5.5-5.664s5.5 2.536 5.5 5.664"/>
            <path fill="#006CB0" d="M6.6 3.625v6.797H4.4V3.625v-.01c0-.625.492-1.132 1.1-1.132.608 0 1.1.507 1.1 1.132v.01zm2.2 0v-.01C8.8 1.74 7.322.217 5.5.217c-1.823 0-3.3 1.522-3.3 3.398v.01h-.001V21.75h2.2v-9.063h2.2v9.063H8.8V3.625z"/>
            <path fill="#F2C85B" d="M8.8 22.883c0 1.877-1.477 3.398-3.3 3.398-1.823 0-3.3-1.521-3.3-3.398 0-1.877 1.477-3.399 3.3-3.399 1.823 0 3.3 1.522 3.3 3.399"/>
            <mask id="b" fill="#fff">
                <use xlink:href="#a"/>
            </mask>
            <path fill="#F2C85B" d="M4.4 21.75h2.2V10.422H4.4z" mask="url(#b)"/>
        </g>
    </g>
</svg>
