<svg xmlns="http://www.w3.org/2000/svg" xmlns:xlink="http://www.w3.org/1999/xlink" width="45" height="45" viewBox="0 0 45 45">
    <defs>
        <path id="a" d="M.334.393h6.805V8.93H.334z"/>
        <path id="c" d="M0 .238h8.535v6.796H0z"/>
    </defs>
    <g fill="none" fill-rule="evenodd">
        <path fill="#F2C85B" d="M25.174 21.28a2.846 2.846 0 1 1-5.691 0 2.846 2.846 0 0 1 5.691 0"/>
        <path fill="#006CB0" d="M25.97 11.67c.615-1.02.125-2.533-.911-2.66A1.231 1.231 0 0 0 24.9 9h-3.938c-.697 0-1.286.56-1.48 1.328a1.88 1.88 0 0 0 .01.877l1.47 6.33c.889 0 1.728-.491 2.282-1.336l2.725-4.528z"/>
        <g transform="translate(18.036 24.682)">
            <mask id="b" fill="#fff">
                <use xlink:href="#a"/>
            </mask>
            <path fill="#006CB0" d="M5.611.393l1.47 6.33c.068.287.082.593.01.878-.194.768-.783 1.328-1.48 1.328H1.674c-.053 0-.107-.004-.158-.01C.479 8.791-.011 7.279.604 6.258L3.33 1.73C3.883.885 4.723.393 5.611.393" mask="url(#b)"/>
        </g>
        <path fill="#006CB0" d="M31.94 24.922c1.021.615 2.533.125 2.66-.911.007-.052.01-.105.01-.158v-3.938c0-.697-.56-1.286-1.328-1.48a1.88 1.88 0 0 0-.877.01l-6.33 1.47c0 .889.491 1.728 1.336 2.281l4.529 2.726z"/>
        <g transform="translate(10 17.092)">
            <mask id="d" fill="#fff">
                <use xlink:href="#c"/>
            </mask>
            <path fill="#006CB0" d="M2.665.496C1.635-.101.137.395.01 1.426c-.007.053-.01.105-.01.158v3.933c0 .644.48 1.197 1.163 1.428.343.117.729.113 1.083.023l6.29-1.592c0-.885-.5-1.72-1.354-2.26L2.665.496z" mask="url(#d)"/>
        </g>
    </g>
</svg>
