<svg xmlns="http://www.w3.org/2000/svg" xmlns:xlink="http://www.w3.org/1999/xlink" width="45" height="45" viewBox="0 0 45 45">
    <defs>
        <path id="a" d="M0 27h27V0H0z"/>
    </defs>
    <g fill="none" fill-rule="evenodd" transform="translate(9 9)">
        <path fill="#006CB0" d="M27 12.273h-2.455v12.262A2.465 2.465 0 0 1 22.08 27H4.92a2.465 2.465 0 0 1-2.465-2.465V12.273H0L12.273 0h2.454L27 12.273z"/>
        <path fill="#F2C85B" d="M13.5 22.904a6.95 6.95 0 1 1 0-13.9 6.95 6.95 0 0 1 0 13.9m0-15.11a8.161 8.161 0 1 0 0 16.322 8.161 8.161 0 0 0 0-16.323"/>
        <path fill="#F2C85B" d="M14.715 14.74l-2.43 2.43-3.124-5.554z"/>
        <path fill="#FEFEFE" d="M17.839 20.294l-5.554-3.125 2.43-2.429z"/>
        <mask id="b" fill="#fff">
            <use xlink:href="#a"/>
        </mask>
        <path fill="#F2C85B" d="M12.81 24.545h1.562v-1.562H12.81zM12.81 8.926h1.562V7.364H12.81zM5 16.736h1.562v-1.562H5zM20.62 16.736h1.562v-1.562H20.62zM8.068 22.581l-1.104-1.104 1.104-1.104 1.105 1.104zM19.113 11.536l-1.104-1.104 1.104-1.104 1.105 1.104zM6.964 10.432l1.104-1.104 1.105 1.104-1.105 1.104zM18.009 21.477l1.104-1.104 1.105 1.104-1.105 1.104z" mask="url(#b)"/>
    </g>
</svg>
