<svg xmlns="http://www.w3.org/2000/svg" width="45" height="45" viewBox="0 0 45 45">
    <g fill="none" fill-rule="evenodd">
        <path fill="#006CB0" d="M14.545 33.336c0 .785.648 1.42 1.447 1.42h13.016c.799 0 1.447-.635 1.447-1.42l-6.08-1.194a1.414 1.414 0 0 1-1.152-1.38v-7.369h-1.446v7.369c0 .67-.482 1.248-1.152 1.38l-6.08 1.194z"/>
        <path fill="#F2C85B" d="M29.444 18.184c0 3.767-3.109 6.82-6.944 6.82s-6.944-3.053-6.944-6.82c0-3.767 3.109-6.82 6.944-6.82s6.944 3.053 6.944 6.82"/>
        <path fill="#006CB0" d="M26.667 22.277H35C35 15.497 29.404 10 22.5 10 15.597 10 10 15.496 10 22.277h8.333"/>
    </g>
</svg>
