<svg xmlns="http://www.w3.org/2000/svg" xmlns:xlink="http://www.w3.org/1999/xlink" width="45" height="45" viewBox="0 0 45 45">
    <defs>
        <path id="a" d="M0 0h4.91v7.25H0z"/>
    </defs>
    <g fill="none" fill-rule="evenodd">
        <path fill="#006CB0" d="M22.5 35.583c6.1 0 11.045-4.868 11.045-10.875v-4.833C33.545 13.869 28.601 9 22.5 9c-6.1 0-11.045 4.869-11.045 10.875v4.833h2.454v-4.833c0-4.671 3.846-8.458 8.591-8.458 4.745 0 8.59 3.787 8.59 8.458v4.833c0 4.672-3.845 8.459-8.59 8.459v2.416z"/>
        <path fill="#006CB0" d="M26.182 34.375c0 2.002-1.648 3.625-3.682 3.625s-3.682-1.623-3.682-3.625 1.648-3.625 3.682-3.625 3.682 1.623 3.682 3.625"/>
        <path fill="#F2C85B" d="M24.556 34.375c0 1.118-.92 2.024-2.056 2.024-1.135 0-2.056-.906-2.056-2.024 0-1.118.92-2.024 2.056-2.024 1.135 0 2.056.906 2.056 2.024"/>
        <path fill="#006CB0" d="M13.91 25.917h-2.554c-1.301 0-2.356-1.039-2.356-2.32v-2.61c0-1.282 1.055-2.32 2.356-2.32h2.553v7.25z"/>
        <g transform="translate(31.09 18.667)">
            <mask id="b" fill="#fff">
                <use xlink:href="#a"/>
            </mask>
            <path fill="#006CB0" d="M2.553 7.25H0V0h2.553c1.3 0 2.356 1.039 2.356 2.32v2.61c0 1.281-1.055 2.32-2.356 2.32" mask="url(#b)"/>
        </g>
        <path fill="#006CB0" d="M18.573 24.467c-.678 0-1.228-.541-1.228-1.209v-2.416c0-.668.55-1.209 1.228-1.209.678 0 1.227.541 1.227 1.209v2.416c0 .668-.55 1.209-1.227 1.209M26.427 24.467c-.678 0-1.227-.541-1.227-1.209v-2.416c0-.668.55-1.209 1.227-1.209.678 0 1.228.541 1.228 1.209v2.416c0 .668-.55 1.209-1.228 1.209"/>
    </g>
</svg>
