<svg xmlns="http://www.w3.org/2000/svg" xmlns:xlink="http://www.w3.org/1999/xlink" width="45" height="45" viewBox="0 0 45 45">
    <defs>
        <path id="a" d="M0 27.878h26.757V0H0z"/>
    </defs>
    <g fill="none" fill-rule="evenodd" transform="translate(9 9)">
        <path fill="#FEFEFE" d="M25.55 13.433c0 6.75-5.45 12.223-12.172 12.223S1.206 20.184 1.206 13.433c0-6.75 5.45-12.222 12.172-12.222 6.723 0 12.172 5.472 12.172 12.222"/>
        <path fill="#006CB0" d="M20.42 6.362l-6.26 9.429-3.13-3.143z"/>
        <path fill="#006CB0" d="M11.031 15.79v-3.142l3.13 3.143z"/>
        <path fill="#006CB0" d="M4.771 22.076C.018 17.303.018 9.564 4.771 4.79a12.137 12.137 0 0 1 17.214 0c4.754 4.773 4.754 12.512 0 17.285a12.137 12.137 0 0 1-17.214 0M22.838 3.935c-5.224-5.246-13.695-5.246-18.92 0-5.224 5.246-5.224 13.75 0 18.997 5.225 5.246 13.696 5.246 18.92 0 5.225-5.246 5.225-13.751 0-18.997"/>
        <path fill="#F2C85B" d="M21.203 4.005l1.565 1.571-1.565 1.572-1.565-1.572zM5.554 19.719l1.565 1.571-1.565 1.571-1.565-1.571zM22.768 21.29l-1.565 1.571-1.565-1.57 1.565-1.572zM7.119 5.577l-1.565 1.57-1.565-1.57 1.565-1.572z"/>
        <mask id="b" fill="#fff">
            <use xlink:href="#a"/>
        </mask>
        <path fill="#006CB0" d="M12.272 25.656h2.213v-2.223h-2.213zM12.272 3.433h2.213V1.211h-2.213zM1.206 14.544H3.42v-2.222H1.206zM23.337 14.544h2.213v-2.222h-2.213z" mask="url(#b)"/>
        <path fill="#F2C85B" d="M10.059 23.433c0 2.455-1.982 4.445-4.427 4.445-2.444 0-4.426-1.99-4.426-4.445 0-2.454 2.951-5.629 4.426-8.592 1.476 2.963 4.427 6.138 4.427 8.592" mask="url(#b)"/>
    </g>
</svg>
