<svg xmlns="http://www.w3.org/2000/svg" xmlns:xlink="http://www.w3.org/1999/xlink" width="45" height="45" viewBox="0 0 45 45">
    <defs>
        <path id="a" d="M.45.25h21.63v24.295H.45z"/>
    </defs>
    <g fill="none" fill-rule="evenodd">
        <path fill="#F2C85B" d="M11 16.568h6.9v-2.272H11z"/>
        <path fill="#F2C85B" d="M13.3 18.841h2.3v-6.818h-2.3zM17.321 33.749c5.206 1.725 10.838-1.575 13.122-8.308 2.036-6 .376-12.1-3.695-14.575 1.893 3.034 2.346 7.41.878 11.736-2.284 6.733-9.052 10.684-14.258 8.96"/>
        <g transform="translate(11.92 10.205)">
            <mask id="b" fill="#fff">
                <use xlink:href="#a"/>
            </mask>
            <path fill="#006CB0" d="M14.07.25c3.02 2.9 4.523 7.218 3.606 11.595-1.427 6.813-8.174 11.193-15.068 9.782-.75-.153-1.47-.368-2.157-.64a12.737 12.737 0 0 0 6.294 3.294c6.894 1.41 13.64-2.97 15.068-9.782 1.272-6.072-2.11-12.027-7.743-14.25" mask="url(#b)"/>
        </g>
    </g>
</svg>
