<svg xmlns="http://www.w3.org/2000/svg" width="45" height="45" viewBox="0 0 45 45">
    <g fill="none" fill-rule="evenodd">
        <path fill="#006CB0" d="M30.308 23.466H37v-1.933h-6.692zM8 23.466h6.692v-1.933H8zM21.533 14.692h1.934V8h-1.934zM21.533 37h1.934v-6.692h-1.934zM27.338 28.704l1.366-1.367 4.732 4.732-1.367 1.368zM11.564 12.93l1.366-1.366 4.732 4.731-1.367 1.367zM28.704 17.663l-1.366-1.367 4.732-4.733 1.366 1.368zM12.93 33.437l-1.366-1.367 4.732-4.733 1.366 1.367z"/>
        <path fill="#006CB0" d="M32.538 22.5c0 5.544-4.494 10.038-10.038 10.038-5.544 0-10.038-4.494-10.038-10.038 0-5.544 4.494-10.038 10.038-10.038 5.544 0 10.038 4.494 10.038 10.038"/>
        <path fill="#F2C85B" d="M30.308 22.5a7.808 7.808 0 1 1-15.616 0 7.808 7.808 0 0 1 15.616 0"/>
    </g>
</svg>
