<svg xmlns="http://www.w3.org/2000/svg" width="45" height="45" viewBox="0 0 45 45">
    <g fill="none" fill-rule="evenodd">
        <path fill="#FEFEFE" d="M12 32.727h21V10H12z"/>
        <path fill="#006CB0" d="M12 12.273h21V10H12z"/>
        <path fill="#006CB0" d="M12 35h2.333V10H12zM30.667 35H33V10h-2.333zM21.333 32.727h2.334V10h-2.334z"/>
        <path fill="#006CB0" d="M12 32.727h21v-2.272H12zM21.333 25.91H33v-2.274H21.333zM21.333 19.09H33V16.82H21.333z"/>
        <g fill="#F2C85B">
            <path d="M20.167 21.364c0 .627-.523 1.136-1.167 1.136s-1.167-.509-1.167-1.136c0-.628.523-1.137 1.167-1.137s1.167.509 1.167 1.137M28.333 14.545c0 .628-.522 1.137-1.166 1.137-.645 0-1.167-.509-1.167-1.137 0-.627.522-1.136 1.167-1.136.644 0 1.166.509 1.166 1.136M28.333 21.364c0 .627-.522 1.136-1.166 1.136-.645 0-1.167-.509-1.167-1.136 0-.628.522-1.137 1.167-1.137.644 0 1.166.509 1.166 1.137M28.333 28.182c0 .628-.522 1.136-1.166 1.136-.645 0-1.167-.508-1.167-1.136 0-.628.522-1.137 1.167-1.137.644 0 1.166.51 1.166 1.137"/>
        </g>
    </g>
</svg>
