<svg xmlns="http://www.w3.org/2000/svg" width="45" height="45" viewBox="0 0 45 45">
    <g fill="none" fill-rule="evenodd">
        <path fill="#F2C85B" d="M30.455 12.273a2.273 2.273 0 1 1-4.546 0 2.273 2.273 0 0 1 4.546 0"/>
        <path fill="#006CB0" d="M35 16.818a2.273 2.273 0 0 0-2.273-2.273H12.273A2.273 2.273 0 0 0 10 16.818l9.554 1.911a2.251 2.251 0 0 1 1.81 2.208v11.79h2.272v-11.79c0-1.074.758-1.997 1.81-2.208L35 16.82z"/>
        <path fill="#006CB0" d="M28.182 33.864c0 .627-.509 1.136-1.137 1.136h-9.09a1.136 1.136 0 1 1 0-2.273h9.09c.628 0 1.137.509 1.137 1.137"/>
    </g>
</svg>
