<svg xmlns="http://www.w3.org/2000/svg" width="45" height="45" viewBox="0 0 45 45">
    <g fill="none" fill-rule="evenodd">
        <path fill="#FEFEFE" d="M11.25 33.545h22.5V9h-22.5z"/>
        <path fill="#006CB0" d="M31.25 33.545h-7.5v-22.09h6.171c.734 0 1.329.584 1.329 1.304v20.786zm-17.5-1.304V12.759c0-.72.595-1.304 1.329-1.304h6.171v22.09h-6.171a1.317 1.317 0 0 1-1.329-1.304zM31.25 9h-17.5c-1.381 0-2.5 1.1-2.5 2.455v22.09c0 1.356 1.119 2.455 2.5 2.455h17.5c1.381 0 2.5-1.1 2.5-2.455v-22.09c0-1.356-1.119-2.455-2.5-2.455z"/>
        <path fill="#F2C85B" d="M19.375 22.5c0 .678-.56 1.227-1.25 1.227s-1.25-.55-1.25-1.227c0-.678.56-1.227 1.25-1.227s1.25.55 1.25 1.227M28.125 22.5c0 .678-.56 1.227-1.25 1.227s-1.25-.55-1.25-1.227c0-.678.56-1.227 1.25-1.227s1.25.55 1.25 1.227"/>
        <path fill="#006CB0" d="M23.75 36v-7.364l7.5 4.91V36zM33.75 17.59c.69 0 1.25-.548 1.25-1.226v-1.228c0-.678-.56-1.227-1.25-1.227v3.682zM33.75 31.09c.69 0 1.25-.548 1.25-1.226v-1.228c0-.678-.56-1.227-1.25-1.227v3.682zM11.25 27.41c-.69 0-1.25.548-1.25 1.226v1.228c0 .678.56 1.227 1.25 1.227v-3.682zM11.25 13.91c-.69 0-1.25.548-1.25 1.226v1.228c0 .678.56 1.227 1.25 1.227v-3.682z"/>
    </g>
</svg>
