<svg xmlns="http://www.w3.org/2000/svg" xmlns:xlink="http://www.w3.org/1999/xlink" width="45" height="45" viewBox="0 0 45 45">
    <defs>
        <path id="a" d="M0 23h25V0H0z"/>
    </defs>
    <g fill="none" fill-rule="evenodd">
        <circle cx="22.5" cy="22.5" r="18.5" fill="#D3D3D3"/>
        <g transform="translate(10 11)">
            <path fill="#006CB0" d="M20.455 16.1c-1.255 0-2.273-1.03-2.273-2.3 0-1.27 1.018-2.3 2.273-2.3 1.255 0 2.272 1.03 2.272 2.3 0 1.27-1.017 2.3-2.272 2.3m-15.91 0c-1.255 0-2.272-1.03-2.272-2.3 0-1.27 1.017-2.3 2.272-2.3s2.273 1.03 2.273 2.3c0 1.27-1.018 2.3-2.273 2.3M22.98 9.2H2.021C.905 9.2 0 10.115 0 11.245v5.11c0 1.13.905 2.045 2.02 2.045h20.96c1.115 0 2.02-.915 2.02-2.045v-5.11c0-1.13-.905-2.045-2.02-2.045"/>
            <path fill="#006CB0" d="M22.727 9.2H2.273l1.335-7.303A3.388 3.388 0 0 1 6.641 0H18.36c1.284 0 2.458.735 3.033 1.897L22.727 9.2z"/>
            <mask id="b" fill="#fff">
                <use xlink:href="#a"/>
            </mask>
            <path fill="#006CB0" d="M2.273 23h4.545v-4.6H2.273zM18.182 23h4.545v-4.6h-4.545z" mask="url(#b)"/>
            <path fill="#F2C85B" d="M15.91 10.35c0 1.906-1.527 3.45-3.41 3.45-1.883 0-3.41-1.544-3.41-3.45 0-1.906 2.274-4.37 3.41-6.67 1.136 2.3 3.41 4.764 3.41 6.67" mask="url(#b)"/>
            <path fill="#FEFEFE" d="M6.818 13.8c0 1.27-1.018 2.3-2.273 2.3-1.255 0-2.272-1.03-2.272-2.3 0-1.27 1.017-2.3 2.272-2.3s2.273 1.03 2.273 2.3M22.727 13.8c0 1.27-1.017 2.3-2.272 2.3s-2.273-1.03-2.273-2.3c0-1.27 1.018-2.3 2.273-2.3 1.255 0 2.272 1.03 2.272 2.3" mask="url(#b)"/>
        </g>
    </g>
</svg>
