<svg xmlns="http://www.w3.org/2000/svg" width="45" height="45" viewBox="0 0 45 45">
    <g fill="none" fill-rule="evenodd">
        <path fill="#FEFEFE" d="M11.939 33.106H33.06V20.114H11.94z"/>
        <path fill="#F2C85B" d="M16.167 24.493h2.067v-2.05h-2.067zM26.502 24.493h2.067v-2.05h-2.067zM21.335 24.493h2.067v-2.05h-2.067zM16.167 30.642h2.067v-2.05h-2.067zM26.502 30.642h2.067v-2.05h-2.067z"/>
        <path fill="#006CB0" d="M21.335 33.718h2.067v-7.972h-2.067z"/>
        <path fill="#006CB0" d="M11 33.717h20.669v-2.05H11zM11 27.568h20.669v-2.05H11z"/>
        <path fill="#006CB0" d="M31.67 19.368H11V33.718h2.067v-12.3h18.602v12.3h2.067v-14.35z"/>
        <path fill="#006CB0" d="M11 35.767h2.067v-2.05H11zM31.669 35.767h2.067v-2.05h-2.067zM28.235 19.474h2.347v-2.327h-2.347zM14.154 19.474h11.735v-2.327H14.154z"/>
        <path fill="#006CB0" d="M26.28 9c-1.513 0-2.739 1.215-2.739 2.715v1.358h1.37v-1.358c0-.75.613-1.357 1.368-1.357.757 0 1.37.608 1.37 1.357v7.76h1.369v-7.76c0-1.5-1.226-2.715-2.739-2.715"/>
    </g>
</svg>
