<svg xmlns="http://www.w3.org/2000/svg" xmlns:xlink="http://www.w3.org/1999/xlink" width="45" height="45" viewBox="0 0 45 45">
    <defs>
        <path id="a" d="M0 0h23v8.085H0z"/>
        <path id="c" d="M0 0h6.273v6.064H0z"/>
    </defs>
    <g fill="none" fill-rule="evenodd">
        <circle cx="22.5" cy="22.5" r="18.5" fill="#D3D3D3"/>
        <g transform="translate(11 23.915)">
            <mask id="b" fill="#fff">
                <use xlink:href="#a"/>
            </mask>
            <path fill="#006CB0" d="M0 6.139V5.44c0-.843.537-1.598 1.35-1.9L10.873 0h1.254l9.552 3.551C22.475 3.847 23 4.586 23 5.411v.728c0 1.075-.902 1.946-2.014 1.946H2.014C.902 8.085 0 7.214 0 6.14" mask="url(#b)"/>
        </g>
        <path fill="#F2C85B" d="M12.255 29.735v-.299c0-.409.245-.78.628-.953l9.178-3.355h.878l9.178 3.355c.383.173.628.544.628.953v.3c0 .58-.487 1.051-1.088 1.051H13.343c-.601 0-1.088-.47-1.088-1.052"/>
        <path fill="#006CB0" d="M23.127 23.915h-1.254v-4.851c0-.67.561-1.213 1.254-1.213v6.064z"/>
        <g transform="translate(19.364 13)">
            <mask id="d" fill="#fff">
                <use xlink:href="#c"/>
            </mask>
            <path fill="#006CB0" d="M2.76.021C1.347.181.202 1.281.025 2.646c-.044.343-.028.677.038.992h.09A1.16 1.16 0 0 0 1.29 2.69a1.866 1.866 0 0 1 1.534-1.453c1.284-.2 2.377.857 2.17 2.098-.114.685-.648 1.254-1.338 1.445-.147.04-.292.063-.432.07a.736.736 0 0 0-.714.725v.428c.327.064.672.08 1.027.037 1.412-.172 2.55-1.278 2.715-2.644C6.487 1.436 4.787-.207 2.76.02" mask="url(#d)"/>
        </g>
    </g>
</svg>
