<svg xmlns="http://www.w3.org/2000/svg" width="45" height="45" viewBox="0 0 45 45">
    <g fill="none" fill-rule="evenodd">
        <circle cx="22.5" cy="22.5" r="18.5" fill="#D3D3D3"/>
        <path fill="#006CB0" d="M13 23.2L20.6 34h3.8L32 23.2z"/>
        <path fill="#006CB0" d="M13 31.5h19v-1H13zM13 29h19v-1H13z"/>
        <path fill="#F2C85B" d="M22.5 31.146L19.813 28.6l2.687-2.546 2.687 2.546z"/>
        <path fill="#006CB0" d="M13 23.2h7.6L16.8 16zM24.4 23.2H32L28.2 16z"/>
        <path fill="#F2C85B" d="M25.667 15.8c0 1.657-1.418 3-3.167 3-1.749 0-3.167-1.343-3.167-3S21.444 12 22.5 10c1.056 2 3.167 4.143 3.167 5.8"/>
    </g>
</svg>
