<svg xmlns="http://www.w3.org/2000/svg" xmlns:xlink="http://www.w3.org/1999/xlink" width="45" height="45" viewBox="0 0 45 45">
    <defs>
        <path id="a" d="M0 .249h26.757v27.3H0z"/>
    </defs>
    <g fill="none" fill-rule="evenodd">
        <path fill="#F2C85B" d="M14.554 29.489l1.565 1.596-1.565 1.596-1.565-1.596z"/>
        <path fill="#FEFEFE" d="M34.55 23.102c0 6.859-5.45 12.419-12.172 12.419s-12.172-5.56-12.172-12.42c0-6.858 5.45-12.419 12.172-12.419 6.723 0 12.172 5.56 12.172 12.42"/>
        <path fill="#006CB0" d="M29.42 15.916l-6.26 9.58-3.13-3.192z"/>
        <path fill="#006CB0" d="M20.031 25.497v-3.194l3.13 3.194z"/>
        <path fill="#006CB0" d="M13.771 31.883c-4.753-4.85-4.753-12.713 0-17.563a12.002 12.002 0 0 1 17.214 0c4.754 4.85 4.754 12.713 0 17.563a12.002 12.002 0 0 1-17.214 0M31.838 13.45a13.19 13.19 0 0 0-18.92 0c-5.224 5.33-5.224 13.973 0 19.304a13.19 13.19 0 0 0 18.92 0c5.225-5.331 5.225-13.974 0-19.304"/>
        <g transform="translate(9 9.203)">
            <mask id="b" fill="#fff">
                <use xlink:href="#a"/>
            </mask>
            <path fill="#006CB0" d="M23.1 17.61c-.87-.749-2.28-.749-3.148 0l-.857.738c-.87.75-2.278.75-3.148 0l-.856-.738c-.87-.749-2.279-.749-3.148 0l-.857.738c-.869.75-2.278.75-3.147 0l-.857-.738c-.869-.749-2.278-.749-3.148 0l-1.481 1.277a12.374 12.374 0 0 1-1.045-4.989c0-6.745 5.36-12.213 11.97-12.213 6.611 0 11.97 5.468 11.97 12.213 0 1.71-.346 3.338-.967 4.816L23.1 17.61zM13.378.25C5.99.249 0 6.359 0 13.899c0 2.308.563 4.48 1.555 6.387 2.246 4.32 6.697 7.262 11.823 7.262 5.275 0 9.835-3.116 12.014-7.641a13.82 13.82 0 0 0 1.365-6.009c0-7.538-5.99-13.65-13.379-13.65z" mask="url(#b)"/>
        </g>
        <path fill="#006CB0" d="M22.41 12.278c-.446 0-.81.37-.81.826 0 .456.364.826.81.826.448 0 .81-.37.81-.826a.818.818 0 0 0-.81-.826M28.704 15.422a.838.838 0 0 0 0 1.168.798.798 0 0 0 1.145 0 .838.838 0 0 0 0-1.168.798.798 0 0 0-1.145 0M14.973 15.422a.838.838 0 0 0 0 1.168.798.798 0 0 0 1.145 0 .838.838 0 0 0 0-1.168.798.798 0 0 0-1.145 0M32.093 18.817a.804.804 0 0 0-1.061-.438.833.833 0 0 0-.43 1.084c.176.42.651.616 1.063.437a.832.832 0 0 0 .428-1.083M18.3 13.131a.832.832 0 0 0-.428 1.083c.174.42.65.617 1.062.438a.833.833 0 0 0 .429-1.083.804.804 0 0 0-1.062-.438M26.351 13.06a.804.804 0 0 0-1.054.456.832.832 0 0 0 .447 1.076.805.805 0 0 0 1.055-.457.832.832 0 0 0-.448-1.076M13.712 18.533a.804.804 0 0 0-1.054.457.832.832 0 0 0 .447 1.076.805.805 0 0 0 1.054-.457.832.832 0 0 0-.447-1.076"/>
        <path fill="#F2C85B" d="M19.059 31.908c0 2.494-1.982 4.516-4.427 4.516-2.444 0-4.426-2.022-4.426-4.516s2.951-5.72 4.426-8.731c1.476 3.01 4.427 6.237 4.427 8.731"/>
    </g>
</svg>
