<svg xmlns="http://www.w3.org/2000/svg" width="45" height="45" viewBox="0 0 45 45">
    <g fill="none" fill-rule="evenodd">
        <path fill="#FEFEFE" d="M11.945 20.183V36h20.949V20.183L22.419 11.25z"/>
        <path fill="#006CB0" d="M11.945 36h20.949v-1.125H11.945z"/>
        <path fill="#006CB0" d="M14.273 36h1.164v-2.25h-1.164zM18.056 36h1.163v-2.25h-1.163zM21.838 36H23v-2.25h-1.163zM25.62 36h1.164v-2.25H25.62zM29.402 36h1.164v-2.25h-1.164z"/>
        <path fill="#F2C85B" d="M26.83 27.832c0 2.184-1.974 4.351-4.408 4.351s-4.408-1.77-4.408-3.956c0-3.296 2.805-6.922 6.41-10.91-.8 4.713 2.405 6.493 2.405 10.515"/>
        <path fill="#F2C85B" d="M22.221 32.183c-2.333 0-4.607-2.166-4.607-4.351 0-2.934 1.151-4.714 2.303-7.252-.768 4.713 7.313 3.23 7.313 7.252 0 2.538-2.547 4.489-5.009 4.351"/>
        <path fill="#F2C85B" d="M22.422 28.59c0-2.71 1.102-5.835 3.305-8.735-.734 3.988 1.503 3.23 1.503 7.977"/>
        <path fill="#006CB0" d="M24.826 28.738c0 1.503-1.04 2.72-2.324 2.72-1.284 0-2.324-1.217-2.324-2.72 0-1.502 1.549-3.444 2.324-5.258.775 1.814 2.324 3.756 2.324 5.258"/>
        <path fill="#006CB0" d="M35.84 21.972L22.42 9 9 21.972h2.946V32.4h2.327V19.807l8.147-7.875 8.146 7.875V32.4h2.328V21.972z"/>
    </g>
</svg>
