<svg xmlns="http://www.w3.org/2000/svg" xmlns:xlink="http://www.w3.org/1999/xlink" width="45" height="45" viewBox="0 0 45 45">
    <defs>
        <path id="a" d="M0 .379h26.615V26.55H0z"/>
        <path id="c" d="M0 .379h26.615V26.55H0z"/>
    </defs>
    <g fill="none" fill-rule="evenodd">
        <g transform="translate(9 9.071)">
            <mask id="b" fill="#fff">
                <use xlink:href="#a"/>
            </mask>
            <path fill="#FEFEFE" d="M26.615 13.464c0 7.227-5.959 13.086-13.308 13.086C5.957 26.55 0 20.691 0 13.464S5.958.38 13.307.38c7.35 0 13.308 5.858 13.308 13.085" mask="url(#b)"/>
        </g>
        <g transform="translate(9 9.071)">
            <mask id="d" fill="#fff">
                <use xlink:href="#c"/>
            </mask>
            <path fill="#006CB0" d="M22.977 17.023c-.865-.719-2.266-.719-3.131 0l-.852.707c-.865.718-2.266.718-3.131 0l-.852-.707c-.865-.719-2.267-.719-3.131 0l-.852.707c-.865.718-2.267.718-3.131 0l-.852-.707c-.865-.719-2.267-.719-3.131 0L2.44 18.247A11.502 11.502 0 0 1 1.4 13.465c0-6.467 5.33-11.709 11.906-11.709 6.576 0 11.907 5.242 11.907 11.709 0 1.639-.344 3.199-.963 4.616l-1.274-1.058zM13.307.379C5.958.379 0 6.238 0 13.465c0 2.212.561 4.296 1.547 6.123 2.234 4.14 6.661 6.962 11.76 6.962 5.247 0 9.783-2.987 11.95-7.325a12.848 12.848 0 0 0 1.358-5.76c0-7.227-5.958-13.086-13.308-13.086z" mask="url(#d)"/>
        </g>
        <path fill="#006CB0" d="M22.316 11.841a.83.83 0 0 0-.837.824.83.83 0 0 0 .837.823.83.83 0 0 0 .838-.823.83.83 0 0 0-.838-.824M28.823 14.973a.814.814 0 0 0 0 1.165.848.848 0 0 0 1.184 0 .814.814 0 0 0 0-1.165.847.847 0 0 0-1.184 0M14.626 14.973a.814.814 0 0 0 0 1.165.848.848 0 0 0 1.184 0 .814.814 0 0 0 0-1.165.847.847 0 0 0-1.184 0M32.327 18.357a.842.842 0 0 0-1.097-.436.818.818 0 0 0-.444 1.08.843.843 0 0 0 1.098.435.818.818 0 0 0 .443-1.08M18.067 12.691a.818.818 0 0 0-.444 1.08.843.843 0 0 0 1.099.436.818.818 0 0 0 .443-1.08.842.842 0 0 0-1.098-.436M26.39 12.62a.842.842 0 0 0-1.09.455.818.818 0 0 0 .463 1.072.843.843 0 0 0 1.09-.455.82.82 0 0 0-.462-1.072M13.322 18.074a.842.842 0 0 0-1.09.456.818.818 0 0 0 .463 1.072.843.843 0 0 0 1.09-.456.82.82 0 0 0-.463-1.072"/>
        <path fill="#F2C85B" d="M26.633 13.413l-2.47 9.973-3.711-1.701z"/>
        <path fill="#F2C85B" d="M21.442 24.36l-.99-2.675 3.71 1.701z"/>
        <path fill="#FEFEFE" d="M19.236 30.588c0 .556-.458 1.007-1.023 1.007-.566 0-1.024-.451-1.024-1.007 0-.556.458-1.006 1.024-1.006.565 0 1.023.45 1.023 1.006M23.331 30.588c0 .556-.458 1.007-1.024 1.007-.565 0-1.024-.451-1.024-1.007 0-.556.459-1.006 1.024-1.006.566 0 1.024.45 1.024 1.006M27.426 30.588c0 .556-.459 1.007-1.024 1.007-.566 0-1.024-.451-1.024-1.007 0-.556.458-1.006 1.024-1.006.565 0 1.024.45 1.024 1.006"/>
    </g>
</svg>
