<svg xmlns="http://www.w3.org/2000/svg" xmlns:xlink="http://www.w3.org/1999/xlink" width="45" height="45" viewBox="0 0 45 45">
    <defs>
        <path id="a" d="M0 .38h26.615v26.17H0z"/>
        <path id="c" d="M0 .38h26.615v26.17H0z"/>
        <path id="e" d="M0 26.621h26.615V.45H0z"/>
    </defs>
    <g fill="none" fill-rule="evenodd" transform="translate(9 9)">
        <g transform="translate(0 .071)">
            <mask id="b" fill="#fff">
                <use xlink:href="#a"/>
            </mask>
            <path fill="#FEFEFE" d="M26.615 13.465c0 7.227-5.959 13.085-13.308 13.085C5.957 26.55 0 20.692 0 13.465 0 6.237 5.958.379 13.307.379c7.35 0 13.308 5.858 13.308 13.086" mask="url(#b)"/>
        </g>
        <g transform="translate(0 .071)">
            <mask id="d" fill="#fff">
                <use xlink:href="#c"/>
            </mask>
            <path fill="#006CB0" d="M22.977 17.023c-.865-.718-2.266-.718-3.131 0l-.852.707c-.865.719-2.266.719-3.131 0l-.852-.707c-.865-.718-2.267-.718-3.131 0l-.852.707c-.865.719-2.267.719-3.131 0l-.852-.707c-.865-.718-2.267-.718-3.131 0L2.44 18.246A11.5 11.5 0 0 1 1.4 13.465c0-6.467 5.33-11.709 11.906-11.709 6.576 0 11.907 5.242 11.907 11.709 0 1.639-.344 3.2-.963 4.616l-1.274-1.058zM13.307.379C5.958.38 0 6.237 0 13.465c0 2.212.561 4.295 1.547 6.122 2.234 4.141 6.661 6.963 11.76 6.963 5.247 0 9.783-2.987 11.95-7.325a12.848 12.848 0 0 0 1.358-5.76c0-7.228-5.958-13.086-13.308-13.086z" mask="url(#d)"/>
        </g>
        <path fill="#006CB0" d="M13.316 2.841a.83.83 0 0 0-.837.823.83.83 0 0 0 .837.824.83.83 0 0 0 .838-.824.83.83 0 0 0-.838-.823M19.823 5.974a.813.813 0 0 0 0 1.164.847.847 0 0 0 1.184 0 .813.813 0 0 0 0-1.164.847.847 0 0 0-1.184 0M5.626 5.974a.814.814 0 0 0 0 1.164.847.847 0 0 0 1.184 0 .814.814 0 0 0 0-1.164.847.847 0 0 0-1.184 0M23.327 9.357a.842.842 0 0 0-1.097-.437.819.819 0 0 0-.444 1.08.842.842 0 0 0 1.098.436.817.817 0 0 0 .443-1.079M9.067 3.691a.819.819 0 0 0-.444 1.08.842.842 0 0 0 1.099.436.818.818 0 0 0 .443-1.08.842.842 0 0 0-1.098-.436M17.39 3.62a.842.842 0 0 0-1.09.455.819.819 0 0 0 .463 1.072.843.843 0 0 0 1.09-.455.819.819 0 0 0-.462-1.072M4.322 9.074a.841.841 0 0 0-1.09.455.818.818 0 0 0 .463 1.072.843.843 0 0 0 1.09-.455.82.82 0 0 0-.463-1.072"/>
        <mask id="f" fill="#fff">
            <use xlink:href="#e"/>
        </mask>
        <path fill="#FEFEFE" d="M12.62 12.3h1.374V6.9H12.62z" mask="url(#f)"/>
        <path fill="#006CB0" d="M9.875 15h1.373v-1.35H9.875zM15.367 15h1.373v-1.35h-1.373zM9.875 12.3h1.373v-1.35H9.875zM15.367 12.3h1.373v-1.35h-1.373zM16.74 19.726c0 1.864-1.537 3.375-3.433 3.375s-3.432-1.51-3.432-3.375c0-1.864 1.536-3.375 3.432-3.375s3.433 1.51 3.433 3.375" mask="url(#f)"/>
        <path fill="#006CB0" d="M13.994 8.25v4.05H12.62V8.25v-.005c0-.373.307-.675.686-.675.38 0 .687.302.687.675v.006zm1.372 0v-.005c0-1.118-.922-2.025-2.06-2.025-1.136 0-2.058.907-2.058 2.025V19.051h1.372v-5.4h1.373v5.4h1.374V8.25z" mask="url(#f)"/>
        <path fill="#F2C85B" d="M15.367 19.726c0 1.118-.922 2.025-2.06 2.025-1.137 0-2.059-.907-2.059-2.025 0-1.118.922-2.025 2.06-2.025 1.137 0 2.059.907 2.059 2.025" mask="url(#f)"/>
        <path fill="#F2C85B" d="M12.62 19.05h1.374V12.3H12.62z" mask="url(#f)"/>
    </g>
</svg>
