<svg xmlns="http://www.w3.org/2000/svg" width="45" height="45" viewBox="0 0 45 45">
    <g fill="none" fill-rule="evenodd">
        <path fill="#006CB0" d="M34.554 15.75c0 3.728-2.999 6.75-6.697 6.75s-6.696-3.022-6.696-6.75S24.159 9 27.857 9c3.698 0 6.697 3.022 6.697 6.75"/>
        <path fill="#F2C85B" d="M33.066 15.75c0 2.9-2.333 5.25-5.209 5.25-2.876 0-5.208-2.35-5.208-5.25s2.332-5.25 5.208-5.25c2.876 0 5.209 2.35 5.209 5.25"/>
        <path fill="#006CB0" d="M30.09 19.731H28.5a4.607 4.607 0 0 0-3.411 1.558c-.502 0-.753-.625-.382-.966a5.441 5.441 0 0 1 3.645-1.444c-.729-3.085-3.48-5.38-6.763-5.38-3.84 0-6.954 3.14-6.954 7.01 0 .264.016.524.043.78h-1.168c-1.939 0-3.511 1.584-3.511 3.539v.71c0 1.955 1.572 3.54 3.51 3.54h16.58c2.56 0 4.636-2.093 4.636-4.674 0-2.58-2.076-4.673-4.636-4.673M14.796 35.955a.751.751 0 0 1-.444-.962l1.17-3.242c.14-.389.567-.59.954-.448a.752.752 0 0 1 .445.961l-1.171 3.243a.743.743 0 0 1-.954.448M19.171 35.955a.751.751 0 0 1-.445-.962l1.17-3.242c.141-.389.568-.59.954-.448a.752.752 0 0 1 .445.961l-1.17 3.243a.743.743 0 0 1-.954.448M23.545 35.955a.752.752 0 0 1-.444-.962l1.17-3.242c.14-.389.568-.59.954-.448a.752.752 0 0 1 .445.961l-1.171 3.243a.743.743 0 0 1-.954.448M27.92 35.955a.752.752 0 0 1-.445-.962l1.17-3.242c.141-.389.568-.59.955-.448a.752.752 0 0 1 .444.961l-1.17 3.243a.744.744 0 0 1-.954.448"/>
    </g>
</svg>
