<svg xmlns="http://www.w3.org/2000/svg" xmlns:xlink="http://www.w3.org/1999/xlink" width="45" height="45" viewBox="0 0 45 45">
    <defs>
        <path id="a" d="M0 .25h21.551v24.295H.001z"/>
    </defs>
    <g fill="none" fill-rule="evenodd">
        <g transform="translate(12 10.205)">
            <mask id="b" fill="#fff">
                <use xlink:href="#a"/>
            </mask>
            <path fill="#006CB0" d="M13.57.25a.34.34 0 0 0-.013.021C11.447 8.79 6.537 15.946.006 20.978a.16.16 0 0 0-.006.01 12.67 12.67 0 0 0 6.271 3.293c6.87 1.41 13.592-2.969 15.014-9.782C22.553 8.427 19.182 2.472 13.57.25" mask="url(#b)"/>
        </g>
        <path fill="#F2C85B" d="M25.557 10.476c-13.545 20.697.004-.007-13.55 20.707 6.53-5.032 11.44-12.19 13.55-20.707M16.775 13.56a.592.592 0 0 1-1.007-.414.58.58 0 0 1 .172-.413 1.767 1.767 0 0 0-1.524 0 .581.581 0 0 1 .172.413.593.593 0 1 1-1.007.415 1.733 1.733 0 0 0 0 1.51.593.593 0 0 1 1.007.416.582.582 0 0 1-.172.413 1.765 1.765 0 0 0 1.524 0 .58.58 0 0 1-.172-.413.592.592 0 1 1 1.006-.415 1.734 1.734 0 0 0 0-1.511"/>
    </g>
</svg>
