<svg xmlns="http://www.w3.org/2000/svg" xmlns:xlink="http://www.w3.org/1999/xlink" width="45" height="45" viewBox="0 0 45 45">
    <defs>
        <path id="a" d="M.235.332h2.35V2.7H.235z"/>
        <path id="c" d="M.258.332h2.35V2.7H.258z"/>
        <path id="e" d="M0 .332h2.35V2.7H0z"/>
        <path id="g" d="M.023.332h2.35V2.7H.023z"/>
    </defs>
    <g fill="none" fill-rule="evenodd">
        <g transform="translate(16.696 33.3)">
            <mask id="b" fill="#fff">
                <use xlink:href="#a"/>
            </mask>
            <path fill="#006CB0" d="M2.469 1.006a.39.39 0 0 1-.276.115.396.396 0 1 1-.278-.673 1.156 1.156 0 0 0-1.01 0 .396.396 0 0 1-.279.673.39.39 0 0 1-.275-.115 1.185 1.185 0 0 0 0 1.02.386.386 0 0 1 .275-.115c.217 0 .392.176.392.394a.396.396 0 0 1-.114.279 1.164 1.164 0 0 0 1.011 0 .396.396 0 0 1 .278-.673c.108 0 .205.043.276.115a1.189 1.189 0 0 0 0-1.02" mask="url(#b)"/>
        </g>
        <path fill="#006CB0" d="M20.575 31.464a.388.388 0 0 1-.276.115.396.396 0 1 1-.278-.673 1.164 1.164 0 0 0-1.01 0 .396.396 0 0 1-.278.673.388.388 0 0 1-.276-.115 1.189 1.189 0 0 0 0 1.02.386.386 0 0 1 .276-.116c.216 0 .391.177.391.395a.397.397 0 0 1-.114.279 1.162 1.162 0 0 0 1.012 0 .397.397 0 0 1-.114-.279c0-.218.175-.395.391-.395.108 0 .206.044.276.116a1.189 1.189 0 0 0 0-1.02M25.274 31.464a.388.388 0 0 1-.275.115.396.396 0 1 1-.278-.673 1.164 1.164 0 0 0-1.011 0 .396.396 0 0 1-.278.673.388.388 0 0 1-.276-.115 1.189 1.189 0 0 0 0 1.02.386.386 0 0 1 .276-.116c.216 0 .392.177.392.395a.397.397 0 0 1-.114.279 1.162 1.162 0 0 0 1.01 0 .397.397 0 0 1-.113-.279c0-.218.175-.395.392-.395.107 0 .205.044.275.116a1.189 1.189 0 0 0 0-1.02"/>
        <g transform="translate(26.071 33.3)">
            <mask id="d" fill="#fff">
                <use xlink:href="#c"/>
            </mask>
            <path fill="#006CB0" d="M2.492 1.006a.39.39 0 0 1-.275.115.396.396 0 1 1-.278-.673 1.156 1.156 0 0 0-1.011 0 .396.396 0 0 1-.278.673.39.39 0 0 1-.276-.115 1.185 1.185 0 0 0 0 1.02.386.386 0 0 1 .276-.115c.216 0 .392.176.392.394a.396.396 0 0 1-.114.279 1.164 1.164 0 0 0 1.01 0 .396.396 0 0 1 .279-.673c.107 0 .205.043.275.115a1.189 1.189 0 0 0 0-1.02" mask="url(#d)"/>
        </g>
        <g transform="translate(12.232 33.3)">
            <mask id="f" fill="#fff">
                <use xlink:href="#e"/>
            </mask>
            <path fill="#006CB0" d="M2.234 1.006a.39.39 0 0 1-.276.115.396.396 0 1 1-.278-.673 1.154 1.154 0 0 0-1.01 0c.07.071.113.17.113.278a.39.39 0 1 1-.667.28 1.185 1.185 0 0 0 0 1.02.386.386 0 0 1 .275-.115.395.395 0 1 1 .278.673 1.164 1.164 0 0 0 1.011 0 .396.396 0 0 1 .278-.673c.108 0 .205.043.276.115a1.182 1.182 0 0 0 0-1.02" mask="url(#f)"/>
        </g>
        <path fill="#006CB0" d="M15.876 31.464a.388.388 0 0 1-.276.115.396.396 0 1 1-.278-.673 1.164 1.164 0 0 0-1.01 0 .396.396 0 0 1-.278.673.388.388 0 0 1-.276-.115 1.189 1.189 0 0 0 0 1.02.386.386 0 0 1 .276-.116c.216 0 .391.177.391.395a.397.397 0 0 1-.114.279 1.162 1.162 0 0 0 1.011 0 .397.397 0 0 1-.113-.279c0-.218.175-.395.391-.395.108 0 .205.044.276.116a1.189 1.189 0 0 0 0-1.02M29.974 31.464a.389.389 0 0 1-.276.115.393.393 0 0 1-.392-.395c0-.108.044-.206.114-.278a1.164 1.164 0 0 0-1.011 0 .396.396 0 0 1-.278.673.388.388 0 0 1-.276-.115 1.182 1.182 0 0 0 0 1.02.386.386 0 0 1 .276-.116c.216 0 .392.177.392.395a.397.397 0 0 1-.114.279 1.16 1.16 0 0 0 1.011 0 .396.396 0 0 1 .278-.674c.107 0 .205.044.276.116a1.189 1.189 0 0 0 0-1.02"/>
        <g transform="translate(21.607 33.3)">
            <mask id="h" fill="#fff">
                <use xlink:href="#g"/>
            </mask>
            <path fill="#006CB0" d="M2.257 1.006a.39.39 0 0 1-.275.115.396.396 0 1 1-.278-.673 1.156 1.156 0 0 0-1.011 0 .396.396 0 0 1-.278.673.39.39 0 0 1-.276-.115 1.185 1.185 0 0 0 0 1.02.386.386 0 0 1 .276-.115c.216 0 .392.176.392.394a.396.396 0 0 1-.114.279 1.164 1.164 0 0 0 1.01 0 .396.396 0 0 1 .279-.673c.107 0 .205.043.275.115a1.189 1.189 0 0 0 0-1.02" mask="url(#h)"/>
        </g>
        <path fill="#006CB0" d="M34.554 15.75c0 3.728-2.999 6.75-6.697 6.75s-6.696-3.022-6.696-6.75S24.159 9 27.857 9c3.698 0 6.697 3.022 6.697 6.75"/>
        <path fill="#F2C85B" d="M33.066 15.75c0 2.9-2.333 5.25-5.209 5.25-2.876 0-5.208-2.35-5.208-5.25s2.332-5.25 5.208-5.25c2.876 0 5.209 2.35 5.209 5.25"/>
        <path fill="#006CB0" d="M30.09 19.731H28.5a4.607 4.607 0 0 0-3.411 1.558c-.502 0-.753-.625-.382-.966a5.441 5.441 0 0 1 3.645-1.444c-.729-3.085-3.48-5.38-6.763-5.38-3.84 0-6.954 3.14-6.954 7.01 0 .264.016.524.043.78h-1.168c-1.939 0-3.511 1.584-3.511 3.539v.71c0 1.955 1.572 3.54 3.51 3.54h16.58c2.56 0 4.636-2.093 4.636-4.674 0-2.58-2.076-4.673-4.636-4.673"/>
    </g>
</svg>
