<svg xmlns="http://www.w3.org/2000/svg" width="45" height="45" viewBox="0 0 45 45">
    <g fill="none" fill-rule="evenodd">
        <path fill="#006CB0" d="M34 16c0 3.866-2.91 7-6.5 7S21 19.866 21 16s2.91-7 6.5-7 6.5 3.134 6.5 7"/>
        <path fill="#F2C85B" d="M33 15.5c0 3.037-2.239 5.5-5 5.5s-5-2.463-5-5.5 2.239-5.5 5-5.5 5 2.463 5 5.5"/>
        <path fill="#006CB0" d="M30.312 19.4H28.75l-.044.001c-1.37.013-2.6.628-3.449 1.6-.507 0-.76-.643-.386-.993a5.456 5.456 0 0 1 3.686-1.483C27.819 15.357 25.039 13 21.719 13c-3.884 0-7.031 3.224-7.031 7.2 0 .27.015.537.043.8H13.55C11.59 21 10 22.627 10 24.635v.73C10 27.373 11.59 29 13.55 29h16.762C32.902 29 35 26.85 35 24.2c0-2.651-2.099-4.8-4.688-4.8M14.553 35.952c-.436-.15-.661-.603-.502-1.014l1.32-3.418c.159-.41.64-.621 1.076-.472.436.15.66.603.502 1.013l-1.32 3.419c-.16.41-.641.621-1.076.472M19.553 35.952c-.436-.15-.661-.603-.502-1.014l1.32-3.418c.159-.41.64-.621 1.076-.472.436.15.66.603.502 1.013l-1.32 3.419c-.16.41-.641.621-1.076.472M23.553 35.952c-.436-.15-.66-.603-.502-1.014l1.32-3.418c.159-.41.64-.621 1.076-.472.436.15.66.603.502 1.013l-1.32 3.419c-.16.41-.64.621-1.076.472M27.553 35.952c-.436-.15-.66-.603-.502-1.014l1.32-3.418c.16-.41.64-.621 1.077-.472.435.15.66.603.501 1.013l-1.32 3.419c-.16.41-.64.621-1.076.472"/>
    </g>
</svg>
