<svg xmlns="http://www.w3.org/2000/svg" width="45" height="45" viewBox="0 0 45 45">
    <g fill="none" fill-rule="evenodd">
        <path fill="#006CB0" d="M29.23 23.334H35v-1.667h-5.77zM10 23.334h5.77v-1.667H10zM21.667 15.77h1.667V10h-1.667zM21.667 35h1.667v-5.77h-1.667zM26.67 27.849l1.179-1.179 4.079 4.08-1.178 1.178zM13.072 14.25l1.179-1.178 4.079 4.08-1.178 1.178zM27.849 18.33L26.67 17.15l4.08-4.079 1.178 1.178zM14.25 31.928l-1.178-1.179 4.08-4.079 1.178 1.178z"/>
        <path fill="#006CB0" d="M32.727 22.5c0 5.648-4.579 10.227-10.227 10.227-5.648 0-10.227-4.579-10.227-10.227 0-5.648 4.579-10.227 10.227-10.227 5.648 0 10.227 4.579 10.227 10.227"/>
        <path fill="#F2C85B" d="M30.454 22.5a7.955 7.955 0 1 1-15.909 0 7.955 7.955 0 0 1 15.91 0"/>
    </g>
</svg>
