<svg xmlns="http://www.w3.org/2000/svg" xmlns:xlink="http://www.w3.org/1999/xlink" width="45" height="45" viewBox="0 0 45 45">
    <defs>
        <path id="a" d="M.284.185h25.662v16.66H.284z"/>
    </defs>
    <g fill="none" fill-rule="evenodd" transform="translate(9.016 13.096)">
        <mask id="b" fill="#fff">
            <use xlink:href="#a"/>
        </mask>
        <path fill="#006CB0" d="M21.134 6.849h-1.649c-1.407.015-2.668.654-3.54 1.666a.546.546 0 0 1-.298-.09c-.302-.193-.399-.658-.099-.943.306-.29.647-.542 1.01-.758a5.495 5.495 0 0 1 2.774-.786c-.757-3.3-3.611-5.753-7.019-5.753a7.02 7.02 0 0 0-1.042.086C7.78.798 5.096 3.91 5.096 7.681v.01c0 .45-.336.824-.77.824h-.398a3.564 3.564 0 0 0-2.578 1.11A3.847 3.847 0 0 0 .284 12.3v.76c0 2.09 1.632 3.785 3.644 3.785h17.206c2.657 0 4.812-2.238 4.812-4.998 0-2.76-2.155-4.998-4.812-4.998" mask="url(#b)"/>
    </g>
</svg>
