<svg xmlns="http://www.w3.org/2000/svg" xmlns:xlink="http://www.w3.org/1999/xlink" width="45" height="45" viewBox="0 0 45 45">
    <defs>
        <path id="a" d="M0 .155h24.726v15.841H0z"/>
    </defs>
    <g fill="none" fill-rule="evenodd">
        <path fill="#F2C85B" d="M17.055 27.672l-2.543 3.475h1.853l-.761 5.698 4.464-7.596h-1.851l.512-1.577z"/>
        <path fill="#006CB0" d="M18.147 27.672l-2.543 3.475h1.853l-1.853 5.698 5.557-7.596h-1.852l.512-1.577z"/>
        <path fill="#F2C85B" d="M23.751 27.672l-2.543 3.475h1.853l-.76 5.698 4.464-7.596h-1.852l.513-1.577z"/>
        <path fill="#006CB0" d="M24.844 27.672L22.3 31.147h1.853L22.3 36.845l5.557-7.596h-1.852l.513-1.577z"/>
        <g transform="translate(10 10.303)">
            <mask id="b" fill="#fff">
                <use xlink:href="#a"/>
            </mask>
            <path fill="#006CB0" d="M20.09 6.491h-1.545l-.044.001a4.577 4.577 0 0 0-3.411 1.583c-.502 0-.752-.635-.382-.981a5.393 5.393 0 0 1 3.645-1.47c-.729-3.136-3.48-5.47-6.763-5.47-3.84 0-6.954 3.192-6.954 7.13 0 .267.016.531.043.791H3.511C1.572 8.075 0 9.687 0 11.675v.722c0 1.988 1.572 3.6 3.51 3.6h16.58c2.56 0 4.636-2.129 4.636-4.753 0-2.625-2.076-4.753-4.636-4.753" mask="url(#b)"/>
        </g>
    </g>
</svg>
