<svg xmlns="http://www.w3.org/2000/svg" xmlns:xlink="http://www.w3.org/1999/xlink" width="45" height="45" viewBox="0 0 45 45">
    <defs>
        <path id="a" d="M.235.34h2.35v2.42H.235z"/>
        <path id="c" d="M.258.34h2.35v2.42H.258z"/>
        <path id="e" d="M0 .34h2.35v2.42H0z"/>
        <path id="g" d="M.023.34h2.35v2.42H.023z"/>
        <path id="i" d="M0 0h24.726v15.924H0z"/>
    </defs>
    <g fill="none" fill-rule="evenodd">
        <g transform="translate(16.696 31.24)">
            <mask id="b" fill="#fff">
                <use xlink:href="#a"/>
            </mask>
            <path fill="#006CB0" d="M2.469 1.029a.385.385 0 0 1-.276.117.398.398 0 0 1-.392-.403c0-.111.044-.212.114-.285a1.135 1.135 0 0 0-1.01 0c.07.073.113.174.113.285a.398.398 0 0 1-.392.403.385.385 0 0 1-.275-.117 1.234 1.234 0 0 0 0 1.042.381.381 0 0 1 .275-.118c.217 0 .392.18.392.404a.41.41 0 0 1-.114.284 1.143 1.143 0 0 0 1.011 0 .41.41 0 0 1-.114-.284c0-.223.175-.404.392-.404.108 0 .205.044.276.118a1.238 1.238 0 0 0 0-1.042" mask="url(#b)"/>
        </g>
        <path fill="#006CB0" d="M20.575 29.363a.384.384 0 0 1-.276.118.398.398 0 0 1-.391-.404.41.41 0 0 1 .114-.284 1.143 1.143 0 0 0-1.012 0 .41.41 0 0 1 .114.284.398.398 0 0 1-.391.404.384.384 0 0 1-.276-.118 1.238 1.238 0 0 0 0 1.043.382.382 0 0 1 .276-.118c.216 0 .391.18.391.403 0 .111-.043.212-.114.285a1.141 1.141 0 0 0 1.012 0 .411.411 0 0 1-.114-.285c0-.223.175-.403.391-.403.108 0 .206.044.276.118a1.238 1.238 0 0 0 0-1.043M25.274 29.363a.384.384 0 0 1-.275.118.398.398 0 0 1-.392-.404.41.41 0 0 1 .114-.284 1.143 1.143 0 0 0-1.011 0 .41.41 0 0 1 .114.284.398.398 0 0 1-.392.404.384.384 0 0 1-.276-.118 1.238 1.238 0 0 0 0 1.043.382.382 0 0 1 .276-.118c.216 0 .392.18.392.403 0 .111-.044.212-.114.285a1.141 1.141 0 0 0 1.01 0 .411.411 0 0 1-.113-.285c0-.223.175-.403.392-.403.107 0 .205.044.275.118a1.238 1.238 0 0 0 0-1.043"/>
        <g transform="translate(26.071 31.24)">
            <mask id="d" fill="#fff">
                <use xlink:href="#c"/>
            </mask>
            <path fill="#006CB0" d="M2.492 1.029a.385.385 0 0 1-.275.117.398.398 0 0 1-.392-.403c0-.111.044-.212.114-.285a1.135 1.135 0 0 0-1.011 0c.07.073.114.174.114.285a.398.398 0 0 1-.392.403.385.385 0 0 1-.276-.117 1.234 1.234 0 0 0 0 1.042.381.381 0 0 1 .276-.118c.216 0 .392.18.392.404a.41.41 0 0 1-.114.284 1.143 1.143 0 0 0 1.01 0 .41.41 0 0 1-.113-.284c0-.223.175-.404.392-.404.107 0 .205.044.275.118a1.238 1.238 0 0 0 0-1.042" mask="url(#d)"/>
        </g>
        <g transform="translate(12.232 31.24)">
            <mask id="f" fill="#fff">
                <use xlink:href="#e"/>
            </mask>
            <path fill="#006CB0" d="M2.234 1.029a.385.385 0 0 1-.276.117.398.398 0 0 1-.392-.403c0-.111.044-.212.114-.285a1.133 1.133 0 0 0-1.01 0c.07.073.113.174.113.285a.398.398 0 0 1-.392.403.386.386 0 0 1-.275-.117 1.234 1.234 0 0 0 0 1.042.382.382 0 0 1 .275-.118c.217 0 .392.18.392.404 0 .11-.043.21-.114.284a1.143 1.143 0 0 0 1.011 0 .41.41 0 0 1-.114-.284c0-.223.175-.404.392-.404.108 0 .205.044.276.118a1.23 1.23 0 0 0 0-1.042" mask="url(#f)"/>
        </g>
        <path fill="#006CB0" d="M15.876 29.363a.384.384 0 0 1-.276.118.398.398 0 0 1-.391-.404.41.41 0 0 1 .113-.284 1.143 1.143 0 0 0-1.01 0 .41.41 0 0 1 .113.284.398.398 0 0 1-.391.404.384.384 0 0 1-.276-.118 1.238 1.238 0 0 0 0 1.043.382.382 0 0 1 .276-.118c.216 0 .391.18.391.403 0 .111-.044.212-.114.285a1.141 1.141 0 0 0 1.011 0 .411.411 0 0 1-.113-.285c0-.223.175-.403.391-.403.108 0 .205.044.276.118a1.238 1.238 0 0 0 0-1.043M29.974 29.363a.384.384 0 0 1-.276.118.398.398 0 0 1-.392-.404c0-.11.044-.211.114-.284a1.143 1.143 0 0 0-1.011 0 .41.41 0 0 1 .114.284.398.398 0 0 1-.392.404.384.384 0 0 1-.276-.118 1.23 1.23 0 0 0 0 1.043.382.382 0 0 1 .276-.118c.216 0 .392.18.392.403 0 .111-.044.212-.114.285a1.14 1.14 0 0 0 1.011 0 .409.409 0 0 1-.114-.285c0-.223.175-.403.392-.403.107 0 .205.044.276.118a1.238 1.238 0 0 0 0-1.043"/>
        <g transform="translate(21.607 31.24)">
            <mask id="h" fill="#fff">
                <use xlink:href="#g"/>
            </mask>
            <path fill="#006CB0" d="M2.257 1.029a.385.385 0 0 1-.275.117.398.398 0 0 1-.392-.403c0-.111.044-.212.114-.285a1.135 1.135 0 0 0-1.011 0c.07.073.114.174.114.285a.398.398 0 0 1-.392.403.385.385 0 0 1-.276-.117 1.234 1.234 0 0 0 0 1.042.381.381 0 0 1 .276-.118c.216 0 .392.18.392.404a.41.41 0 0 1-.114.284 1.143 1.143 0 0 0 1.01 0 .41.41 0 0 1-.113-.284c0-.223.175-.404.392-.404.107 0 .205.044.275.118a1.238 1.238 0 0 0 0-1.042" mask="url(#h)"/>
        </g>
        <g transform="translate(10 11)">
            <mask id="j" fill="#fff">
                <use xlink:href="#i"/>
            </mask>
            <path fill="#006CB0" d="M20.09 6.37H18.5a4.566 4.566 0 0 0-3.411 1.592c-.502 0-.752-.639-.382-.987a5.378 5.378 0 0 1 3.645-1.476c-.729-3.154-3.48-5.5-6.763-5.5-3.84 0-6.954 3.21-6.954 7.166 0 .27.016.535.043.797H3.511C1.572 7.962 0 9.582 0 11.579v.727c0 1.998 1.572 3.618 3.51 3.618h16.58c2.56 0 4.636-2.14 4.636-4.777 0-2.639-2.076-4.778-4.636-4.778" mask="url(#j)"/>
        </g>
    </g>
</svg>
