<svg xmlns="http://www.w3.org/2000/svg" xmlns:xlink="http://www.w3.org/1999/xlink" width="45" height="45" viewBox="0 0 45 45">
    <defs>
        <path id="a" d="M0 0h13.925v12.183H0z"/>
        <path id="c" d="M.274.175h24.71v15.734H.275z"/>
    </defs>
    <g fill="none" fill-rule="evenodd">
        <g transform="translate(8 12)">
            <mask id="b" fill="#fff">
                <use xlink:href="#a"/>
            </mask>
            <path fill="#006CB0" d="M6.855 11.134h.382c.42 0 .743-.352.743-.778v-.008c0-3.562 2.584-6.502 5.945-6.999C13.11 1.381 11.198 0 8.97 0 5.997 0 3.588 2.456 3.588 5.484c0 .206.012.409.034.609h-.905C1.217 6.092 0 7.332 0 8.86v.556c0 1.528 1.216 2.767 2.717 2.767h1.655a3.465 3.465 0 0 1 2.483-1.049" mask="url(#b)"/>
        </g>
        <g transform="translate(12.015 16.09)">
            <mask id="d" fill="#fff">
                <use xlink:href="#c"/>
            </mask>
            <path fill="#006CB0" d="M20.351 6.468h-1.544l-.044.001a4.584 4.584 0 0 0-3.409 1.573.533.533 0 0 1-.286-.086c-.292-.181-.385-.62-.096-.89.295-.274.623-.511.972-.715a5.37 5.37 0 0 1 2.672-.743C17.887 2.492 15.139.175 11.857.175c-.342 0-.675.033-1.004.081-3.361.498-5.946 3.437-5.946 6.999v.008c0 .427-.324.779-.742.779h-.382c-.97 0-1.848.4-2.483 1.049a3.597 3.597 0 0 0-1.026 2.525v.718c0 1.975 1.57 3.575 3.509 3.575H20.35c2.56 0 4.634-2.113 4.634-4.72 0-2.608-2.075-4.72-4.634-4.72" mask="url(#d)"/>
        </g>
    </g>
</svg>
