<svg xmlns="http://www.w3.org/2000/svg" xmlns:xlink="http://www.w3.org/1999/xlink" width="45" height="45" viewBox="0 0 45 45">
    <defs>
        <path id="a" d="M0 .218h3.478v3.513H0z"/>
        <path id="c" d="M.113 0h24.75v25H.113z"/>
    </defs>
    <g fill="none" fill-rule="evenodd">
        <g transform="translate(9 10)">
            <mask id="b" fill="#fff">
                <use xlink:href="#a"/>
            </mask>
            <path fill="#F2C85B" d="M3.307 1.219a.576.576 0 0 1-.41.17.582.582 0 0 1-.579-.585c0-.161.065-.307.17-.412a1.71 1.71 0 0 0-1.497 0c.104.105.169.25.169.412a.577.577 0 1 1-.989.415 1.764 1.764 0 0 0 0 1.512.577.577 0 0 1 .989.415.587.587 0 0 1-.17.412 1.706 1.706 0 0 0 1.497 0 .585.585 0 0 1-.169-.412c0-.323.26-.586.58-.586.16 0 .304.066.409.17a1.76 1.76 0 0 0 0-1.511" mask="url(#b)"/>
        </g>
        <g transform="translate(10.8 10)">
            <mask id="d" fill="#fff">
                <use xlink:href="#c"/>
            </mask>
            <path fill="#F2C85B" d="M24.863 12.5c0 6.904-5.541 12.5-12.375 12.5C5.653 25 .113 19.404.113 12.5S5.653 0 12.488 0c6.834 0 12.375 5.596 12.375 12.5" mask="url(#d)"/>
        </g>
        <path fill="#006CB0" d="M34.582 22.5c0 6.3-5.057 11.408-11.295 11.408-6.237 0-11.293-5.108-11.293-11.408s5.056-11.408 11.293-11.408c6.238 0 11.295 5.108 11.295 11.408"/>
    </g>
</svg>
