<svg xmlns="http://www.w3.org/2000/svg" xmlns:xlink="http://www.w3.org/1999/xlink" width="45" height="45" viewBox="0 0 45 45">
    <defs>
        <path id="a" d="M0 .345h7.481v7.378H0z"/>
        <path id="c" d="M.428.345h7.481v7.378H.428z"/>
    </defs>
    <g fill="none" fill-rule="evenodd">
        <path fill="#006CB0" d="M20.519 19.407l-7.457 1.97c-.52.138-.895.741-.895 1.442v8.51c0 .7.375 1.304.895 1.442l7.457 1.97a7.71 7.71 0 0 0 3.963 0l7.456-1.97c.52-.138.895-.742.895-1.443V22.82c0-.7-.374-1.304-.895-1.442l-7.456-1.97a7.71 7.71 0 0 0-3.963 0"/>
        <path fill="#F2C85B" d="M19.23 15.988a.345.345 0 0 1-.248.106.358.358 0 0 1-.352-.364c0-.1.039-.19.102-.256a1.013 1.013 0 0 0-.908 0 .37.37 0 0 1 .102.256.358.358 0 0 1-.352.364.346.346 0 0 1-.248-.106 1.12 1.12 0 0 0 0 .94.344.344 0 0 1 .248-.106c.195 0 .352.163.352.364 0 .1-.04.19-.102.256a1.023 1.023 0 0 0 .908 0 .37.37 0 0 1-.102-.256c0-.201.157-.364.352-.364.097 0 .184.04.248.106a1.12 1.12 0 0 0 0-.94M23.452 13.805a.345.345 0 0 1-.249.106.358.358 0 0 1-.35-.364c0-.1.038-.19.101-.257a1.024 1.024 0 0 0-.908 0 .37.37 0 0 1 .102.257.358.358 0 0 1-.352.364.345.345 0 0 1-.248-.106 1.118 1.118 0 0 0 0 .94.344.344 0 0 1 .248-.107c.195 0 .352.164.352.365 0 .1-.04.19-.102.256a1.024 1.024 0 0 0 .908 0 .37.37 0 0 1-.102-.256c0-.201.158-.365.351-.365.098 0 .185.041.249.107a1.12 1.12 0 0 0 0-.94M27.674 11.622a.346.346 0 0 1-.248.106.358.358 0 0 1-.352-.364c0-.1.04-.191.102-.257a1.023 1.023 0 0 0-.908 0 .37.37 0 0 1 .103.257.358.358 0 0 1-.353.364.345.345 0 0 1-.248-.106 1.116 1.116 0 0 0 0 .94.346.346 0 0 1 .248-.107c.195 0 .353.163.353.365 0 .1-.04.19-.103.256a1.02 1.02 0 0 0 .908 0 .37.37 0 0 1-.102-.256c0-.202.158-.365.352-.365.097 0 .185.041.248.106a1.118 1.118 0 0 0 0-.939M15.007 13.805a.345.345 0 0 1-.247.106.358.358 0 0 1-.352-.364c0-.1.039-.19.102-.257a1.024 1.024 0 0 0-.909 0 .368.368 0 0 1 .103.257.358.358 0 0 1-.352.364.345.345 0 0 1-.248-.106 1.118 1.118 0 0 0 0 .94.344.344 0 0 1 .248-.107c.194 0 .352.164.352.365 0 .1-.04.19-.103.256a1.024 1.024 0 0 0 .909 0 .37.37 0 0 1-.102-.256c0-.201.157-.365.352-.365.096 0 .184.041.247.107a1.112 1.112 0 0 0 0-.94M31.896 13.805a.345.345 0 0 1-.248.106.358.358 0 0 1-.351-.364c0-.1.038-.19.102-.257a1.024 1.024 0 0 0-.909 0 .37.37 0 0 1 .103.257.358.358 0 0 1-.353.364.345.345 0 0 1-.247-.106 1.11 1.11 0 0 0 0 .94.344.344 0 0 1 .247-.107c.195 0 .353.164.353.365 0 .1-.04.19-.103.256a1.024 1.024 0 0 0 .909 0 .367.367 0 0 1-.102-.256c0-.201.157-.365.351-.365.097 0 .185.041.248.107a1.12 1.12 0 0 0 0-.94M19.23 11.622a.345.345 0 0 1-.248.106.358.358 0 0 1-.352-.364c0-.1.039-.191.102-.257a1.02 1.02 0 0 0-.908 0 .37.37 0 0 1 .102.257.358.358 0 0 1-.352.364.346.346 0 0 1-.248-.106 1.116 1.116 0 0 0 0 .94.347.347 0 0 1 .248-.107c.195 0 .352.163.352.365 0 .1-.04.19-.102.256a1.023 1.023 0 0 0 .908 0 .37.37 0 0 1-.102-.256c0-.202.157-.365.352-.365.097 0 .184.041.248.106a1.118 1.118 0 0 0 0-.939M27.674 15.988a.346.346 0 0 1-.248.106.358.358 0 0 1-.352-.364c0-.1.04-.19.102-.256a1.015 1.015 0 0 0-.908 0 .37.37 0 0 1 .103.256.358.358 0 0 1-.353.364.345.345 0 0 1-.248-.106 1.12 1.12 0 0 0 0 .94.343.343 0 0 1 .248-.106c.195 0 .353.163.353.364 0 .1-.04.19-.103.256a1.02 1.02 0 0 0 .908 0 .37.37 0 0 1-.102-.256c0-.201.158-.364.352-.364.097 0 .185.04.248.106a1.12 1.12 0 0 0 0-.94"/>
        <g transform="translate(8 23.04)">
            <mask id="b" fill="#fff">
                <use xlink:href="#a"/>
            </mask>
            <path fill="#006CB0" d="M3.74 6.751C2.22 6.751.986 5.535.986 4.033c0-1.5 1.234-2.717 2.756-2.717 1.522 0 2.755 1.217 2.755 2.717 0 1.502-1.233 2.718-2.755 2.718m0-6.406C1.675.345 0 1.996 0 4.033c0 2.038 1.675 3.69 3.74 3.69 2.067 0 3.741-1.652 3.741-3.69 0-2.037-1.674-3.688-3.74-3.688" mask="url(#b)"/>
        </g>
        <g transform="translate(29.09 23.04)">
            <mask id="d" fill="#fff">
                <use xlink:href="#c"/>
            </mask>
            <path fill="#006CB0" d="M4.168 6.751c-1.521 0-2.755-1.216-2.755-2.718 0-1.5 1.234-2.717 2.755-2.717 1.522 0 2.756 1.217 2.756 2.717 0 1.502-1.234 2.718-2.756 2.718m0-6.406C2.102.345.428 1.996.428 4.033c0 2.038 1.674 3.69 3.74 3.69 2.066 0 3.741-1.652 3.741-3.69C7.91 1.996 6.234.345 4.17.345" mask="url(#d)"/>
        </g>
        <path fill="#F2C85B" d="M28.24 30.47a.57.57 0 0 1-.573-.565v-5.662a.57.57 0 0 1 .574-.566.57.57 0 0 1 .574.566v5.662a.57.57 0 0 1-.574.566M16.76 30.47a.57.57 0 0 1-.575-.565v-5.662a.57.57 0 0 1 .574-.566.57.57 0 0 1 .574.566v5.662a.57.57 0 0 1-.574.566"/>
    </g>
</svg>
