<svg xmlns="http://www.w3.org/2000/svg" xmlns:xlink="http://www.w3.org/1999/xlink" width="45" height="45" viewBox="0 0 45 45">
    <defs>
        <path id="a" d="M0 0h24.726v15.924H0z"/>
    </defs>
    <g fill="none" fill-rule="evenodd">
        <g transform="translate(10 11)">
            <mask id="b" fill="#fff">
                <use xlink:href="#a"/>
            </mask>
            <path fill="#006CB0" d="M20.09 6.37H18.5a4.566 4.566 0 0 0-3.411 1.592c-.502 0-.752-.639-.382-.987a5.378 5.378 0 0 1 3.645-1.476c-.729-3.154-3.48-5.5-6.763-5.5-3.84 0-6.954 3.21-6.954 7.166 0 .27.016.535.043.797H3.511C1.572 7.962 0 9.582 0 11.579v.727c0 1.998 1.572 3.618 3.51 3.618h16.58c2.56 0 4.636-2.14 4.636-4.777 0-2.639-2.076-4.778-4.636-4.778" mask="url(#b)"/>
        </g>
        <path fill="#006CB0" d="M14.796 33.954a.773.773 0 0 1-.444-.983l1.17-3.314a.738.738 0 0 1 .954-.458.773.773 0 0 1 .445.982l-1.171 3.315a.739.739 0 0 1-.954.458M19.171 33.954a.773.773 0 0 1-.445-.983l1.17-3.314a.738.738 0 0 1 .954-.458.773.773 0 0 1 .445.982l-1.17 3.315a.739.739 0 0 1-.954.458M23.545 33.954a.773.773 0 0 1-.444-.983l1.17-3.314a.738.738 0 0 1 .954-.458.773.773 0 0 1 .445.982l-1.171 3.315a.739.739 0 0 1-.954.458M27.92 33.954a.773.773 0 0 1-.445-.983l1.17-3.314a.739.739 0 0 1 .955-.458.774.774 0 0 1 .444.982l-1.17 3.315a.74.74 0 0 1-.954.458"/>
    </g>
</svg>
