<svg xmlns="http://www.w3.org/2000/svg" xmlns:xlink="http://www.w3.org/1999/xlink" width="45" height="45" viewBox="0 0 45 45">
    <defs>
        <path id="a" d="M0 .175h13.393v13.696H0z"/>
    </defs>
    <g fill="none" fill-rule="evenodd">
        <g transform="translate(21.16 12.281)">
            <mask id="b" fill="#fff">
                <use xlink:href="#a"/>
            </mask>
            <path fill="#006CB0" d="M13.393 7.023c0 3.782-2.998 6.848-6.697 6.848C2.998 13.87 0 10.805 0 7.023S2.998.175 6.696.175c3.699 0 6.697 3.066 6.697 6.848" mask="url(#b)"/>
        </g>
        <path fill="#F2C85B" d="M33.066 19.304c0 2.942-2.333 5.327-5.209 5.327-2.876 0-5.208-2.385-5.208-5.327 0-2.94 2.332-5.326 5.208-5.326 2.876 0 5.209 2.385 5.209 5.326"/>
        <path fill="#006CB0" d="M30.09 23.343H28.5a4.582 4.582 0 0 0-3.411 1.58c-.502 0-.753-.633-.382-.98a5.4 5.4 0 0 1 3.645-1.464c-.729-3.13-3.48-5.457-6.763-5.457-3.84 0-6.954 3.184-6.954 7.111 0 .267.016.53.043.79h-1.168c-1.939 0-3.511 1.608-3.511 3.59v.722c0 1.982 1.572 3.59 3.51 3.59h16.58c2.56 0 4.636-2.122 4.636-4.741 0-2.618-2.076-4.741-4.636-4.741"/>
    </g>
</svg>
