<svg xmlns="http://www.w3.org/2000/svg" xmlns:xlink="http://www.w3.org/1999/xlink" width="45" height="45" viewBox="0 0 45 45">
    <defs>
        <path id="a" d="M0 .25h21.551v24.295H.001z"/>
    </defs>
    <g fill="none" fill-rule="evenodd">
        <path fill="#F2C85B" d="M16.933 33.749c5.187 1.725 10.798-1.575 13.074-8.308 2.029-6 .375-12.1-3.681-14.575 1.885 3.034 2.337 7.41.875 11.736-2.276 6.733-9.02 10.684-14.207 8.96"/>
        <g transform="translate(12 10.205)">
            <mask id="b" fill="#fff">
                <use xlink:href="#a"/>
            </mask>
            <path fill="#006CB0" d="M13.57.25c3.01 2.9 4.507 7.218 3.593 11.595-1.422 6.813-8.144 11.193-15.014 9.782A12.8 12.8 0 0 1 0 20.987a12.673 12.673 0 0 0 6.272 3.294c6.87 1.41 13.591-2.969 15.013-9.782C22.553 8.427 19.182 2.472 13.57.25" mask="url(#b)"/>
        </g>
        <path fill="#F2C85B" d="M16.775 13.682a.592.592 0 0 1-1.007-.415.58.58 0 0 1 .172-.413 1.767 1.767 0 0 0-1.524 0 .582.582 0 0 1 .172.413.593.593 0 1 1-1.007.415 1.734 1.734 0 0 0 0 1.511.593.593 0 0 1 1.007.415.581.581 0 0 1-.172.413 1.765 1.765 0 0 0 1.524 0 .58.58 0 0 1-.172-.413.591.591 0 1 1 1.007-.415 1.733 1.733 0 0 0 0-1.511"/>
    </g>
</svg>
