<svg xmlns="http://www.w3.org/2000/svg" width="45" height="45" viewBox="0 0 45 45">
    <g fill="#006CB0" fill-rule="evenodd">
        <path d="M7 22.828l.88.879 3.517-3.518-.88-.879zM17.552 14.034l-3.518 3.518-.88-.88 3.518-3.517zM22.827 7l-3.517 3.517.88.88 3.517-3.518zM18.431 27.224l-3.517 3.518-.88-.88 3.518-3.517zM24.586 21.069l-3.517 3.517-.88-.88 3.518-3.516zM30.741 14.914l-3.517 3.517-.88-.88 3.518-3.516zM23.707 14.914l-3.518 3.517-.879-.88 3.517-3.516zM16.672 21.948l-3.517 3.518-.88-.88 3.518-3.517zM21.069 36.897l.88.879 3.516-3.518-.878-.879zM31.62 28.104l-3.517 3.517-.88-.88 3.518-3.517zM33.379 24.586l.88.88 3.517-3.518-.88-.88zM30.741 21.948l-3.517 3.518-.88-.88 3.518-3.517zM23.707 28.983L20.189 32.5l-.879-.88 3.517-3.517z"/>
    </g>
</svg>
