<svg xmlns="http://www.w3.org/2000/svg" width="24" height="24" viewBox="0 0 24 24">
    <g fill="none" fill-rule="evenodd">
        <path d="M0 0h24v24H0z"/>
        <path fill="#FFF" d="M12 21.823a1.888 1.888 0 0 0 1.882-1.882h-3.764c0 1.035.847 1.882 1.882 1.882zm6.118-5.647V11a6.115 6.115 0 0 0-4.706-5.949v-.64A1.41 1.41 0 0 0 12 3a1.41 1.41 0 0 0-1.412 1.412v.64A6.115 6.115 0 0 0 5.882 11v5.176L4 18.058V19h16v-.942l-1.882-1.882zm-1.883.941h-8.47V11A4.23 4.23 0 0 1 12 6.764 4.23 4.23 0 0 1 16.235 11v6.117z"/>
    </g>
</svg>
